<!DOCTYPE svg PUBLIC "-//W3C//DTD SVG 20010904//EN" "http://www.w3.org/TR/2001/REC-SVG-20010904/DTD/svg10.dtd">
<svg version="1.0" xmlns="http://www.w3.org/2000/svg" width="256px" height="256px" viewBox="0 0 2560 2560" preserveAspectRatio="xMidYMid meet">
<g id="layer101" fill="#de5b21" stroke="none">
 <path d="M483 2535 c-235 -61 -380 -196 -450 -420 l-28 -90 0 -745 0 -745 28 -90 c71 -226 216 -360 453 -421 l97 -24 697 0 697 0 97 24 c237 61 382 195 453 421 l28 90 0 745 0 745 -28 90 c-71 226 -216 360 -453 421 l-97 24 -701 0 -701 -1 -92 -24z"/>
 </g>
<g id="layer102" fill="#e3611d" stroke="none">
 <path d="M560 2553 c-256 -45 -440 -186 -510 -392 -49 -148 -50 -158 -50 -881 0 -723 1 -733 50 -881 61 -179 209 -311 415 -371 l80 -23 735 0 735 0 80 23 c253 73 391 227 450 500 21 99 21 1405 0 1504 -58 271 -193 422 -445 500 -75 22 -75 22 -795 24 -396 1 -731 0 -745 -3z m817 -340 c-4 -3 -10 -3 -14 0 -3 4 0 7 7 7 7 0 10 -3 7 -7z m484 -200 c13 -16 12 -17 -3 -4 -10 7 -18 15 -18 17 0 8 8 3 21 -13z m-1024 -10 c-4 -3 -7 0 -7 7 0 7 3 10 7 7 3 -4 3 -10 0 -14z m-140 -10 c-4 -3 -10 -3 -14 0 -3 4 0 7 7 7 7 0 10 -3 7 -7z m570 -20 c-4 -3 -10 -3 -14 0 -3 4 0 7 7 7 7 0 10 -3 7 -7z m-630 -30 c-4 -3 -10 -3 -14 0 -3 4 0 7 7 7 7 0 10 -3 7 -7z m623 3 c0 -3 -5 -8 -12 -12 -7 -4 -8 -3 -4 4 7 12 16 16 16 8z m698 -41 c-3 -3 -13 7 -23 22 l-17 28 23 -22 c12 -12 20 -25 17 -28z m-1398 -45 c-24 -15 -37 -11 -16 5 11 8 22 12 25 9 3 -3 -1 -9 -9 -14z m1460 -6 c0 -8 -4 -12 -10 -9 -5 3 -10 10 -10 16 0 5 5 9 10 9 6 0 10 -7 10 -16z m-1273 -41 c-4 -3 -7 0 -7 7 0 7 3 10 7 7 3 -4 3 -10 0 -14z m1040 -50 c-4 -3 -7 0 -7 7 0 7 3 10 7 7 3 -4 3 -10 0 -14z m-1100 -30 c-4 -3 -10 -3 -14 0 -3 4 0 7 7 7 7 0 10 -3 7 -7z m1443 -7 c0 -3 -5 -8 -12 -12 -7 -4 -8 -3 -4 4 7 12 16 16 16 8z m-903 -53 c-4 -3 -10 -3 -14 0 -3 4 0 7 7 7 7 0 10 -3 7 -7z m560 -15 c-3 -8 -6 -5 -6 6 -1 11 2 17 5 13 3 -3 4 -12 1 -19z m344 5 c13 -16 12 -17 -3 -4 -10 7 -18 15 -18 17 0 8 8 3 21 -13z m-144 -185 c-3 -8 -6 -5 -6 6 -1 11 2 17 5 13 3 -3 4 -12 1 -19z m-347 -111 c0 -2 -10 -12 -22 -23 l-23 -19 19 23 c18 21 26 27 26 19z m-1285 -97 c3 -5 1 -10 -4 -10 -6 0 -11 5 -11 10 0 6 2 10 4 10 3 0 8 -4 11 -10z m1652 -47 c-4 -3 -7 0 -7 7 0 7 3 10 7 7 3 -4 3 -10 0 -14z m-70 -140 c-4 -3 -7 0 -7 7 0 7 3 10 7 7 3 -4 3 -10 0 -14z m-990 0 c-4 -3 -10 -3 -14 0 -3 4 0 7 7 7 7 0 10 -3 7 -7z m-297 -127 c0 -3 -5 -8 -12 -12 -7 -4 -8 -3 -4 4 7 12 16 16 16 8z m236 -23 c-6 -6 -36 9 -36 18 0 5 9 4 20 -3 10 -7 18 -14 16 -15z m1014 13 c0 -3 -5 -8 -12 -12 -7 -4 -8 -3 -4 4 7 12 16 16 16 8z m-1243 -33 c-4 -3 -7 0 -7 7 0 7 3 10 7 7 3 -4 3 -10 0 -14z m58 -73 c3 -5 1 -10 -4 -10 -6 0 -11 5 -11 10 0 6 2 10 4 10 3 0 8 -4 11 -10z m1105 -34 c0 -3 -5 -8 -12 -12 -7 -4 -8 -3 -4 4 7 12 16 16 16 8z m250 -26 c0 -5 -5 -10 -11 -10 -5 0 -7 5 -4 10 3 6 8 10 11 10 2 0 4 -4 4 -10z m-1249 -37 c13 -16 12 -17 -3 -4 -10 7 -18 15 -18 17 0 8 8 3 21 -13z m1219 -8 c-7 -9 -15 -13 -17 -11 -7 7 7 26 19 26 6 0 6 -6 -2 -15z m-413 -62 c-4 -3 -10 -3 -14 0 -3 4 0 7 7 7 7 0 10 -3 7 -7z m-40 -40 c-4 -3 -10 -3 -14 0 -3 4 0 7 7 7 7 0 10 -3 7 -7z m400 -20 c-4 -3 -7 0 -7 7 0 7 3 10 7 7 3 -4 3 -10 0 -14z m-490 -9 c-3 -3 -12 -4 -19 -1 -8 3 -5 6 6 6 11 1 17 -2 13 -5z m240 -141 c-4 -3 -7 0 -7 7 0 7 3 10 7 7 3 -4 3 -10 0 -14z m-852 -23 c3 -5 4 -10 1 -10 -3 0 -8 5 -11 10 -3 6 -4 10 -1 10 3 0 8 -4 11 -10z m822 3 c-4 -3 -10 -3 -14 0 -3 4 0 7 7 7 7 0 10 -3 7 -7z"/>
 </g>
<g id="layer103" fill="#ed6021" stroke="none">
 <path d="M560 2553 c-257 -45 -441 -187 -510 -392 -48 -145 -49 -154 -50 -877 0 -727 0 -736 50 -885 60 -178 210 -311 415 -371 l80 -23 735 0 735 0 80 23 c253 73 392 228 450 500 21 99 21 1405 0 1504 -58 270 -194 423 -445 499 -75 23 -77 23 -795 25 -396 1 -731 0 -745 -3z m1017 -320 c-4 -3 -10 -3 -14 0 -3 4 0 7 7 7 7 0 10 -3 7 -7z m-200 -20 c-4 -3 -10 -3 -14 0 -3 4 0 7 7 7 7 0 10 -3 7 -7z m-220 -20 c-4 -3 -10 -3 -14 0 -3 4 0 7 7 7 7 0 10 -3 7 -7z m-87 -43 c0 -5 -2 -10 -4 -10 -3 0 -8 5 -11 10 -3 6 -1 10 4 10 6 0 11 -4 11 -10z m687 -27 c-4 -3 -7 0 -7 7 0 7 3 10 7 7 3 -4 3 -10 0 -14z m-987 -57 c0 -3 -5 -8 -12 -12 -7 -4 -8 -3 -4 4 7 12 16 16 16 8z m235 -16 c3 -5 1 -10 -4 -10 -6 0 -11 5 -11 10 0 6 2 10 4 10 3 0 8 -4 11 -10z m860 -40 c10 -11 16 -20 13 -20 -3 0 -13 9 -23 20 -10 11 -16 20 -13 20 3 0 13 -9 23 -20z m-1028 -7 c-4 -3 -7 0 -7 7 0 7 3 10 7 7 3 -4 3 -10 0 -14z m-140 -10 c-4 -3 -10 -3 -14 0 -3 4 0 7 7 7 7 0 10 -3 7 -7z m570 -20 c-4 -3 -10 -3 -14 0 -3 4 0 7 7 7 7 0 10 -3 7 -7z m-630 -30 c-4 -3 -10 -3 -14 0 -3 4 0 7 7 7 7 0 10 -3 7 -7z m623 3 c0 -3 -5 -8 -12 -12 -7 -4 -8 -3 -4 4 7 12 16 16 16 8z m698 -41 c-3 -3 -13 7 -23 22 l-17 28 23 -22 c12 -12 20 -25 17 -28z m-1398 -45 c-24 -15 -37 -11 -16 5 11 8 22 12 25 9 3 -3 -1 -9 -9 -14z m1460 -6 c0 -8 -4 -12 -10 -9 -5 3 -10 10 -10 16 0 5 5 9 10 9 6 0 10 -7 10 -16z m-823 -11 c-4 -3 -7 0 -7 7 0 7 3 10 7 7 3 -4 3 -10 0 -14z m-450 -30 c-4 -3 -7 0 -7 7 0 7 3 10 7 7 3 -4 3 -10 0 -14z m1040 -50 c-4 -3 -7 0 -7 7 0 7 3 10 7 7 3 -4 3 -10 0 -14z m-1100 -30 c-4 -3 -10 -3 -14 0 -3 4 0 7 7 7 7 0 10 -3 7 -7z m1443 -7 c0 -3 -5 -8 -12 -12 -7 -4 -8 -3 -4 4 7 12 16 16 16 8z m-333 -33 c-4 -3 -7 0 -7 7 0 7 3 10 7 7 3 -4 3 -10 0 -14z m-570 -20 c-4 -3 -10 -3 -14 0 -3 4 0 7 7 7 7 0 10 -3 7 -7z m560 -25 c-3 -7 -5 -2 -5 12 0 14 2 19 5 13 2 -7 2 -19 0 -25z m344 15 c13 -16 12 -17 -3 -4 -10 7 -18 15 -18 17 0 8 8 3 21 -13z m-694 -80 c-4 -3 -10 -3 -14 0 -3 4 0 7 7 7 7 0 10 -3 7 -7z m-810 -20 c-4 -3 -7 0 -7 7 0 7 3 10 7 7 3 -4 3 -10 0 -14z m728 7 c3 -5 -1 -10 -9 -10 -9 0 -16 5 -16 10 0 6 4 10 9 10 6 0 13 -4 16 -10z m-998 -17 c-4 -3 -7 0 -7 7 0 7 3 10 7 7 3 -4 3 -10 0 -14z m1113 13 c0 -3 -4 -8 -10 -11 -5 -3 -10 -1 -10 4 0 6 5 11 10 11 6 0 10 -2 10 -4z m727 -38 c-3 -7 -5 -2 -5 12 0 14 2 19 5 13 2 -7 2 -19 0 -25z m-757 18 c0 -11 -19 -15 -25 -6 -3 5 1 10 9 10 9 0 16 -2 16 -4z m527 -53 c-4 -3 -7 0 -7 7 0 7 3 10 7 7 3 -4 3 -10 0 -14z m20 -15 c-3 -8 -6 -5 -6 6 -1 11 2 17 5 13 3 -3 4 -12 1 -19z m-50 -25 c-4 -3 -7 0 -7 7 0 7 3 10 7 7 3 -4 3 -10 0 -14z m-297 -86 c0 -2 -10 -12 -22 -23 l-23 -19 19 23 c18 21 26 27 26 19z m367 -24 c-4 -3 -7 0 -7 7 0 7 3 10 7 7 3 -4 3 -10 0 -14z m-717 -17 c0 -3 -5 -8 -12 -12 -7 -4 -8 -3 -4 4 7 12 16 16 16 8z m-83 -33 c-4 -3 -7 0 -7 7 0 7 3 10 7 7 3 -4 3 -10 0 -14z m360 10 c-4 -3 -10 -3 -14 0 -3 4 0 7 7 7 7 0 10 -3 7 -7z m-1212 -33 c3 -5 1 -10 -4 -10 -6 0 -11 5 -11 10 0 6 2 10 4 10 3 0 8 -4 11 -10z m192 -7 c-4 -3 -7 0 -7 7 0 7 3 10 7 7 3 -4 3 -10 0 -14z m1460 -40 c-4 -3 -7 0 -7 7 0 7 3 10 7 7 3 -4 3 -10 0 -14z m-57 -144 c0 -6 -4 -7 -10 -4 -5 3 -10 11 -10 16 0 6 5 7 10 4 6 -3 10 -11 10 -16z m-1003 4 c-4 -3 -10 -3 -14 0 -3 4 0 7 7 7 7 0 10 -3 7 -7z m-310 -40 c-4 -3 -7 0 -7 7 0 7 3 10 7 7 3 -4 3 -10 0 -14z m1300 -30 c-4 -3 -7 0 -7 7 0 7 3 10 7 7 3 -4 3 -10 0 -14z m270 -10 c-4 -3 -7 0 -7 7 0 7 3 10 7 7 3 -4 3 -10 0 -14z m-1400 -20 c-4 -3 -7 0 -7 7 0 7 3 10 7 7 3 -4 3 -10 0 -14z m380 -10 c-4 -3 -7 0 -7 7 0 7 3 10 7 7 3 -4 3 -10 0 -14z m-537 -17 c0 -3 -5 -8 -12 -12 -7 -4 -8 -3 -4 4 7 12 16 16 16 8z m236 -23 c-6 -6 -36 9 -36 18 0 5 9 4 20 -3 10 -7 18 -14 16 -15z m1014 13 c0 -3 -5 -8 -12 -12 -7 -4 -8 -3 -4 4 7 12 16 16 16 8z m-1243 -33 c-4 -3 -7 0 -7 7 0 7 3 10 7 7 3 -4 3 -10 0 -14z m460 -10 c-4 -3 -10 -3 -14 0 -3 4 0 7 7 7 7 0 10 -3 7 -7z m-190 -20 c-4 -3 -10 -3 -14 0 -3 4 0 7 7 7 7 0 10 -3 7 -7z m-212 -43 c3 -5 1 -10 -4 -10 -6 0 -11 5 -11 10 0 6 2 10 4 10 3 0 8 -4 11 -10z m1105 -34 c0 -3 -5 -8 -12 -12 -7 -4 -8 -3 -4 4 7 12 16 16 16 8z m250 -26 c0 -5 -5 -10 -11 -10 -5 0 -7 5 -4 10 3 6 8 10 11 10 2 0 4 -4 4 -10z m-1249 -37 c13 -16 12 -17 -3 -4 -10 7 -18 15 -18 17 0 8 8 3 21 -13z m1219 -8 c-7 -9 -15 -13 -17 -11 -7 7 7 26 19 26 6 0 6 -6 -2 -15z m-1153 -22 c-4 -3 -10 -3 -14 0 -3 4 0 7 7 7 7 0 10 -3 7 -7z m818 -11 c-3 -3 -11 0 -18 7 -9 10 -8 11 6 5 10 -3 15 -9 12 -12z m352 -9 c-4 -3 -7 0 -7 7 0 7 3 10 7 7 3 -4 3 -10 0 -14z m-1130 0 c-4 -3 -10 -3 -14 0 -3 4 0 7 7 7 7 0 10 -3 7 -7z m700 -20 c-4 -3 -10 -3 -14 0 -3 4 0 7 7 7 7 0 10 -3 7 -7z m390 -10 c-4 -3 -10 -3 -14 0 -3 4 0 7 7 7 7 0 10 -3 7 -7z m-660 -29 c-3 -3 -12 -4 -19 -1 -8 3 -5 6 6 6 11 1 17 -2 13 -5z m230 -1 c-4 -3 -10 -3 -14 0 -3 4 0 7 7 7 7 0 10 -3 7 -7z m-390 -10 c-4 -3 -10 -3 -14 0 -3 4 0 7 7 7 7 0 10 -3 7 -7z m790 -10 c-4 -3 -7 0 -7 7 0 7 3 10 7 7 3 -4 3 -10 0 -14z m-490 -9 c-3 -3 -12 -4 -19 -1 -8 3 -5 6 6 6 11 1 17 -2 13 -5z m400 -71 c-4 -3 -7 0 -7 7 0 7 3 10 7 7 3 -4 3 -10 0 -14z m-160 -70 c-4 -3 -7 0 -7 7 0 7 3 10 7 7 3 -4 3 -10 0 -14z m-852 -23 c3 -5 4 -10 1 -10 -3 0 -8 5 -11 10 -3 6 -4 10 -1 10 3 0 8 -4 11 -10z m822 3 c-4 -3 -10 -3 -14 0 -3 4 0 7 7 7 7 0 10 -3 7 -7z m-890 -10 c-4 -3 -10 -3 -14 0 -3 4 0 7 7 7 7 0 10 -3 7 -7z m848 -21 c-3 -3 -11 0 -18 7 -9 10 -8 11 6 5 10 -3 15 -9 12 -12z m75 14 c0 -3 -5 -8 -12 -12 -7 -4 -8 -3 -4 4 7 12 16 16 16 8z m-663 -83 c-4 -3 -10 -3 -14 0 -3 4 0 7 7 7 7 0 10 -3 7 -7z m-40 -20 c-4 -3 -10 -3 -14 0 -3 4 0 7 7 7 7 0 10 -3 7 -7z m500 0 c-4 -3 -10 -3 -14 0 -3 4 0 7 7 7 7 0 10 -3 7 -7z"/>
 </g>
<g id="layer104" fill="#e0f3f3" stroke="none">
 <path d="M1230 2186 c-70 -15 -136 -53 -184 -107 -68 -74 -68 -77 -77 -459 -4 -190 -8 -383 -8 -430 -1 -97 -11 -122 -38 -102 -58 40 -107 35 -119 -12 -9 -36 37 -109 87 -143 56 -37 140 -43 195 -15 90 46 104 87 104 303 0 93 3 169 8 169 4 0 16 -6 27 -14 48 -32 137 -56 211 -56 92 0 160 21 212 66 115 98 152 246 116 459 l-7 40 26 -24 c36 -32 119 -157 156 -234 72 -147 93 -362 50 -517 -69 -250 -259 -443 -504 -511 -101 -28 -287 -31 -383 -6 -213 56 -406 209 -496 392 -60 121 -79 212 -73 340 10 203 75 350 237 531 51 57 70 86 70 106 0 30 -31 68 -55 68 -55 0 -188 -115 -264 -229 -56 -83 -127 -232 -143 -301 -7 -33 -12 -123 -12 -225 1 -158 3 -176 29 -255 98 -301 300 -513 583 -615 107 -38 191 -49 342 -42 158 7 254 32 390 103 175 92 306 227 395 409 75 152 88 213 89 415 1 147 -2 173 -22 240 -80 254 -267 466 -528 599 -43 22 -106 47 -139 56 -69 18 -196 18 -275 1z m238 -224 c42 -30 68 -83 83 -166 32 -186 -45 -293 -183 -252 -112 32 -176 124 -185 263 -8 138 39 187 177 181 59 -2 82 -8 108 -26z"/>
 </g>
<g id="layer105" fill="#fcfefd" stroke="none">
 <path d="M1226 2185 c-70 -16 -112 -44 -109 -74 2 -18 0 -20 -17 -9 -17 11 -24 8 -50 -17 -16 -16 -30 -35 -30 -43 0 -8 -7 -20 -16 -26 -24 -18 -32 -123 -38 -528 -4 -208 -9 -384 -12 -393 -8 -21 -31 -19 -65 6 -18 13 -36 18 -49 14 -23 -7 -26 -21 -7 -29 6 -3 3 -4 -8 -3 -27 3 -31 -28 -8 -60 10 -14 25 -37 34 -51 37 -62 161 -92 232 -56 48 25 66 43 88 93 18 41 20 63 18 208 -2 89 -1 165 3 168 3 3 23 -3 44 -14 21 -12 49 -21 62 -21 13 0 30 -7 38 -15 21 -20 164 -20 222 0 60 21 94 45 88 62 -3 8 -2 12 3 9 5 -3 29 19 54 49 71 86 94 218 63 363 -21 102 0 91 87 -45 99 -155 117 -185 117 -198 0 -6 9 -47 20 -90 12 -47 20 -111 20 -161 0 -45 4 -94 9 -108 6 -15 6 -26 1 -28 -6 -2 -19 -36 -30 -76 -11 -41 -32 -96 -45 -123 -14 -26 -25 -56 -25 -64 0 -9 -13 -27 -29 -40 -15 -14 -34 -38 -41 -55 -7 -16 -18 -30 -26 -30 -7 0 -17 -6 -21 -13 -4 -6 -28 -29 -53 -50 -25 -21 -56 -48 -69 -60 -13 -12 -67 -36 -120 -54 -53 -18 -95 -37 -93 -43 2 -8 -3 -8 -15 -2 -9 6 -26 7 -37 3 -22 -8 -243 -6 -286 3 -63 12 -223 75 -246 96 -21 21 -27 22 -35 10 -9 -13 -10 -13 -6 1 4 12 -17 34 -68 75 -41 33 -74 62 -75 66 0 4 -12 20 -26 35 -14 15 -30 37 -35 48 -5 11 -20 39 -33 61 -13 23 -36 86 -51 140 -26 90 -27 106 -21 213 4 64 7 124 7 133 0 10 5 20 10 23 5 4 7 11 3 16 -3 5 -1 15 4 22 5 7 13 28 17 47 4 19 15 44 25 55 10 11 27 41 39 67 12 26 27 51 34 55 18 11 57 63 57 76 0 6 -10 2 -22 -9 l-23 -19 19 22 c10 13 23 20 27 17 5 -3 9 -1 9 4 0 5 11 14 25 20 14 6 25 20 25 29 0 10 10 23 22 28 25 11 33 34 24 71 -7 27 -41 49 -59 37 -6 -4 -21 -9 -32 -10 -10 -2 -31 -11 -45 -20 -37 -24 -160 -152 -160 -167 0 -7 -12 -26 -27 -42 -34 -36 -119 -214 -133 -277 -5 -26 -13 -100 -16 -165 -9 -183 15 -310 86 -461 27 -56 45 -81 53 -78 10 4 13 -2 9 -19 -4 -20 0 -24 19 -24 20 0 21 -2 9 -11 -13 -8 -12 -12 7 -26 13 -8 23 -21 23 -27 0 -15 111 -122 180 -173 64 -48 189 -110 240 -119 19 -4 40 -10 45 -15 44 -34 365 -36 475 -3 69 20 75 24 59 36 -9 6 -3 7 18 3 24 -5 45 1 93 27 34 18 77 41 96 51 19 10 34 25 34 32 0 7 16 19 36 25 22 7 33 17 30 25 -2 7 3 12 12 11 10 0 16 6 16 16 -1 9 4 14 11 12 12 -5 85 71 85 89 0 5 14 23 32 40 40 40 122 211 143 297 21 89 32 354 15 375 -7 8 -10 22 -6 30 14 38 -104 312 -146 338 -10 7 -18 17 -18 23 0 7 -7 14 -15 18 -8 3 -15 11 -15 19 0 18 -82 97 -102 97 -8 0 -18 9 -21 19 -6 23 -131 119 -167 127 -14 4 -34 15 -45 24 -74 66 -280 97 -429 65z m541 -162 c-4 -3 -7 0 -7 7 0 7 3 10 7 7 3 -4 3 -10 0 -14z m-322 -44 c5 -5 16 -9 25 -9 44 -1 85 -129 84 -263 0 -93 -2 -98 -29 -127 -63 -66 -145 -62 -251 11 -24 16 -45 26 -45 22 -1 -4 -5 8 -10 27 -14 63 -39 154 -48 183 -5 15 -6 27 -2 27 4 0 12 21 19 46 13 46 57 98 77 90 7 -2 17 -1 23 3 16 9 145 1 157 -10z m312 -66 c-4 -3 -10 -3 -14 0 -3 4 0 7 7 7 7 0 10 -3 7 -7z m-20 -60 c-4 -3 -7 0 -7 7 0 7 3 10 7 7 3 -4 3 -10 0 -14z m-1050 -30 c-4 -3 -7 0 -7 7 0 7 3 10 7 7 3 -4 3 -10 0 -14z m570 -260 c-4 -3 -7 0 -7 7 0 7 3 10 7 7 3 -4 3 -10 0 -14z m-540 -760 c-4 -3 -10 -3 -14 0 -3 4 0 7 7 7 7 0 10 -3 7 -7z m1083 -67 c0 -3 -4 -8 -10 -11 -5 -3 -10 -1 -10 4 0 6 5 11 10 11 6 0 10 -2 10 -4z m-53 -43 c-4 -3 -10 -3 -14 0 -3 4 0 7 7 7 7 0 10 -3 7 -7z m23 -173 c0 -5 -8 -10 -17 -10 -15 0 -16 2 -3 10 19 12 20 12 20 0z"/>
 </g>

</svg>