<svg id="svg" version="1.1" xmlns="http://www.w3.org/2000/svg" xmlns:xlink="http://www.w3.org/1999/xlink" width="400" height="400" viewBox="0, 0, 400,400"><g id="svgg"><path id="path0" d="M85.181 85.181 L 83.200 87.162 83.200 199.927 L 83.200 312.692 84.067 313.846 C 84.544 314.481,85.479 315.585,86.146 316.300 L 87.357 317.600 120.845 317.600 L 154.334 317.600 155.967 315.154 L 157.600 312.709 157.600 279.138 C 157.600 242.264,157.454 244.647,159.886 241.750 C 162.587 238.533,163.787 238.430,198.973 238.414 C 231.094 238.399,235.300 238.203,236.745 236.651 C 238.220 235.067,238.400 231.035,238.399 199.671 C 238.398 162.696,238.442 162.317,243.140 159.015 L 244.869 157.800 278.934 157.686 L 313.000 157.572 315.200 156.047 L 317.400 154.521 317.502 120.877 L 317.605 87.233 315.182 85.216 L 312.758 83.200 199.960 83.200 L 87.162 83.200 85.181 85.181 " stroke="none" fill="#fcf8f8" fill-rule="evenodd"></path><path id="path1" d="M85.284 78.511 C 82.985 79.702,79.433 83.292,78.418 85.451 L 77.596 87.200 77.698 200.500 L 77.800 313.800 78.694 315.600 C 80.157 318.545,82.376 320.819,85.000 322.062 L 87.400 323.199 120.716 323.200 C 160.332 323.200,156.895 323.795,160.791 316.266 L 162.400 313.157 162.400 279.399 L 162.400 245.641 163.722 244.632 C 164.449 244.078,165.934 243.214,167.022 242.712 L 169.000 241.800 201.400 241.539 C 236.419 241.257,237.385 241.200,239.292 239.292 C 241.206 237.378,241.266 236.364,241.543 201.400 C 241.827 165.568,241.628 168.120,244.454 164.185 L 245.736 162.400 279.264 162.400 L 312.792 162.400 315.296 161.388 C 318.809 159.968,321.331 158.007,322.348 155.908 C 323.197 154.155,323.200 154.012,323.200 120.685 L 323.200 87.222 322.146 84.996 C 320.903 82.370,318.713 80.343,315.400 78.753 L 313.000 77.601 200.000 77.612 L 87.000 77.623 85.284 78.511 M315.182 85.216 L 317.605 87.233 317.502 120.877 L 317.400 154.521 315.200 156.047 L 313.000 157.572 278.934 157.686 L 244.869 157.800 243.140 159.015 C 238.442 162.317,238.398 162.696,238.399 199.671 C 238.400 231.035,238.220 235.067,236.745 236.651 C 235.300 238.203,231.094 238.399,198.973 238.414 C 163.787 238.430,162.587 238.533,159.886 241.750 C 157.454 244.647,157.600 242.264,157.600 279.138 L 157.600 312.709 155.967 315.154 L 154.334 317.600 120.845 317.600 L 87.357 317.600 86.146 316.300 C 85.479 315.585,84.544 314.481,84.067 313.846 L 83.200 312.692 83.200 199.927 L 83.200 87.162 85.181 85.181 L 87.162 83.200 199.960 83.200 L 312.758 83.200 315.182 85.216 " stroke="none" fill="#fca4a4" fill-rule="evenodd"></path><path id="path2" d="M84.112 76.519 C 80.385 78.091,78.607 79.658,77.137 82.666 L 75.800 85.400 75.800 200.200 L 75.800 315.000 76.904 317.578 C 78.609 321.562,80.491 323.060,85.662 324.549 C 89.659 325.700,153.092 325.520,156.151 324.349 C 159.430 323.095,161.143 321.406,163.200 317.403 L 165.000 313.899 165.200 279.697 L 165.400 245.495 167.600 244.248 L 169.800 243.000 203.630 242.800 L 237.459 242.600 239.080 241.527 C 239.972 240.937,241.129 239.767,241.651 238.927 L 242.600 237.400 242.721 203.970 L 242.842 170.541 244.155 167.970 L 245.467 165.400 279.634 165.200 L 313.800 165.000 316.000 164.012 C 320.206 162.122,321.680 161.102,322.834 159.281 C 325.324 155.356,325.228 157.011,325.109 119.970 L 325.000 86.200 324.085 83.937 C 322.263 79.430,320.943 78.137,316.599 76.605 L 313.800 75.617 200.000 75.627 L 86.200 75.637 84.112 76.519 M315.400 78.753 C 318.713 80.343,320.903 82.370,322.146 84.996 L 323.200 87.222 323.200 120.685 C 323.200 154.012,323.197 154.155,322.348 155.908 C 321.331 158.007,318.809 159.968,315.296 161.388 L 312.792 162.400 279.264 162.400 L 245.736 162.400 244.454 164.185 C 241.628 168.120,241.827 165.568,241.543 201.400 C 241.266 236.364,241.206 237.378,239.292 239.292 C 237.385 241.200,236.419 241.257,201.400 241.539 L 169.000 241.800 167.022 242.712 C 165.934 243.214,164.449 244.078,163.722 244.632 L 162.400 245.641 162.400 279.399 L 162.400 313.157 160.791 316.266 C 156.895 323.795,160.332 323.200,120.716 323.200 L 87.400 323.199 85.000 322.062 C 82.376 320.819,80.157 318.545,78.694 315.600 L 77.800 313.800 77.698 200.500 L 77.596 87.200 78.418 85.451 C 79.433 83.292,82.985 79.702,85.284 78.511 L 87.000 77.623 200.000 77.612 L 313.000 77.601 315.400 78.753 " stroke="none" fill="#f4746c" fill-rule="evenodd"></path><path id="path3" d="M54.400 1.971 L 54.400 3.942 52.300 4.185 C 51.145 4.318,47.799 4.466,44.863 4.515 C 38.402 4.621,38.223 4.744,37.791 9.358 L 37.514 12.311 33.732 12.595 C 29.277 12.929,29.200 13.017,29.200 17.786 L 29.200 20.720 25.620 20.860 C 21.119 21.036,21.036 21.119,20.860 25.620 L 20.720 29.200 17.786 29.200 C 13.017 29.200,12.929 29.277,12.595 33.732 L 12.311 37.514 9.358 37.791 C 4.744 38.223,4.621 38.402,4.515 44.863 C 4.466 47.799,4.318 51.145,4.185 52.300 L 3.942 54.400 1.971 54.400 L 0.000 54.400 0.000 200.000 L 0.000 345.600 1.971 345.600 L 3.942 345.600 4.185 347.700 C 4.318 348.855,4.466 352.201,4.515 355.137 C 4.621 361.598,4.744 361.777,9.358 362.209 L 12.311 362.486 12.595 366.268 C 12.929 370.723,13.017 370.800,17.786 370.800 L 20.720 370.800 20.860 374.380 C 21.036 378.881,21.119 378.964,25.620 379.140 L 29.200 379.280 29.200 382.214 C 29.200 386.983,29.277 387.071,33.732 387.405 L 37.514 387.689 37.791 390.642 C 38.223 395.256,38.402 395.379,44.863 395.485 C 47.799 395.534,51.145 395.682,52.300 395.815 L 54.400 396.058 54.400 398.029 L 54.400 400.000 200.000 400.000 L 345.600 400.000 345.600 398.029 L 345.600 396.058 347.700 395.815 C 348.855 395.682,352.201 395.534,355.137 395.485 C 361.598 395.379,361.777 395.256,362.209 390.642 L 362.486 387.689 366.268 387.405 C 370.723 387.071,370.800 386.983,370.800 382.214 L 370.800 379.280 374.380 379.140 C 376.612 379.053,378.157 378.804,378.480 378.480 C 378.804 378.157,379.053 376.612,379.140 374.380 L 379.280 370.800 382.214 370.800 C 386.983 370.800,387.071 370.723,387.405 366.268 L 387.689 362.486 390.642 362.209 C 395.256 361.777,395.379 361.598,395.485 355.137 C 395.534 352.201,395.682 348.855,395.815 347.700 L 396.058 345.600 398.029 345.600 L 400.000 345.600 400.000 200.000 L 400.000 54.400 398.029 54.400 L 396.058 54.400 395.815 52.300 C 395.682 51.145,395.534 47.799,395.485 44.863 C 395.379 38.402,395.256 38.223,390.642 37.791 L 387.689 37.514 387.405 33.732 C 387.071 29.277,386.983 29.200,382.214 29.200 L 379.280 29.200 379.140 25.620 C 378.964 21.119,378.881 21.036,374.380 20.860 L 370.800 20.720 370.800 17.786 C 370.800 13.017,370.723 12.929,366.268 12.595 L 362.486 12.311 362.209 9.358 C 361.777 4.744,361.598 4.621,355.137 4.515 C 352.201 4.466,348.855 4.318,347.700 4.185 L 345.600 3.942 345.600 1.971 L 345.600 0.000 200.000 0.000 L 54.400 0.000 54.400 1.971 M9.611 39.529 C 8.486 39.960,7.484 40.716,6.911 41.566 C 6.410 42.310,6.000 42.736,6.000 42.513 C 6.000 41.214,9.125 38.820,10.800 38.837 C 11.130 38.841,10.595 39.152,9.611 39.529 M390.946 39.352 C 392.241 39.893,394.000 41.714,394.000 42.513 C 394.000 42.736,393.590 42.310,393.089 41.566 C 392.516 40.716,391.514 39.960,390.389 39.529 C 389.405 39.152,388.831 38.834,389.113 38.822 C 389.395 38.810,390.220 39.048,390.946 39.352 M316.262 73.397 C 322.679 74.438,324.628 75.862,326.119 80.599 L 327.000 83.400 327.000 120.600 L 327.000 157.800 326.069 160.106 C 324.482 164.038,322.009 166.305,318.200 167.320 C 315.070 168.154,314.239 168.175,280.358 168.299 L 245.717 168.425 245.158 169.513 C 244.698 170.409,244.565 176.610,244.400 204.800 L 244.200 239.000 243.192 240.799 C 242.368 242.273,241.787 242.760,239.992 243.487 L 237.800 244.375 204.280 244.388 C 175.033 244.398,170.610 244.478,169.580 245.010 L 168.400 245.621 168.400 279.027 C 168.400 318.761,168.332 319.454,164.082 323.283 C 159.552 327.363,160.707 327.265,118.800 327.122 C 78.115 326.983,79.612 327.103,76.318 323.713 C 72.554 319.840,72.803 328.610,72.807 199.800 C 72.810 89.439,72.827 86.918,73.592 83.211 C 74.870 77.017,77.262 74.729,83.818 73.427 C 88.155 72.566,310.961 72.537,316.262 73.397 M9.611 360.471 C 10.595 360.848,11.169 361.166,10.887 361.178 C 9.261 361.247,6.000 358.784,6.000 357.487 C 6.000 357.264,6.410 357.690,6.911 358.434 C 7.484 359.284,8.486 360.040,9.611 360.471 M393.449 358.582 C 392.625 359.838,391.356 360.675,389.800 360.986 C 388.993 361.147,389.189 360.989,390.399 360.502 C 391.475 360.069,392.520 359.278,392.999 358.535 C 393.440 357.851,393.869 357.355,393.954 357.433 C 394.039 357.511,393.811 358.028,393.449 358.582 M41.566 393.089 C 42.310 393.590,42.736 394.000,42.513 394.000 C 41.216 394.000,38.753 390.739,38.822 389.113 C 38.834 388.831,39.152 389.405,39.529 390.389 C 39.960 391.514,40.716 392.516,41.566 393.089 M360.813 390.560 C 360.360 391.934,358.376 394.000,357.510 394.000 C 357.275 394.000,357.693 393.589,358.441 393.087 C 359.310 392.503,360.010 391.572,360.382 390.503 C 360.703 389.583,361.035 388.902,361.122 388.989 C 361.209 389.075,361.070 389.783,360.813 390.560 " stroke="none" fill="#f42c24" fill-rule="evenodd"></path><path id="path4" d="M8.966 39.369 C 7.736 39.904,6.000 41.744,6.000 42.513 C 6.000 42.736,6.410 42.310,6.911 41.566 C 7.484 40.716,8.486 39.960,9.611 39.529 C 10.595 39.152,11.130 38.841,10.800 38.837 C 10.470 38.834,9.645 39.073,8.966 39.369 M390.389 39.529 C 391.514 39.960,392.516 40.716,393.089 41.566 C 393.590 42.310,394.000 42.736,394.000 42.513 C 394.000 41.216,390.739 38.753,389.113 38.822 C 388.831 38.834,389.405 39.152,390.389 39.529 M83.818 73.427 C 77.262 74.729,74.870 77.017,73.592 83.211 C 72.827 86.918,72.810 89.439,72.807 199.800 C 72.803 328.610,72.554 319.840,76.318 323.713 C 79.612 327.103,78.115 326.983,118.800 327.122 C 160.707 327.265,159.552 327.363,164.082 323.283 C 168.332 319.454,168.400 318.761,168.400 279.027 L 168.400 245.621 169.580 245.010 C 170.610 244.478,175.033 244.398,204.280 244.388 L 237.800 244.375 239.992 243.487 C 241.787 242.760,242.368 242.273,243.192 240.799 L 244.200 239.000 244.400 204.800 C 244.565 176.610,244.698 170.409,245.158 169.513 L 245.717 168.425 280.358 168.299 C 314.239 168.175,315.070 168.154,318.200 167.320 C 322.009 166.305,324.482 164.038,326.069 160.106 L 327.000 157.800 327.000 120.600 L 327.000 83.400 326.119 80.599 C 324.628 75.862,322.679 74.438,316.262 73.397 C 310.961 72.537,88.155 72.566,83.818 73.427 M316.599 76.605 C 320.943 78.137,322.263 79.430,324.085 83.937 L 325.000 86.200 325.109 119.970 C 325.228 157.011,325.324 155.356,322.834 159.281 C 321.680 161.102,320.206 162.122,316.000 164.012 L 313.800 165.000 279.634 165.200 L 245.467 165.400 244.155 167.970 L 242.842 170.541 242.721 203.970 L 242.600 237.400 241.651 238.927 C 241.129 239.767,239.972 240.937,239.080 241.527 L 237.459 242.600 203.630 242.800 L 169.800 243.000 167.600 244.248 L 165.400 245.495 165.200 279.697 L 165.000 313.899 163.200 317.403 C 161.143 321.406,159.430 323.095,156.151 324.349 C 153.092 325.520,89.659 325.700,85.662 324.549 C 80.491 323.060,78.609 321.562,76.904 317.578 L 75.800 315.000 75.800 200.200 L 75.800 85.400 77.137 82.666 C 78.607 79.658,80.385 78.091,84.112 76.519 L 86.200 75.637 200.000 75.627 L 313.800 75.617 316.599 76.605 M6.000 357.487 C 6.000 358.784,9.261 361.247,10.887 361.178 C 11.169 361.166,10.595 360.848,9.611 360.471 C 8.486 360.040,7.484 359.284,6.911 358.434 C 6.410 357.690,6.000 357.264,6.000 357.487 M392.999 358.535 C 392.520 359.278,391.475 360.069,390.399 360.502 C 389.189 360.989,388.993 361.147,389.800 360.986 C 391.691 360.608,394.653 358.075,393.954 357.433 C 393.869 357.355,393.440 357.851,392.999 358.535 M38.822 389.113 C 38.753 390.739,41.216 394.000,42.513 394.000 C 42.736 394.000,42.310 393.590,41.566 393.089 C 40.716 392.516,39.960 391.514,39.529 390.389 C 39.152 389.405,38.834 388.831,38.822 389.113 M360.382 390.503 C 360.010 391.572,359.310 392.503,358.441 393.087 C 357.693 393.589,357.275 394.000,357.510 394.000 C 358.808 394.000,361.876 389.743,361.122 388.989 C 361.035 388.902,360.703 389.583,360.382 390.503 " stroke="none" fill="#f46464" fill-rule="evenodd"></path></g></svg>