<!DOCTYPE svg PUBLIC "-//W3C//DTD SVG 20010904//EN" "http://www.w3.org/TR/2001/REC-SVG-20010904/DTD/svg10.dtd">
<svg version="1.0" xmlns="http://www.w3.org/2000/svg" width="512px" height="512px" viewBox="0 0 5120 5120" preserveAspectRatio="xMidYMid meet">
<g id="layer101" fill="#16a9dd" stroke="none">
 <path d="M730 5104 c-107 -18 -262 -71 -337 -115 -88 -52 -201 -166 -255 -256 -26 -43 -61 -118 -77 -168 -64 -193 -61 -97 -61 -2005 0 -1908 -3 -1812 61 -2005 42 -126 108 -232 200 -318 93 -89 162 -130 287 -173 195 -67 106 -64 2012 -64 1906 0 1817 -3 2012 64 125 43 194 84 287 173 92 86 158 192 200 318 64 193 61 97 61 2005 0 1908 3 1812 -61 2005 -42 126 -108 232 -200 318 -93 89 -162 130 -287 173 -195 67 -104 64 -2022 63 -1449 -1 -1749 -3 -1820 -15z"/>
 </g>
<g id="layer102" fill="#ffffff" stroke="none">
 <path d="M3170 4049 c-43 -5 -92 -22 -145 -48 -74 -37 -98 -58 -332 -293 -231 -233 -255 -260 -287 -329 -72 -149 -72 -318 -1 -463 19 -39 50 -89 69 -111 l35 -40 -76 -77 -76 -76 -51 40 c-160 128 -381 152 -566 62 -67 -33 -99 -61 -304 -263 -126 -124 -248 -252 -272 -284 -112 -150 -130 -361 -47 -537 31 -66 57 -97 207 -249 94 -95 197 -193 229 -217 152 -113 368 -131 542 -45 74 37 98 58 332 293 231 233 255 260 287 329 72 149 72 318 1 463 -19 39 -50 89 -69 111 l-35 40 76 77 76 76 51 -40 c160 -128 381 -152 566 -62 67 33 99 61 304 263 126 124 248 252 272 284 112 150 130 361 47 537 -32 66 -57 96 -217 258 -100 101 -207 201 -240 223 -99 66 -240 96 -376 78z m178 -373 c15 -8 99 -88 188 -178 142 -144 162 -168 167 -203 14 -87 3 -102 -241 -347 -218 -218 -229 -227 -274 -233 -49 -7 -93 3 -136 31 l-24 15 52 55 c81 85 98 149 61 229 -22 48 -44 69 -94 90 -76 32 -138 14 -221 -65 l-54 -51 -22 31 c-13 18 -25 51 -27 75 -10 83 5 104 231 332 116 117 222 217 236 222 38 15 127 13 158 -3z m-1319 -1276 c18 -5 44 -17 58 -25 l25 -16 -52 -55 c-81 -85 -98 -149 -61 -229 22 -48 44 -69 94 -90 76 -32 138 -14 221 65 l54 51 22 -30 c26 -37 35 -87 26 -137 -6 -30 -42 -73 -206 -244 -109 -113 -217 -219 -239 -235 -48 -33 -127 -38 -176 -12 -17 8 -100 87 -187 174 -174 176 -190 202 -168 286 10 36 44 74 229 260 245 247 270 263 360 237z"/>
 </g>

</svg>