<!DOCTYPE svg PUBLIC "-//W3C//DTD SVG 20010904//EN" "http://www.w3.org/TR/2001/REC-SVG-20010904/DTD/svg10.dtd">
<svg version="1.0" xmlns="http://www.w3.org/2000/svg" width="980px" height="980px" viewBox="0 0 9800 9800" preserveAspectRatio="xMidYMid meet">
<g id="layer101" fill="#1c1c1c" stroke="none">
 <path d="M1580 9756 c-429 -125 -735 -305 -1015 -597 -209 -218 -360 -471 -460 -772 -77 -232 -86 -291 -95 -647 -11 -416 -11 -5264 0 -5675 8 -284 11 -332 33 -431 69 -307 221 -626 414 -864 306 -378 724 -633 1208 -737 l130 -28 3085 0 c3347 0 3138 -3 3367 56 587 151 1073 541 1343 1079 69 139 118 266 170 448 l40 137 0 3178 0 3179 -41 140 c-89 308 -227 592 -387 793 -74 94 -229 252 -324 331 -193 162 -509 319 -832 413 l-139 41 -3176 -1 -3176 0 -145 -43z"/>
 </g>
<g id="layer102" fill="#2b2b2b" stroke="none">
 <path d="M1617 9767 c-56 -16 -104 -33 -105 -38 -2 -5 -8 -7 -13 -4 -14 9 -89 -17 -82 -28 3 -6 2 -7 -4 -4 -12 8 -84 -14 -78 -23 3 -4 -1 -8 -8 -7 -34 1 -48 -4 -41 -15 4 -6 3 -8 -3 -5 -14 9 -154 -53 -147 -64 3 -5 -3 -6 -12 -2 -13 5 -15 3 -9 -7 5 -8 4 -11 -3 -6 -12 7 -45 -11 -179 -97 -57 -36 -90 -63 -86 -71 3 -6 3 -8 -2 -4 -11 10 -47 -11 -40 -23 4 -5 3 -8 -2 -7 -16 5 -54 -23 -47 -35 4 -7 4 -9 -1 -5 -11 10 -76 -42 -68 -55 3 -5 2 -7 -4 -4 -13 8 -156 -137 -146 -148 4 -4 3 -5 -4 -1 -13 7 -60 -49 -55 -66 1 -5 -2 -7 -7 -3 -10 6 -37 -34 -33 -48 1 -5 -2 -6 -7 -2 -12 7 -33 -29 -23 -41 4 -5 3 -6 -2 -2 -11 9 -31 -17 -96 -121 -28 -45 -48 -87 -44 -93 5 -7 2 -8 -6 -3 -10 6 -12 4 -7 -9 4 -9 3 -15 -2 -12 -13 8 -98 -183 -147 -329 -45 -137 -88 -327 -81 -357 3 -10 1 -21 -4 -24 -12 -7 -12 136 -12 -3099 0 -3048 0 -3082 8 -3096 4 -5 8 -35 10 -67 2 -31 8 -58 13 -60 5 -1 7 -14 4 -27 -2 -14 0 -25 5 -25 6 0 8 -12 5 -26 -4 -20 -2 -25 8 -19 9 5 11 4 6 -4 -9 -15 15 -112 26 -105 4 3 5 -1 2 -9 -20 -54 265 -620 308 -609 7 2 10 0 6 -3 -11 -11 11 -47 24 -39 6 4 8 3 4 -4 -16 -26 311 -361 337 -345 6 3 7 1 3 -5 -7 -11 32 -38 47 -34 5 1 6 -2 2 -7 -6 -11 28 -33 39 -26 3 3 4 2 1 -2 -11 -15 218 -158 236 -147 7 4 9 3 6 -3 -8 -12 101 -65 116 -57 7 4 9 3 4 -1 -10 -11 100 -58 115 -49 6 4 8 3 5 -3 -8 -12 129 -57 145 -47 6 4 8 3 5 -3 -7 -11 137 -48 153 -38 5 3 10 1 10 -6 0 -7 10 -9 25 -7 13 3 26 0 28 -6 6 -17 406 -20 3182 -20 2969 0 3142 2 3270 33 149 35 295 83 288 94 -3 6 -1 7 5 3 22 -14 310 122 295 139 -5 4 -2 5 4 1 16 -9 56 17 45 30 -4 5 -3 6 2 2 12 -10 87 33 79 45 -3 6 -1 7 4 4 14 -9 149 90 145 106 -2 7 0 9 4 5 10 -11 65 32 58 44 -4 7 -2 8 4 4 15 -9 205 181 196 196 -4 6 -3 8 3 5 12 -7 136 148 136 169 0 8 3 12 5 9 9 -8 41 48 35 59 -3 6 -2 8 2 3 12 -10 68 81 59 95 -4 6 -3 8 3 5 12 -7 106 181 97 195 -4 6 -3 8 3 5 17 -11 150 381 139 409 -3 7 0 14 7 17 9 3 13 736 15 3211 1 2430 -1 3206 -9 3200 -8 -4 -9 -3 -5 4 9 14 -13 102 -26 102 -5 0 -7 4 -3 10 8 12 -36 161 -46 155 -4 -3 -5 5 -1 17 4 16 2 19 -8 13 -8 -5 -11 -4 -6 3 14 23 -158 397 -177 385 -6 -3 -7 -1 -3 5 9 15 -67 135 -79 125 -4 -5 -5 -3 -2 3 7 13 -40 80 -54 76 -5 -1 -8 1 -7 5 4 15 -23 54 -33 48 -5 -4 -8 -2 -7 3 5 16 -62 93 -74 86 -6 -4 -8 -3 -5 3 6 10 -128 150 -141 146 -4 -2 -7 2 -7 7 0 16 -146 131 -157 123 -7 -3 -8 -1 -4 5 7 11 -6 17 -27 13 -5 -1 -6 2 -3 7 7 12 -173 114 -186 106 -7 -5 -8 -2 -3 6 6 10 4 12 -9 7 -9 -4 -15 -3 -12 2 7 11 -22 23 -36 14 -6 -3 -8 -1 -5 4 8 13 -20 26 -35 16 -6 -3 -8 -2 -5 4 7 12 -141 75 -156 66 -6 -3 -7 -1 -3 5 7 11 -7 16 -41 15 -7 -1 -11 3 -8 7 6 10 -232 83 -245 75 -5 -3 -10 -2 -10 4 0 6 -15 13 -32 16 -18 3 -1468 7 -3221 8 l-3188 2 -102 -28z m4026 -1914 c-40 -2 -106 -2 -145 0 -40 1 -8 3 72 3 80 0 112 -2 73 -3z m-2116 -460 c-3 -10 -5 -4 -5 12 0 17 2 24 5 18 2 -7 2 -21 0 -30z m-1234 -330 c-13 -2 -35 -2 -50 0 -16 2 -5 4 22 4 28 0 40 -2 28 -4z m5554 -1760 c-2 -16 -4 -5 -4 22 0 28 2 40 4 28 2 -13 2 -35 0 -50z m390 -145 c-2 -18 -4 -6 -4 27 0 33 2 48 4 33 2 -15 2 -42 0 -60z m-6092 -678 c3 -5 4 -10 1 -10 -3 0 -8 5 -11 10 -3 6 -4 10 -1 10 3 0 8 -4 11 -10z m482 -166 c-3 -3 -12 -4 -19 -1 -8 3 -5 6 6 6 11 1 17 -2 13 -5z m4960 -1 c-4 -3 -10 -3 -14 0 -3 4 0 7 7 7 7 0 10 -3 7 -7z m-4129 -10 c-10 -2 -26 -2 -35 0 -10 3 -2 5 17 5 19 0 27 -2 18 -5z m3320 0 c-10 -2 -28 -2 -40 0 -13 2 -5 4 17 4 22 1 32 -1 23 -4z m-1291 -1160 c-219 -2 -575 -2 -790 0 -216 1 -36 2 398 2 435 0 611 -1 392 -2z m181 -410 c-120 -2 -316 -2 -435 0 -120 1 -22 2 217 2 239 0 337 -1 218 -2z m-2141 -395 c-2 -13 -4 -5 -4 17 -1 22 1 32 4 23 2 -10 2 -28 0 -40z m366 -385 c-7 -2 -21 -2 -30 0 -10 3 -4 5 12 5 17 0 24 -2 18 -5z"/>
 </g>
<g id="layer103" fill="#4e4e4e" stroke="none">
 <path d="M1686 9787 c-20 -5 -36 -13 -36 -19 0 -5 -4 -6 -10 -3 -13 8 -130 -25 -130 -37 0 -5 -4 -6 -10 -3 -13 8 -91 -16 -84 -26 3 -5 -2 -6 -10 -3 -9 3 -16 2 -16 -4 0 -5 -6 -10 -12 -9 -32 1 -49 -4 -44 -12 3 -5 0 -9 -7 -8 -34 1 -48 -4 -41 -15 4 -6 3 -8 -4 -4 -12 7 -62 -13 -62 -26 0 -5 -5 -6 -10 -3 -14 9 -190 -87 -183 -99 3 -5 1 -6 -4 -3 -12 8 -146 -76 -138 -86 3 -4 2 -5 -1 -2 -12 8 -45 -16 -38 -28 4 -7 4 -9 -1 -5 -11 10 -47 -11 -40 -23 4 -5 3 -8 -2 -7 -15 4 -54 -23 -47 -34 4 -6 3 -8 -2 -5 -6 3 -28 -10 -49 -30 -22 -19 -31 -29 -20 -22 18 13 19 13 6 -3 -7 -10 -16 -16 -20 -13 -10 5 -143 -129 -136 -137 3 -3 -3 -11 -12 -19 -17 -13 -17 -12 -4 6 7 11 -1 5 -17 -14 -17 -19 -29 -38 -26 -42 2 -4 -1 -11 -7 -15 -8 -5 -10 -2 -5 7 4 8 -1 3 -12 -11 -11 -13 -18 -29 -15 -34 3 -5 1 -6 -5 -2 -13 8 -34 -27 -24 -40 4 -5 3 -6 -2 -2 -11 10 -57 -52 -49 -65 3 -6 2 -7 -4 -4 -9 6 -56 -64 -50 -74 1 -2 0 -3 -2 -1 -9 5 -52 -79 -45 -90 4 -6 3 -8 -3 -5 -12 8 -66 -101 -57 -115 5 -7 2 -8 -6 -3 -10 6 -12 4 -7 -8 3 -10 3 -17 -2 -17 -11 0 -32 -50 -26 -61 4 -5 2 -9 -3 -9 -12 0 -34 -59 -26 -71 3 -5 0 -9 -6 -9 -7 0 -10 -7 -6 -15 3 -8 1 -15 -5 -15 -6 0 -9 -7 -5 -15 3 -8 1 -15 -5 -15 -6 0 -9 -6 -6 -14 3 -8 1 -16 -5 -18 -6 -2 -11 -18 -12 -36 0 -18 -5 -32 -10 -32 -4 0 -6 -9 -3 -20 3 -11 1 -20 -5 -20 -6 0 -8 -9 -5 -20 3 -11 1 -20 -5 -20 -6 0 -8 -11 -6 -25 3 -14 1 -25 -4 -25 -5 0 -8 -10 -7 -22 1 -13 -1 -31 -6 -41 -4 -9 -5 -26 -2 -37 3 -11 1 -23 -4 -26 -6 -3 -10 -101 -10 -237 1 -334 1 -5448 1 -5724 -1 -140 3 -234 9 -237 5 -4 7 -22 4 -41 -3 -20 -1 -35 4 -35 6 0 8 -11 5 -25 -2 -14 0 -25 5 -25 6 0 8 -11 5 -25 -2 -14 0 -25 5 -25 6 0 8 -12 5 -26 -3 -15 -1 -25 4 -21 5 3 9 -11 10 -31 0 -20 5 -37 11 -39 6 -2 8 -13 5 -25 -4 -16 -2 -19 8 -13 9 5 11 4 6 -3 -10 -16 25 -123 37 -115 6 3 7 1 3 -5 -8 -13 22 -92 36 -92 5 0 7 -4 3 -9 -7 -13 87 -201 97 -195 5 3 7 2 6 -3 -4 -17 14 -53 24 -47 6 4 8 3 5 -3 -6 -10 55 -116 64 -111 2 2 3 1 2 -1 -6 -11 20 -41 30 -35 7 4 9 4 5 -1 -11 -11 11 -47 24 -39 6 4 8 3 5 -3 -4 -6 2 -22 14 -34 11 -13 17 -18 13 -10 -5 9 -3 12 5 7 6 -4 9 -11 7 -15 -3 -4 9 -23 26 -42 16 -19 24 -25 17 -14 -13 18 -13 19 3 6 10 -7 16 -17 13 -21 -6 -10 165 -181 176 -175 4 3 11 0 15 -6 5 -8 2 -10 -7 -5 -8 4 -1 -4 15 -18 17 -14 33 -23 37 -20 4 2 11 -1 15 -7 5 -8 2 -10 -7 -5 -8 4 -3 -1 11 -12 13 -11 29 -18 34 -15 5 3 6 1 2 -5 -7 -11 26 -35 38 -27 3 3 4 2 1 -2 -7 -9 57 -53 68 -46 6 3 7 2 4 -4 -7 -11 66 -56 77 -48 3 3 4 2 1 -2 -8 -10 74 -55 87 -47 6 4 8 3 5 -3 -8 -12 101 -66 115 -57 7 5 8 2 3 -6 -6 -10 -4 -12 8 -7 10 3 17 3 17 -2 0 -13 79 -43 92 -35 6 4 8 3 5 -3 -8 -12 129 -57 145 -47 7 5 8 3 3 -6 -6 -10 -3 -12 13 -8 12 4 22 2 22 -4 0 -6 9 -8 20 -5 11 3 20 1 20 -5 0 -6 9 -8 20 -5 11 3 20 1 20 -5 0 -6 11 -8 25 -6 14 3 25 1 25 -5 0 -5 11 -7 25 -5 14 3 25 1 25 -5 0 -5 13 -7 30 -5 16 3 30 1 30 -3 0 -10 -84 -10 3125 -10 3162 0 3116 0 3129 8 6 4 23 6 38 4 16 -1 28 2 28 7 0 5 11 7 25 4 15 -2 25 0 25 7 0 7 5 9 11 6 14 -9 149 25 149 37 0 5 4 6 10 3 13 -8 150 36 144 47 -3 4 2 5 10 2 9 -3 16 -1 16 5 0 6 6 8 14 5 7 -3 20 2 29 10 8 8 17 13 20 10 7 -7 57 18 57 28 0 5 5 6 10 3 6 -3 10 -1 10 5 0 6 5 8 12 4 6 -4 17 1 25 12 8 10 15 17 16 14 2 -3 22 4 45 14 23 10 39 23 35 29 -3 6 -1 7 5 3 12 -7 56 17 47 26 -3 2 2 5 10 5 21 0 175 105 169 115 -3 5 -2 7 3 6 15 -4 54 23 47 34 -4 6 -3 8 3 5 5 -3 22 5 39 19 16 14 23 22 15 18 -9 -5 -12 -3 -7 5 4 6 11 9 16 6 12 -7 203 183 195 194 -3 5 0 13 6 17 8 5 10 2 5 -7 -4 -8 4 -1 18 15 14 17 23 33 20 37 -2 4 1 11 7 15 8 5 10 2 5 -7 -18 -34 41 46 110 148 45 67 73 117 68 124 -4 7 -3 9 3 6 10 -6 45 58 43 77 -1 5 3 12 8 15 17 11 53 92 46 104 -4 7 -3 9 1 4 10 -9 37 51 29 64 -3 5 -1 9 4 9 12 0 44 89 36 101 -3 5 0 9 6 9 7 0 10 7 6 15 -3 8 -2 15 3 15 10 0 34 78 26 89 -3 5 0 11 6 13 7 2 12 18 13 36 0 18 5 32 10 32 4 0 6 9 3 20 -3 10 0 21 7 23 8 3 12 810 14 3193 1 1754 -1 3196 -4 3204 -4 8 -6 23 -5 33 1 9 -1 17 -6 17 -4 0 -9 14 -9 31 -1 17 -5 34 -10 38 -5 3 -10 19 -11 36 -1 16 -7 31 -13 33 -5 2 -8 8 -5 13 8 12 -16 90 -26 84 -4 -3 -5 5 -1 17 4 16 2 19 -8 13 -8 -5 -11 -4 -7 2 9 14 -12 73 -25 73 -5 0 -7 4 -4 9 8 13 -19 73 -29 64 -4 -5 -5 -3 -1 4 7 13 -33 103 -47 103 -4 0 -6 4 -2 9 8 13 -60 133 -70 123 -4 -4 -5 -1 -1 6 9 16 -79 150 -173 265 -40 48 -75 87 -78 87 -3 0 1 -8 8 -17 13 -16 12 -17 -3 -4 -10 7 -16 16 -13 20 5 10 -129 143 -137 136 -3 -3 -11 3 -19 12 -13 16 -12 17 4 4 9 -7 17 -11 17 -8 0 13 -163 136 -173 130 -7 -3 -8 -2 -4 2 10 11 -92 77 -106 68 -6 -3 -7 -1 -4 4 6 10 -50 40 -65 35 -5 -1 -8 2 -8 8 0 13 -158 92 -170 85 -6 -4 -10 -2 -10 3 0 10 -50 35 -57 28 -3 -3 -12 2 -20 10 -9 8 -22 13 -30 10 -9 -4 -11 -2 -7 6 5 8 2 9 -9 5 -10 -4 -17 -2 -17 4 0 6 -7 8 -16 5 -8 -3 -13 -2 -10 3 6 9 -63 33 -76 25 -4 -3 -8 -1 -8 4 0 11 -77 35 -89 27 -5 -3 -11 0 -13 5 -2 6 -17 12 -33 13 -17 1 -33 6 -36 11 -4 5 -21 9 -38 10 -17 0 -31 3 -31 6 0 9 -6367 5 -6404 -3z m7659 -747 c3 -5 4 -10 1 -10 -3 0 -8 5 -11 10 -3 6 -4 10 -1 10 3 0 8 -4 11 -10z m40 -50 c3 -5 4 -10 1 -10 -3 0 -8 5 -11 10 -3 6 -4 10 -1 10 3 0 8 -4 11 -10z m-3532 -1137 c-79 -2 -207 -2 -285 0 -79 1 -15 3 142 3 157 0 221 -2 143 -3z m-2326 -535 c-2 -24 -4 -5 -4 42 0 47 2 66 4 43 2 -24 2 -62 0 -85z m-1159 -255 c-26 -2 -71 -2 -100 0 -29 2 -8 3 47 3 55 0 79 -1 53 -3z m5869 -1865 c-1 -46 -3 -9 -3 82 0 91 2 128 3 83 2 -46 2 -120 0 -165z m-390 -15 c-2 -38 -3 -7 -3 67 0 74 1 105 3 68 2 -38 2 -98 0 -135z m-57 -407 c0 -2 -8 -10 -17 -17 -16 -13 -17 -12 -4 4 13 16 21 21 21 13z m-1377 -63 c-721 -2 -1905 -2 -2630 0 -725 1 -135 2 1312 2 1447 0 2040 -1 1318 -2z m1707 -167 c0 -3 -5 -8 -12 -12 -7 -4 -8 -3 -4 4 7 12 16 16 16 8z m-5979 -63 c13 -16 12 -17 -3 -4 -10 7 -18 15 -18 17 0 8 8 3 21 -13z m316 -160 c-4 -3 -10 -3 -14 0 -3 4 0 7 7 7 7 0 10 -3 7 -7z m5310 0 c-4 -3 -10 -3 -14 0 -3 4 0 7 7 7 7 0 10 -3 7 -7z m-5124 -10 c-7 -2 -21 -2 -30 0 -10 3 -4 5 12 5 17 0 24 -2 18 -5z m4940 0 c-7 -2 -21 -2 -30 0 -10 3 -4 5 12 5 17 0 24 -2 18 -5z m-4085 -10 c-15 -2 -42 -2 -60 0 -18 2 -6 4 27 4 33 0 48 -2 33 -4z m3265 0 c-18 -2 -48 -2 -65 0 -18 2 -4 4 32 4 36 0 50 -2 33 -4z m-876 -680 c-1 -59 -3 -13 -3 102 0 116 2 164 3 108 2 -56 2 -151 0 -210z m-2 -683 l0 -205 -435 0 -435 0 433 2 432 3 0 200 0 200 -785 3 -785 2 787 0 788 0 0 -205z m-1568 -167 c-4 -3 -7 0 -7 7 0 7 3 10 7 7 3 -4 3 -10 0 -14z m50 -29 c-3 -3 -12 -4 -19 -1 -8 3 -5 6 6 6 11 1 17 -2 13 -5z m-840 -376 c-2 -29 -3 -6 -3 52 0 58 1 81 3 53 2 -29 2 -77 0 -105z m411 -415 c-15 -2 -42 -2 -60 0 -18 2 -6 4 27 4 33 0 48 -2 33 -4z"/>
 </g>
<g id="layer104" fill="#6e6e6e" stroke="none">
 <path d="M1720 9788 c0 -3 -9 -4 -20 -1 -11 3 -20 0 -20 -6 0 -5 -7 -8 -15 -5 -8 4 -15 2 -15 -4 0 -6 -9 -8 -20 -5 -11 3 -20 1 -20 -5 0 -6 -10 -8 -22 -4 -15 4 -19 2 -13 -7 5 -10 2 -11 -14 -6 -12 4 -21 2 -21 -4 0 -6 -7 -8 -15 -5 -8 4 -15 2 -15 -4 0 -6 -10 -8 -22 -4 -13 3 -19 1 -15 -5 5 -7 0 -9 -13 -6 -11 3 -20 0 -20 -6 0 -6 -7 -8 -17 -4 -11 4 -14 3 -9 -5 5 -8 2 -10 -8 -6 -9 3 -16 1 -16 -5 0 -6 -7 -8 -15 -5 -8 4 -15 1 -15 -5 0 -6 -7 -8 -17 -4 -11 4 -14 3 -9 -5 5 -8 2 -10 -8 -6 -9 3 -16 1 -16 -5 0 -6 -7 -8 -17 -4 -11 4 -14 3 -9 -5 4 -8 2 -10 -7 -6 -8 3 -21 -2 -30 -10 -8 -8 -17 -12 -21 -9 -3 4 -6 1 -6 -6 0 -7 -4 -10 -10 -6 -13 8 -130 -52 -130 -67 0 -6 -3 -9 -6 -5 -9 8 -64 -21 -64 -34 0 -6 -4 -8 -9 -5 -11 7 -163 -98 -259 -178 -118 -99 -247 -235 -342 -360 -13 -18 -13 -19 0 -12 8 4 5 -1 -8 -11 -29 -24 -82 -104 -76 -115 3 -4 1 -8 -4 -8 -15 0 -64 -89 -56 -102 4 -6 3 -8 -3 -5 -12 8 -66 -101 -57 -115 5 -7 2 -8 -6 -3 -10 6 -12 4 -7 -8 4 -10 1 -17 -5 -17 -6 0 -9 -3 -5 -6 3 -4 -1 -13 -9 -21 -8 -9 -13 -22 -10 -29 3 -8 1 -14 -5 -14 -6 0 -8 -7 -5 -16 4 -10 2 -13 -6 -8 -8 5 -9 2 -5 -9 4 -10 2 -17 -4 -17 -6 0 -9 -7 -5 -15 3 -8 1 -15 -5 -15 -6 0 -9 -7 -5 -15 3 -8 1 -15 -5 -15 -6 0 -9 -7 -5 -15 3 -8 1 -15 -5 -15 -6 0 -9 -7 -5 -15 3 -8 1 -15 -5 -15 -6 0 -9 -7 -5 -15 3 -8 0 -15 -5 -15 -6 0 -9 -9 -6 -20 3 -11 1 -20 -5 -20 -6 0 -8 -9 -5 -20 3 -11 1 -20 -5 -20 -6 0 -8 -9 -5 -20 3 -11 1 -20 -5 -20 -6 0 -8 -11 -6 -25 3 -14 1 -25 -4 -25 -5 0 -8 -10 -7 -22 2 -13 0 -29 -5 -36 -4 -7 -5 -24 -2 -37 3 -13 2 -27 -4 -30 -6 -4 -10 -92 -9 -238 1 -259 1 -5359 0 -5724 -1 -132 3 -234 8 -238 6 -3 7 -21 4 -40 -4 -23 -2 -35 6 -35 7 0 9 -9 5 -25 -4 -16 -2 -25 5 -25 7 0 9 -9 5 -25 -4 -16 -2 -25 5 -25 7 0 9 -10 5 -26 -5 -20 -4 -25 5 -20 9 6 10 0 5 -20 -5 -20 -4 -25 6 -19 9 5 10 2 5 -14 -3 -11 -2 -21 3 -21 6 0 8 -10 4 -22 -3 -13 -1 -19 5 -15 7 5 9 0 6 -13 -3 -11 0 -20 6 -20 5 0 8 -7 5 -15 -4 -8 -2 -15 4 -15 5 0 10 -6 9 -12 -1 -33 4 -49 13 -43 6 3 7 -1 4 -9 -3 -9 -1 -16 5 -16 6 0 8 -7 4 -17 -4 -11 -3 -14 5 -9 8 5 10 2 6 -8 -3 -9 -1 -16 6 -16 6 0 8 -4 5 -10 -3 -5 -1 -10 5 -10 6 0 9 -4 5 -9 -7 -12 15 -61 27 -61 5 0 6 -5 3 -10 -3 -6 -1 -10 5 -10 6 0 8 -5 5 -10 -3 -6 -1 -10 5 -10 6 0 8 -4 5 -10 -3 -5 -1 -10 6 -10 7 0 10 -3 6 -6 -8 -9 31 -84 44 -84 6 0 8 -4 4 -10 -3 -5 2 -18 12 -28 10 -10 19 -24 21 -31 10 -44 167 -244 287 -363 93 -94 199 -186 176 -153 -8 11 1 4 20 -16 19 -20 43 -42 53 -50 17 -12 19 -12 12 1 -4 8 1 5 11 -8 24 -29 104 -82 115 -76 4 3 8 1 8 -4 0 -15 89 -64 102 -56 6 4 8 3 5 -3 -8 -12 101 -66 115 -57 7 5 8 2 3 -6 -6 -10 -4 -12 8 -7 10 3 17 2 17 -4 0 -6 5 -7 10 -4 6 3 10 1 10 -5 0 -7 7 -9 16 -6 10 4 13 2 8 -6 -5 -8 -2 -9 9 -5 10 4 17 2 17 -4 0 -6 7 -8 16 -5 10 4 13 2 8 -6 -5 -8 -2 -9 9 -5 10 4 17 2 17 -4 0 -6 7 -9 15 -5 8 3 15 1 15 -5 0 -6 7 -9 15 -5 8 3 15 1 15 -5 0 -6 7 -9 15 -5 8 3 15 0 15 -5 0 -6 9 -9 20 -6 13 3 18 1 13 -6 -4 -6 2 -8 15 -5 12 4 22 2 22 -4 0 -6 9 -8 20 -5 11 3 20 1 20 -5 0 -6 9 -8 20 -5 11 3 20 1 20 -5 0 -6 11 -7 25 -4 16 4 25 2 25 -5 0 -7 9 -9 25 -5 16 4 25 2 25 -5 0 -7 11 -9 30 -5 18 3 30 1 30 -5 0 -7 72 -9 218 -8 119 2 1398 2 2842 1 2850 -2 3185 -1 3195 10 4 4 20 4 36 1 16 -3 29 -1 29 4 0 6 11 8 25 5 14 -2 25 0 25 5 0 6 12 8 26 5 19 -3 25 -1 20 7 -6 8 0 10 18 5 15 -3 26 -2 26 4 0 6 9 8 20 5 11 -3 20 0 20 6 0 5 7 8 15 5 8 -4 15 -2 15 4 0 6 10 8 22 4 15 -4 19 -2 13 7 -5 10 -2 11 14 6 12 -4 21 -2 21 4 0 6 7 8 15 5 8 -4 15 -1 15 5 0 6 7 8 15 5 8 -4 15 -1 15 5 0 6 7 8 17 4 11 -4 14 -3 9 5 -5 8 -2 10 8 6 9 -3 16 -1 16 5 0 6 6 8 14 5 7 -3 20 1 27 9 8 7 19 12 25 10 7 -2 18 3 27 11 8 8 17 12 21 9 3 -4 6 -1 6 6 0 7 5 9 10 6 6 -3 10 -2 10 4 0 6 7 8 15 5 8 -4 17 1 21 10 3 9 10 13 15 10 5 -3 9 0 9 6 0 6 5 8 10 5 6 -3 10 -1 10 4 0 6 3 10 8 9 15 -4 52 14 47 23 -3 5 0 6 8 4 7 -3 25 5 39 17 14 13 31 24 38 26 45 10 259 180 375 297 91 93 202 226 175 211 -8 -5 -3 2 11 15 32 29 79 96 58 84 -7 -5 1 6 19 24 29 29 34 38 31 57 0 3 7 11 17 18 11 8 14 18 9 26 -5 8 -4 11 3 6 10 -6 28 30 24 47 -1 4 3 7 9 7 5 0 7 5 4 10 -3 6 -1 10 5 10 6 0 8 4 5 10 -3 5 -1 10 5 10 6 0 8 4 5 10 -3 5 -1 10 5 10 6 0 8 4 5 10 -3 5 -2 10 3 10 13 0 33 50 26 62 -5 7 -2 8 6 3 8 -5 11 -3 8 6 -3 8 2 20 9 28 8 7 12 18 10 25 -2 6 3 17 10 25 8 7 12 20 9 27 -3 8 -1 14 5 14 6 0 9 7 5 15 -3 8 -1 15 5 15 6 0 9 7 5 15 -3 8 -1 15 5 15 6 0 9 7 5 15 -3 8 -1 15 5 15 6 0 9 7 5 15 -3 8 -1 15 5 15 6 0 9 7 5 15 -3 8 0 15 5 15 6 0 9 9 6 20 -3 11 -1 20 5 20 6 0 8 7 4 15 -3 8 0 15 5 15 6 0 9 9 6 20 -3 11 -1 20 5 20 6 0 8 9 5 20 -3 11 -1 20 5 20 6 0 8 7 4 15 -3 8 -1 15 4 15 13 0 14 6367 1 6374 -5 4 -7 15 -4 26 3 11 1 20 -5 20 -6 0 -8 9 -5 20 3 11 0 20 -6 20 -5 0 -8 7 -5 15 4 8 2 15 -4 15 -6 0 -8 9 -5 20 3 11 0 20 -6 20 -5 0 -8 7 -5 15 4 8 2 15 -4 15 -6 0 -8 10 -4 22 4 16 2 19 -8 13 -8 -5 -11 -4 -6 3 9 14 -4 63 -14 57 -5 -3 -6 5 -2 17 3 14 1 19 -6 14 -8 -5 -10 -2 -6 8 3 9 1 16 -5 16 -6 0 -8 6 -5 14 3 7 -1 20 -9 27 -7 8 -12 19 -10 25 2 7 -2 18 -10 25 -7 8 -12 20 -9 28 3 8 0 11 -7 7 -6 -4 -9 -2 -5 7 3 8 -2 21 -10 30 -8 8 -12 17 -9 21 4 3 1 6 -6 6 -7 0 -9 5 -6 10 3 6 1 10 -5 10 -6 0 -8 5 -5 10 3 6 2 10 -4 10 -6 0 -8 6 -5 14 3 8 -3 23 -14 34 -11 11 -18 23 -14 26 3 3 0 6 -7 6 -7 0 -9 5 -6 10 3 6 1 10 -4 10 -6 0 -10 3 -10 8 3 19 -2 33 -11 27 -6 -3 -7 1 -4 9 4 9 -1 18 -10 22 -9 3 -14 9 -11 14 7 11 -91 150 -133 189 -20 19 -28 28 -17 20 27 -18 -18 34 -125 144 -90 94 -214 205 -191 172 8 -11 -1 -3 -20 17 -43 47 -175 131 -191 122 -7 -4 -8 -3 -4 4 6 11 -6 16 -26 13 -5 0 -8 4 -8 10 0 5 -5 7 -10 4 -5 -3 -10 -1 -10 4 0 14 -158 93 -170 86 -6 -4 -10 -1 -10 6 0 7 -3 10 -6 6 -4 -3 -13 1 -21 9 -9 8 -22 13 -29 10 -8 -3 -14 -1 -14 5 0 6 -4 7 -10 4 -5 -3 -10 -1 -10 5 0 7 -7 9 -16 6 -10 -4 -13 -2 -8 6 5 8 2 9 -9 5 -10 -4 -17 -2 -17 4 0 6 -7 8 -16 5 -10 -4 -13 -2 -8 6 5 8 2 9 -9 5 -10 -4 -17 -2 -17 4 0 6 -7 9 -15 5 -8 -3 -15 -1 -15 5 0 6 -7 9 -15 5 -8 -3 -15 -1 -15 5 0 6 -7 9 -15 5 -8 -3 -15 -1 -15 5 0 6 -7 9 -15 5 -8 -3 -15 0 -15 5 0 6 -9 9 -20 6 -11 -3 -20 -1 -20 5 0 6 -7 8 -15 4 -8 -3 -15 0 -15 5 0 6 -9 9 -20 6 -11 -3 -20 -1 -20 5 0 5 -10 6 -21 3 -16 -5 -19 -4 -14 6 6 9 2 11 -13 7 -12 -4 -22 -3 -22 0 0 4 -1433 7 -3185 7 -1752 0 -3185 -3 -3185 -7z m-860 -382 c0 -3 -5 -8 -12 -12 -7 -4 -8 -3 -4 4 7 12 16 16 16 8z m-40 -30 c0 -3 -5 -8 -12 -12 -7 -4 -8 -3 -4 4 7 12 16 16 16 8z m-50 -40 c0 -3 -5 -8 -12 -12 -7 -4 -8 -3 -4 4 7 12 16 16 16 8z m8340 -51 c13 -14 21 -25 18 -25 -2 0 -15 11 -28 25 -13 14 -21 25 -18 25 2 0 15 -11 28 -25z m-8400 2 c0 -2 -10 -12 -22 -23 l-23 -19 19 23 c18 21 26 27 26 19z m8570 -172 c13 -14 21 -25 18 -25 -2 0 -15 11 -28 25 -13 14 -21 25 -18 25 2 0 15 -11 28 -25z m-8740 2 c0 -2 -10 -12 -22 -23 l-23 -19 19 23 c18 21 26 27 26 19z m-60 -71 c0 -3 -5 -8 -12 -12 -7 -4 -8 -3 -4 4 7 12 16 16 16 8z m-40 -50 c0 -3 -5 -8 -12 -12 -7 -4 -8 -3 -4 4 7 12 16 16 16 8z m8945 -6 c3 -5 4 -10 1 -10 -3 0 -8 5 -11 10 -3 6 -4 10 -1 10 3 0 8 -4 11 -10z m-3117 -1137 c-152 -2 -404 -2 -560 0 -156 1 -31 2 277 2 308 0 435 -1 283 -2z m-2741 -630 c-1 -43 -3 -10 -3 72 0 83 2 118 3 78 2 -40 2 -107 0 -150z m-1024 -160 c-51 -2 -136 -2 -190 0 -54 1 -12 3 92 3 105 0 149 -2 98 -3z m5354 -500 c-2 -21 -4 -6 -4 32 0 39 2 55 4 38 2 -18 2 -50 0 -70z m-2165 -280 c-327 -2 -858 -2 -1180 0 -323 1 -56 2 593 2 649 0 913 -1 587 -2z m2545 -1035 c-1 -84 -3 -16 -3 152 0 168 2 236 3 153 2 -84 2 -222 0 -305z m-390 -210 c-1 -68 -3 -15 -3 117 0 132 2 187 3 123 2 -64 2 -172 0 -240z m-57 -261 c0 -2 -12 -14 -27 -28 l-28 -24 24 28 c23 25 31 32 31 24z m-1377 -64 c-721 -2 -1905 -2 -2630 0 -725 1 -135 2 1312 2 1447 0 2040 -1 1318 -2z m1737 -127 c0 -3 -5 -8 -12 -12 -7 -4 -8 -3 -4 4 7 12 16 16 16 8z m-6055 -46 c3 -5 4 -10 1 -10 -3 0 -8 5 -11 10 -3 6 -4 10 -1 10 3 0 8 -4 11 -10z m6025 6 c0 -2 -8 -10 -17 -17 -16 -13 -17 -12 -4 4 13 16 21 21 21 13z m-5979 -63 c13 -16 12 -17 -3 -4 -10 7 -18 15 -18 17 0 8 8 3 21 -13z m5899 -17 c0 -2 -8 -10 -17 -17 -16 -13 -17 -12 -4 4 13 16 21 21 21 13z m-5633 -133 c-4 -3 -10 -3 -14 0 -3 4 0 7 7 7 7 0 10 -3 7 -7z m60 -9 c-3 -3 -12 -4 -19 -1 -8 3 -5 6 6 6 11 1 17 -2 13 -5z m5300 0 c-3 -3 -12 -4 -19 -1 -8 3 -5 6 6 6 11 1 17 -2 13 -5z m-5049 -11 c-21 -2 -57 -2 -80 0 -24 2 -7 4 37 4 44 0 63 -2 43 -4z m4840 0 c-21 -2 -57 -2 -80 0 -24 2 -7 4 37 4 44 0 63 -2 43 -4z m-4060 -10 c-15 -2 -42 -2 -60 0 -18 2 -6 4 27 4 33 0 48 -2 33 -4z m3265 0 c-18 -2 -48 -2 -65 0 -18 2 -4 4 32 4 36 0 50 -2 33 -4z m-876 -680 c-1 -59 -3 -13 -3 102 0 116 2 164 3 108 2 -56 2 -151 0 -210z m-2 -683 l0 -205 -435 0 -435 0 433 2 432 3 0 200 0 200 -785 3 -785 2 787 0 788 0 0 -205z m-1568 -162 c-3 -8 -6 -5 -6 6 -1 11 2 17 5 13 3 -3 4 -12 1 -19z m81 -35 c-10 -2 -28 -2 -40 0 -13 2 -5 4 17 4 22 1 32 -1 23 -4z m-871 -341 c-1 -53 -3 -7 -3 103 0 110 2 154 3 97 2 -57 2 -147 0 -200z m10 -429 c-4 -3 -7 0 -7 7 0 7 3 10 7 7 3 -4 3 -10 0 -14z m536 -20 c-40 -2 -107 -2 -150 0 -43 1 -10 3 72 3 83 0 118 -2 78 -3z m-3668 -1093 c3 -5 4 -10 1 -10 -3 0 -8 5 -11 10 -3 6 -4 10 -1 10 3 0 8 -4 11 -10z m30 -40 c3 -5 4 -10 1 -10 -3 0 -8 5 -11 10 -3 6 -4 10 -1 10 3 0 8 -4 11 -10z m36 -47 c13 -16 12 -17 -3 -4 -10 7 -18 15 -18 17 0 8 8 3 21 -13z m8889 13 c0 -3 -5 -8 -12 -12 -7 -4 -8 -3 -4 4 7 12 16 16 16 8z m-40 -50 c0 -2 -8 -10 -17 -17 -16 -13 -17 -12 -4 4 13 16 21 21 21 13z m-8795 -26 c10 -11 16 -20 13 -20 -3 0 -13 9 -23 20 -10 11 -16 20 -13 20 3 0 13 -9 23 -20z m8715 -63 c0 -2 -19 -21 -42 -42 l-43 -40 40 43 c36 39 45 47 45 39z m-8515 -137 c10 -11 16 -20 13 -20 -3 0 -13 9 -23 20 -10 11 -16 20 -13 20 3 0 13 -9 23 -20z m8375 6 c0 -2 -8 -10 -17 -17 -16 -13 -17 -12 -4 4 13 16 21 21 21 13z m-60 -50 c0 -3 -5 -8 -12 -12 -7 -4 -8 -3 -4 4 7 12 16 16 16 8z m-40 -30 c0 -3 -5 -8 -12 -12 -7 -4 -8 -3 -4 4 7 12 16 16 16 8z m-8165 -16 c3 -5 4 -10 1 -10 -3 0 -8 5 -11 10 -3 6 -4 10 -1 10 3 0 8 -4 11 -10z"/>
 </g>
<g id="layer105" fill="#7f8082" stroke="none">
 <path d="M1720 9788 c0 -3 -9 -4 -20 -1 -11 3 -20 0 -20 -6 0 -5 -7 -8 -15 -5 -8 4 -15 1 -15 -6 0 -7 -8 -9 -20 -5 -11 3 -20 2 -20 -3 0 -6 -10 -8 -22 -4 -15 4 -19 2 -13 -7 5 -10 2 -11 -14 -6 -12 4 -21 2 -21 -4 0 -6 -7 -8 -15 -5 -8 4 -15 1 -15 -6 0 -7 -8 -9 -21 -5 -16 5 -19 4 -14 -5 5 -9 2 -10 -14 -5 -12 4 -21 2 -21 -4 0 -6 -7 -7 -17 -4 -12 5 -14 3 -8 -7 6 -10 4 -12 -8 -7 -10 3 -17 2 -17 -3 0 -5 -7 -7 -15 -4 -8 4 -15 1 -15 -5 0 -6 -7 -8 -17 -4 -12 5 -14 3 -8 -7 6 -10 4 -12 -8 -7 -10 3 -17 2 -17 -3 0 -5 -7 -6 -17 -3 -11 4 -14 3 -9 -5 5 -8 2 -10 -8 -6 -9 3 -16 1 -16 -6 0 -6 -4 -8 -10 -5 -5 3 -10 1 -10 -5 0 -6 -4 -8 -10 -5 -5 3 -10 1 -10 -5 0 -6 -4 -9 -10 -5 -12 7 -130 -52 -130 -66 0 -5 -4 -7 -10 -4 -5 3 -10 1 -10 -5 0 -6 -4 -9 -10 -5 -5 3 -18 -2 -28 -12 -10 -10 -25 -19 -33 -21 -8 -2 -22 -13 -32 -25 -10 -12 -16 -15 -12 -7 4 8 -3 4 -15 -10 -12 -14 -19 -18 -15 -10 4 8 -3 4 -15 -10 -12 -14 -18 -18 -14 -10 11 21 -65 -35 -105 -79 -19 -20 -28 -27 -21 -16 7 11 -9 -3 -36 -30 -27 -28 -40 -39 -29 -25 11 14 -22 -15 -74 -65 -95 -93 -191 -201 -156 -176 11 8 4 -1 -16 -20 -20 -19 -42 -43 -50 -53 -12 -17 -12 -19 1 -12 8 5 3 -2 -11 -15 -30 -27 -66 -78 -71 -100 -2 -8 -8 -18 -15 -24 -7 -5 -13 -16 -15 -24 -2 -8 -11 -23 -21 -33 -10 -11 -16 -26 -13 -34 3 -9 1 -12 -4 -9 -9 6 -14 -8 -11 -27 0 -5 -4 -8 -10 -8 -5 0 -7 -4 -4 -10 3 -5 1 -10 -6 -10 -7 0 -10 -3 -6 -6 3 -4 -1 -13 -9 -21 -8 -9 -13 -22 -10 -30 4 -9 2 -11 -6 -7 -8 5 -9 2 -5 -9 3 -10 2 -17 -4 -17 -6 0 -7 -4 -4 -10 3 -5 2 -10 -4 -10 -6 0 -7 -7 -4 -17 5 -12 3 -14 -7 -8 -10 6 -12 4 -7 -8 3 -10 2 -17 -3 -17 -5 0 -6 -7 -3 -17 5 -12 3 -14 -7 -8 -10 6 -12 4 -7 -8 4 -10 2 -17 -4 -17 -6 0 -9 -7 -5 -15 3 -8 1 -15 -5 -15 -6 0 -9 -7 -5 -15 3 -8 1 -15 -5 -15 -6 0 -9 -7 -5 -15 3 -8 1 -15 -5 -15 -6 0 -9 -7 -5 -15 3 -8 1 -15 -5 -15 -6 0 -9 -7 -5 -15 3 -8 1 -15 -5 -15 -6 0 -8 -9 -4 -20 4 -12 2 -20 -5 -20 -7 0 -9 -8 -5 -20 4 -12 2 -20 -5 -20 -7 0 -9 -8 -5 -20 4 -12 2 -20 -5 -20 -8 0 -10 -9 -6 -25 4 -16 2 -25 -5 -25 -7 0 -9 -9 -5 -24 3 -14 1 -28 -5 -31 -6 -4 -8 -18 -5 -32 4 -13 3 -29 -1 -36 -11 -16 -11 -79 -11 -3102 0 -3033 0 -3091 11 -3101 4 -4 4 -23 1 -41 -4 -21 -2 -33 5 -33 7 0 9 -9 5 -25 -4 -16 -2 -25 5 -25 7 0 9 -9 5 -25 -4 -16 -2 -25 5 -25 7 0 9 -10 5 -26 -5 -20 -4 -25 5 -20 9 6 10 0 5 -20 -5 -20 -4 -25 6 -19 9 5 10 2 5 -14 -3 -11 -2 -21 3 -21 6 0 8 -10 4 -22 -4 -15 -2 -19 7 -13 10 5 11 2 6 -14 -4 -12 -2 -21 4 -21 6 0 8 -7 5 -15 -4 -8 -1 -15 5 -15 6 0 8 -7 5 -15 -4 -8 -1 -15 5 -15 6 0 8 -7 4 -17 -4 -11 -3 -14 5 -9 8 5 10 2 6 -8 -3 -9 -1 -16 5 -16 6 0 8 -7 4 -17 -5 -12 -3 -14 7 -8 10 6 12 4 7 -8 -3 -10 -2 -17 4 -17 6 0 7 -4 4 -10 -3 -5 -2 -10 4 -10 6 0 8 -7 5 -15 -4 -8 -1 -15 6 -15 6 0 8 -5 5 -10 -3 -6 -1 -10 5 -10 6 0 8 -4 5 -10 -3 -5 -1 -10 5 -10 6 0 8 -5 5 -10 -3 -6 -1 -10 5 -10 6 0 8 -5 5 -10 -3 -6 -1 -10 5 -10 6 0 8 -4 5 -10 -3 -5 -1 -10 5 -10 6 0 8 -4 5 -10 -3 -5 -1 -10 5 -10 6 0 8 -4 5 -10 -3 -5 -1 -10 5 -10 6 0 9 -4 5 -10 -3 -5 3 -18 15 -30 11 -11 17 -20 13 -20 -4 0 2 -7 13 -16 10 -8 12 -13 4 -9 -13 6 -13 5 0 -7 8 -7 16 -20 18 -28 2 -8 13 -23 25 -33 12 -10 16 -15 8 -11 -26 14 73 -120 134 -181 33 -33 47 -49 30 -35 -16 14 26 -31 95 -100 138 -137 193 -188 171 -155 -8 11 1 4 20 -16 42 -45 77 -72 64 -49 -5 8 7 -1 26 -20 41 -40 106 -81 95 -59 -4 8 1 4 11 -8 10 -12 24 -23 32 -25 8 -2 23 -11 33 -21 11 -10 26 -16 34 -13 9 3 12 1 9 -4 -6 -9 8 -14 28 -11 4 0 7 -4 7 -10 0 -5 4 -7 10 -4 6 3 10 2 10 -3 0 -13 50 -33 62 -26 7 5 8 2 3 -6 -6 -10 -4 -12 8 -7 10 3 17 2 17 -4 0 -6 5 -7 10 -4 6 3 10 2 10 -4 0 -6 7 -7 17 -4 12 5 14 3 8 -7 -6 -10 -4 -12 8 -7 10 4 17 2 17 -4 0 -6 7 -8 16 -5 10 4 13 2 8 -6 -5 -8 -2 -9 9 -5 10 4 17 2 17 -4 0 -6 7 -9 15 -5 8 3 15 1 15 -5 0 -6 7 -9 15 -5 8 3 15 1 15 -5 0 -6 7 -9 15 -5 8 3 15 1 15 -5 0 -6 9 -8 21 -4 16 5 19 4 14 -6 -6 -9 -2 -11 13 -7 12 4 22 2 22 -4 0 -5 9 -6 20 -3 12 4 20 2 20 -5 0 -7 8 -9 20 -5 12 4 20 2 20 -5 0 -8 9 -10 25 -6 16 4 25 2 25 -5 0 -7 9 -9 25 -5 16 4 25 2 25 -5 0 -7 11 -9 30 -5 17 3 30 1 30 -4 0 -5 92 -8 218 -7 119 1 1396 1 2837 0 2871 -2 3190 -1 3201 9 3 4 19 4 35 1 19 -3 29 -1 29 6 0 7 9 9 25 5 16 -4 25 -2 25 5 0 7 10 9 26 5 20 -5 25 -4 20 5 -6 8 0 10 18 5 15 -3 26 -2 26 4 0 6 9 8 20 5 11 -3 20 0 20 6 0 5 7 8 15 5 8 -4 15 -1 15 6 0 7 8 9 21 5 16 -5 19 -4 14 5 -5 9 -2 10 14 5 12 -4 21 -2 21 4 0 6 7 8 15 5 8 -4 15 -1 15 5 0 6 7 8 15 5 8 -4 15 -1 15 5 0 6 7 8 17 4 12 -5 14 -3 8 7 -6 10 -4 12 8 7 10 -3 17 -2 17 3 0 5 7 7 15 4 8 -4 15 -1 15 6 0 6 5 8 10 5 6 -3 10 -2 10 4 0 6 7 8 15 5 8 -4 15 -1 15 6 0 6 5 8 10 5 6 -3 10 -1 10 5 0 6 5 8 10 5 6 -3 10 -1 10 5 0 6 5 8 10 5 6 -3 10 -2 10 4 0 6 7 8 15 5 8 -4 17 1 21 10 3 9 10 13 15 10 5 -3 9 0 9 6 0 6 5 8 10 5 6 -3 10 -1 10 5 0 6 5 8 10 5 6 -3 10 -1 10 4 0 6 3 10 8 10 20 -3 32 2 26 13 -5 7 -3 8 6 3 8 -5 20 1 32 16 11 13 17 17 13 9 -4 -8 1 -6 9 4 9 11 16 16 16 11 0 -5 7 0 16 11 8 10 13 12 9 4 -4 -8 3 -4 15 10 12 14 19 18 15 10 -4 -8 3 -4 15 10 12 14 18 18 14 10 -7 -13 -5 -13 12 -1 10 8 30 26 44 41 14 14 21 19 15 10 -13 -21 30 14 75 60 19 20 29 27 21 15 -8 -11 26 21 75 71 49 49 71 69 49 44 -22 -25 -12 -17 23 18 73 76 154 171 132 157 -9 -5 -2 3 15 18 16 16 23 26 15 22 -8 -4 -3 3 11 16 14 13 32 33 40 43 12 17 12 19 -1 12 -8 -4 -4 2 10 14 14 12 18 19 10 15 -8 -4 -4 3 10 15 14 12 18 18 10 14 -8 -4 -2 5 13 19 15 15 26 31 23 36 -3 5 1 12 10 15 9 4 14 13 10 22 -3 8 -2 12 4 9 9 -6 14 8 11 28 0 4 4 7 10 7 5 0 7 4 4 10 -3 5 -1 10 5 10 6 0 8 5 5 10 -3 6 -1 10 5 10 6 0 8 4 5 10 -3 5 -1 10 5 10 6 0 8 4 5 10 -3 5 -1 10 5 10 6 0 8 4 5 10 -3 5 -1 10 5 10 6 0 8 5 5 10 -3 6 -1 10 5 10 6 0 8 5 5 10 -3 6 -1 10 5 10 7 0 9 7 6 16 -4 10 -2 13 6 8 8 -5 9 -2 5 9 -3 10 -2 17 4 17 6 0 7 5 4 10 -3 6 -1 10 5 10 7 0 10 7 6 15 -3 8 -1 15 5 15 6 0 7 5 4 10 -3 6 -1 10 5 10 7 0 10 7 6 15 -3 8 -1 15 5 15 6 0 9 7 5 15 -3 8 -1 15 5 15 6 0 9 7 5 15 -3 8 -1 15 5 15 6 0 9 7 5 15 -3 8 -1 15 5 15 6 0 9 7 5 15 -3 8 -1 15 5 15 6 0 8 9 4 21 -5 16 -4 19 5 14 9 -5 10 -2 5 14 -4 13 -2 21 5 21 7 0 10 7 6 15 -3 8 0 15 5 15 6 0 9 9 6 20 -3 11 -1 20 5 20 5 0 6 9 3 20 -4 12 -2 20 5 20 7 0 10 7 6 15 -3 8 -1 15 4 15 14 0 13 6367 0 6375 -6 4 -8 15 -5 26 4 10 2 19 -3 19 -6 0 -8 9 -5 20 3 11 0 20 -6 20 -5 0 -8 7 -5 15 4 8 1 15 -6 15 -7 0 -9 8 -5 20 4 11 2 20 -4 20 -6 0 -8 7 -5 15 4 8 1 15 -6 15 -7 0 -9 8 -5 21 5 16 4 19 -5 14 -9 -5 -10 -2 -5 14 4 12 2 21 -4 21 -6 0 -7 7 -4 17 5 11 3 14 -6 8 -10 -6 -11 -2 -6 15 5 15 4 20 -4 16 -7 -5 -9 -1 -5 8 3 9 1 16 -5 16 -6 0 -8 7 -5 15 4 8 1 15 -6 15 -6 0 -8 5 -5 10 3 6 2 10 -4 10 -6 0 -8 7 -5 15 4 8 1 15 -6 15 -6 0 -8 5 -5 10 3 6 2 10 -4 10 -6 0 -7 7 -4 17 4 11 3 14 -5 9 -8 -4 -10 -2 -6 7 3 8 -2 21 -10 30 -8 8 -12 17 -9 21 4 3 1 6 -6 6 -7 0 -9 5 -6 10 3 6 1 10 -5 10 -6 0 -8 5 -5 10 3 6 2 10 -4 10 -6 0 -8 6 -5 14 3 8 -3 23 -14 34 -11 11 -18 23 -14 26 3 3 0 6 -7 6 -7 0 -9 5 -6 10 3 6 1 10 -4 10 -6 0 -10 3 -10 8 3 20 -2 32 -13 26 -7 -5 -8 -3 -3 6 5 8 2 18 -9 26 -10 7 -17 15 -17 18 3 19 -2 28 -31 57 -18 18 -26 29 -18 24 13 -8 13 -6 1 11 -8 10 -26 30 -41 44 -14 14 -19 21 -10 16 8 -4 -3 9 -25 29 -22 21 -31 32 -20 25 11 -7 -5 12 -36 41 -30 30 -41 43 -25 29 17 -13 -21 28 -84 93 -109 111 -153 150 -99 89 13 -15 0 -3 -30 27 -29 31 -48 47 -41 36 7 -11 -2 -4 -21 16 -19 20 -43 42 -53 50 -17 12 -19 12 -12 -1 4 -8 -2 -4 -14 10 -12 14 -18 18 -14 10 4 -8 -5 -2 -19 13 -15 15 -32 25 -37 22 -6 -3 -10 -2 -10 4 0 6 -10 15 -21 22 -17 9 -20 8 -14 -3 3 -7 0 -5 -8 4 -8 10 -17 15 -20 11 -4 -3 -7 -1 -7 6 0 7 -5 9 -10 6 -5 -3 -10 -1 -10 4 0 14 -158 93 -170 86 -6 -4 -10 -1 -10 5 0 6 -4 8 -10 5 -5 -3 -10 -1 -10 5 0 6 -4 8 -10 5 -5 -3 -10 -1 -10 5 0 7 -7 10 -15 6 -8 -3 -15 -1 -15 5 0 6 -4 7 -10 4 -5 -3 -10 -2 -10 4 0 6 -7 7 -17 4 -12 -5 -14 -3 -8 7 6 10 4 12 -8 7 -10 -4 -17 -2 -17 4 0 6 -7 8 -16 5 -10 -4 -13 -2 -8 6 5 8 2 9 -9 5 -10 -4 -17 -2 -17 4 0 6 -7 9 -15 5 -8 -3 -15 -1 -15 5 0 6 -7 9 -15 5 -8 -3 -15 -1 -15 5 0 6 -7 9 -15 5 -8 -3 -15 -1 -15 5 0 6 -7 9 -15 5 -8 -3 -15 -1 -15 5 0 6 -9 8 -20 4 -12 -4 -20 -2 -20 5 0 7 -7 10 -15 6 -8 -3 -15 -1 -15 5 0 6 -9 8 -20 4 -12 -4 -20 -2 -20 5 0 7 -8 9 -21 5 -16 -5 -19 -4 -14 5 5 9 2 10 -14 5 -11 -3 -21 -3 -21 2 0 4 -1433 8 -3185 8 -1752 0 -3185 -3 -3185 -7z m-860 -382 c0 -3 -5 -8 -12 -12 -7 -4 -8 -3 -4 4 7 12 16 16 16 8z m8125 -16 c3 -5 4 -10 1 -10 -3 0 -8 5 -11 10 -3 6 -4 10 -1 10 3 0 8 -4 11 -10z m-8165 -14 c0 -3 -5 -8 -12 -12 -7 -4 -8 -3 -4 4 7 12 16 16 16 8z m-270 -249 c0 -2 -12 -14 -27 -28 l-28 -24 24 28 c23 25 31 32 31 24z m-110 -131 c0 -3 -5 -8 -12 -12 -7 -4 -8 -3 -4 4 7 12 16 16 16 8z m5923 -1143 c-172 -2 -454 -2 -625 0 -172 1 -32 2 312 2 344 0 484 -1 313 -2z m-2725 -10 c-21 -2 -55 -2 -75 0 -21 2 -4 4 37 4 41 0 58 -2 38 -4z m-111 -680 c-1 -54 -3 -10 -3 97 0 107 2 151 3 98 2 -54 2 -142 0 -195z m-884 -100 c-79 -2 -207 -2 -286 0 -78 1 -14 3 143 3 157 0 221 -2 143 -3z m882 -791 l0 -392 -2 390 -3 390 -580 3 -580 2 582 0 583 0 0 -393z m4330 245 l1 -147 -3 145 -4 145 -592 3 -592 2 595 0 595 0 0 -148z m-2163 -234 c-327 -2 -858 -2 -1180 0 -323 1 -56 2 593 2 649 0 913 -1 587 -2z m2545 -996 c-1 -111 -2 -17 -2 208 0 226 1 316 2 202 2 -115 2 -299 0 -410z m-390 -314 c-1 -81 -3 -17 -3 142 0 160 2 226 3 148 2 -78 2 -208 0 -290z m-7 -157 c0 -3 -5 -8 -12 -12 -7 -4 -8 -3 -4 4 7 12 16 16 16 8z m-50 -39 c0 -2 -15 -16 -32 -33 l-33 -29 29 33 c28 30 36 37 36 29z m-1377 -64 c-721 -2 -1905 -2 -2630 0 -725 1 -135 2 1312 2 1447 0 2040 -1 1318 -2z m1757 -97 c0 -3 -5 -8 -12 -12 -7 -4 -8 -3 -4 4 7 12 16 16 16 8z m-20 -30 c0 -3 -5 -8 -12 -12 -7 -4 -8 -3 -4 4 7 12 16 16 16 8z m-6075 -16 c3 -5 4 -10 1 -10 -3 0 -8 5 -11 10 -3 6 -4 10 -1 10 3 0 8 -4 11 -10z m20 -30 c3 -5 4 -10 1 -10 -3 0 -8 5 -11 10 -3 6 -4 10 -1 10 3 0 8 -4 11 -10z m6025 7 c0 -2 -10 -12 -22 -23 l-23 -19 19 23 c18 21 26 27 26 19z m-5979 -64 c13 -16 12 -17 -3 -4 -10 7 -18 15 -18 17 0 8 8 3 21 -13z m5899 -17 c0 -2 -8 -10 -17 -17 -16 -13 -17 -12 -4 4 13 16 21 21 21 13z m-5845 -26 c3 -5 4 -10 1 -10 -3 0 -8 5 -11 10 -3 6 -4 10 -1 10 3 0 8 -4 11 -10z m5795 -14 c0 -3 -5 -8 -12 -12 -7 -4 -8 -3 -4 4 7 12 16 16 16 8z m-60 -40 c0 -3 -5 -8 -12 -12 -7 -4 -8 -3 -4 4 7 12 16 16 16 8z m-5523 -53 c-4 -3 -10 -3 -14 0 -3 4 0 7 7 7 7 0 10 -3 7 -7z m5410 0 c-4 -3 -10 -3 -14 0 -3 4 0 7 7 7 7 0 10 -3 7 -7z m-5344 -10 c-7 -2 -19 -2 -25 0 -7 3 -2 5 12 5 14 0 19 -2 13 -5z m5290 0 c-7 -2 -19 -2 -25 0 -7 3 -2 5 12 5 14 0 19 -2 13 -5z m-4970 -10 c-34 -2 -93 -2 -130 0 -37 2 -9 3 62 3 72 0 102 -1 68 -3z m4740 0 c-34 -2 -93 -2 -130 0 -37 2 -9 3 62 3 72 0 102 -1 68 -3z m-4008 -1003 l0 -995 -2 992 -3 992 -55 4 -55 4 57 -1 58 -1 0 -995z m3238 993 c-18 -2 -48 -2 -65 0 -18 2 -4 4 32 4 36 0 50 -2 33 -4z m-876 -680 c-1 -59 -3 -13 -3 102 0 116 2 164 3 108 2 -56 2 -151 0 -210z m-2 -683 l0 -205 -435 0 -435 0 433 2 432 3 0 200 0 200 -785 3 -785 2 787 0 788 0 0 -205z m-1568 -162 c-3 -7 -5 -2 -5 12 0 14 2 19 5 13 2 -7 2 -19 0 -25z m111 -35 c-15 -2 -42 -2 -60 0 -18 2 -6 4 27 4 33 0 48 -2 33 -4z m-874 -776 c7 -6 6 -7 -4 -4 -8 2 -16 14 -17 28 -1 19 -1 20 4 4 3 -11 10 -24 17 -28z m689 -14 c-73 -2 -193 -2 -265 0 -73 1 -14 3 132 3 146 0 205 -2 133 -3z m-3838 -1093 c3 -5 4 -10 1 -10 -3 0 -8 5 -11 10 -3 6 -4 10 -1 10 3 0 8 -4 11 -10z m30 -40 c3 -5 4 -10 1 -10 -3 0 -8 5 -11 10 -3 6 -4 10 -1 10 3 0 8 -4 11 -10z m36 -47 c13 -16 12 -17 -3 -4 -10 7 -18 15 -18 17 0 8 8 3 21 -13z m8849 -37 c0 -2 -8 -10 -17 -17 -16 -13 -17 -12 -4 4 13 16 21 21 21 13z m-8595 -226 c10 -11 16 -20 13 -20 -3 0 -13 9 -23 20 -10 11 -16 20 -13 20 3 0 13 -9 23 -20z m8315 -44 c0 -3 -5 -8 -12 -12 -7 -4 -8 -3 -4 4 7 12 16 16 16 8z m-8205 -46 c3 -5 4 -10 1 -10 -3 0 -8 5 -11 10 -3 6 -4 10 -1 10 3 0 8 -4 11 -10z"/>
 <path d="M605 600 c10 -11 20 -20 23 -20 3 0 -3 9 -13 20 -10 11 -20 20 -23 20 -3 0 3 -9 13 -20z"/>
 </g>
<g id="layer106" fill="#909090" stroke="none">
 <path d="M1720 9788 c0 -3 -9 -4 -20 -1 -11 3 -20 0 -20 -6 0 -5 -7 -8 -15 -5 -8 4 -15 1 -15 -6 0 -7 -8 -9 -20 -5 -11 3 -20 2 -20 -3 0 -6 -10 -8 -22 -4 -15 4 -19 2 -13 -7 5 -10 2 -11 -14 -6 -12 4 -21 2 -21 -4 0 -6 -7 -8 -15 -5 -8 4 -15 1 -15 -6 0 -7 -8 -9 -21 -5 -16 5 -19 4 -14 -5 5 -9 2 -10 -14 -5 -12 4 -21 2 -21 -4 0 -6 -7 -7 -17 -4 -12 5 -14 3 -8 -7 6 -10 4 -12 -8 -7 -10 4 -17 2 -17 -4 0 -6 -7 -9 -15 -5 -8 3 -15 1 -15 -4 0 -5 -7 -6 -17 -3 -12 5 -14 3 -8 -7 6 -10 4 -12 -8 -7 -10 3 -17 2 -17 -3 0 -5 -7 -6 -17 -3 -11 4 -14 3 -9 -5 5 -8 2 -10 -8 -6 -9 3 -16 1 -16 -6 0 -6 -4 -8 -10 -5 -5 3 -10 1 -10 -5 0 -6 -4 -8 -10 -5 -5 3 -10 1 -10 -5 0 -6 -4 -9 -10 -5 -12 7 -130 -52 -130 -66 0 -5 -4 -7 -10 -4 -5 3 -10 1 -10 -5 0 -6 -4 -9 -10 -5 -5 3 -18 -2 -28 -12 -10 -10 -25 -19 -33 -21 -8 -2 -22 -13 -32 -25 -10 -12 -16 -15 -12 -7 4 8 -3 4 -15 -10 -12 -14 -19 -18 -15 -10 4 8 -3 4 -15 -10 -12 -14 -18 -18 -14 -10 7 13 5 13 -12 1 -10 -8 -30 -26 -44 -41 -14 -14 -21 -19 -16 -10 4 8 -9 -3 -29 -25 -21 -22 -32 -31 -25 -20 7 11 -9 -3 -36 -30 -27 -28 -40 -39 -29 -25 11 14 -31 -24 -93 -85 -107 -105 -144 -147 -84 -94 16 13 5 2 -22 -25 -28 -27 -42 -43 -31 -36 11 7 2 -4 -20 -25 -22 -20 -33 -33 -25 -29 9 5 4 -2 -10 -15 -14 -13 -18 -20 -10 -16 8 4 4 -3 -10 -16 -14 -13 -21 -22 -15 -19 6 3 1 -4 -11 -15 -30 -28 -64 -82 -44 -70 8 4 2 -4 -13 -18 -15 -15 -25 -32 -22 -37 3 -6 2 -10 -4 -10 -6 0 -18 -14 -27 -31 -11 -23 -12 -29 -2 -24 7 3 5 0 -4 -8 -10 -8 -15 -17 -11 -20 3 -4 1 -7 -6 -7 -7 0 -9 -4 -6 -10 3 -5 1 -10 -5 -10 -6 0 -8 -4 -5 -10 3 -5 1 -10 -5 -10 -6 0 -8 -4 -5 -10 3 -5 2 -10 -4 -10 -6 0 -7 -7 -4 -17 5 -12 3 -14 -7 -8 -10 6 -12 4 -7 -8 3 -10 2 -17 -4 -17 -6 0 -7 -4 -4 -10 3 -5 2 -10 -4 -10 -6 0 -7 -7 -4 -17 5 -12 3 -14 -7 -8 -10 6 -12 4 -7 -8 3 -10 2 -17 -3 -17 -5 0 -6 -7 -3 -17 5 -12 3 -14 -7 -8 -10 6 -12 4 -7 -8 3 -10 2 -17 -3 -17 -5 0 -7 -7 -4 -15 4 -8 1 -15 -5 -15 -6 0 -8 -7 -5 -15 4 -8 1 -15 -5 -15 -6 0 -8 -7 -5 -15 4 -8 1 -15 -5 -15 -6 0 -8 -7 -5 -15 4 -8 1 -15 -6 -15 -7 0 -10 -7 -6 -15 3 -8 1 -15 -5 -15 -6 0 -8 -9 -4 -20 4 -12 2 -20 -5 -20 -7 0 -9 -8 -5 -20 4 -12 2 -20 -5 -20 -7 0 -9 -8 -5 -20 4 -12 2 -20 -5 -20 -8 0 -10 -9 -6 -25 4 -15 2 -25 -5 -25 -7 0 -8 -11 -4 -30 4 -20 3 -30 -5 -30 -8 0 -10 -9 -6 -25 4 -14 3 -31 -1 -38 -10 -16 -11 -39 -10 -3102 0 -3074 0 -3091 10 -3101 4 -4 4 -23 1 -41 -4 -23 -2 -33 6 -33 8 0 10 -9 6 -25 -4 -16 -2 -25 5 -25 7 0 9 -9 5 -25 -4 -15 -2 -25 4 -25 6 0 8 -11 4 -26 -5 -20 -4 -25 5 -20 9 6 10 0 5 -20 -5 -20 -4 -25 6 -19 9 5 10 2 5 -14 -4 -13 -2 -21 5 -21 7 0 9 -8 5 -21 -5 -16 -4 -19 5 -14 9 5 10 2 5 -14 -4 -12 -2 -21 4 -21 6 0 8 -7 5 -15 -4 -8 -1 -15 5 -15 6 0 8 -7 5 -15 -4 -8 -1 -15 5 -15 6 0 8 -7 4 -17 -5 -12 -3 -14 7 -8 10 6 12 4 7 -8 -3 -10 -2 -17 3 -17 5 0 6 -7 3 -17 -5 -12 -3 -14 7 -8 10 6 12 4 7 -8 -3 -10 -2 -17 4 -17 6 0 7 -4 4 -10 -3 -5 -2 -10 4 -10 6 0 7 -7 4 -17 -5 -12 -3 -14 7 -8 10 6 12 4 7 -8 -3 -10 -2 -17 4 -17 6 0 7 -4 4 -10 -3 -5 -1 -10 5 -10 6 0 8 -5 5 -10 -3 -6 -1 -10 5 -10 6 0 8 -5 5 -10 -3 -6 -1 -10 5 -10 6 0 8 -4 5 -10 -3 -5 -1 -10 5 -10 6 0 8 -4 5 -10 -3 -5 -1 -10 5 -10 6 0 8 -4 5 -10 -3 -5 -1 -10 5 -10 6 0 9 -4 5 -10 -3 -5 3 -18 15 -30 11 -11 17 -20 13 -20 -4 0 2 -7 13 -16 10 -8 12 -13 4 -9 -8 4 -6 -1 4 -9 11 -9 16 -16 11 -16 -5 0 0 -7 11 -16 10 -8 12 -13 4 -9 -8 4 -4 -3 10 -15 14 -12 18 -19 10 -15 -8 4 -4 -3 10 -15 14 -12 18 -18 10 -14 -13 7 -13 5 -1 -12 8 -10 26 -30 41 -44 14 -14 19 -21 10 -16 -8 5 1 -6 21 -25 19 -19 28 -29 19 -24 -9 6 5 -10 30 -35 25 -25 36 -38 25 -30 -12 8 10 -16 49 -54 39 -38 60 -61 46 -50 l-25 19 19 -22 c10 -12 22 -21 26 -20 5 1 30 -21 57 -49 26 -28 41 -41 33 -29 -8 12 5 1 29 -24 24 -26 38 -37 31 -26 -7 11 2 4 21 -16 42 -45 77 -72 64 -49 -5 8 7 -1 26 -20 41 -40 106 -81 95 -59 -4 8 1 4 11 -8 10 -12 24 -23 32 -25 8 -2 23 -11 33 -21 11 -10 26 -16 34 -13 9 3 12 1 9 -4 -6 -9 8 -14 28 -11 4 0 7 -4 7 -10 0 -5 4 -7 10 -4 6 3 10 1 10 -5 0 -6 5 -8 10 -5 5 3 10 1 10 -5 0 -6 4 -8 10 -5 5 3 10 2 10 -4 0 -6 7 -7 17 -4 12 5 14 3 8 -7 -6 -10 -4 -12 8 -7 10 3 17 2 17 -4 0 -6 5 -7 10 -4 6 3 10 2 10 -4 0 -6 7 -7 17 -4 12 5 14 3 8 -7 -6 -10 -4 -12 8 -7 10 4 17 2 17 -4 0 -6 7 -8 16 -5 10 4 13 2 8 -6 -5 -8 -2 -9 9 -5 10 4 17 2 17 -4 0 -6 7 -9 15 -5 8 3 15 1 15 -5 0 -6 7 -9 15 -5 8 3 15 1 15 -5 0 -6 7 -9 15 -5 8 3 15 1 15 -5 0 -6 9 -8 21 -4 16 5 19 4 14 -5 -5 -9 -2 -10 14 -5 13 4 21 2 21 -5 0 -7 8 -9 20 -5 12 4 20 2 20 -5 0 -7 8 -9 20 -5 12 4 20 2 20 -5 0 -8 9 -10 25 -6 15 4 25 2 25 -4 0 -6 10 -8 25 -4 16 4 25 2 25 -6 0 -8 10 -9 30 -5 17 4 30 2 30 -3 0 -6 98 -9 253 -8 333 1 5420 1 5745 0 147 -1 252 2 252 8 0 5 16 6 35 2 23 -4 35 -2 35 5 0 7 9 9 25 5 16 -4 25 -2 25 5 0 7 10 9 26 5 20 -5 25 -4 20 5 -6 8 0 10 18 5 15 -3 26 -2 26 4 0 6 10 8 22 4 15 -4 19 -2 13 7 -5 10 -2 11 14 6 13 -4 21 -2 21 5 0 7 8 9 21 5 16 -5 19 -4 14 5 -5 9 -2 10 14 5 12 -4 21 -2 21 4 0 6 7 8 15 5 8 -4 15 -1 15 5 0 6 7 8 15 5 8 -4 15 -1 15 5 0 6 7 8 17 4 12 -5 14 -3 8 7 -6 10 -4 12 8 7 10 -3 17 -2 17 3 0 5 7 7 15 4 8 -4 15 -1 15 6 0 6 5 8 10 5 6 -3 10 -2 10 4 0 6 7 8 15 5 8 -4 15 -1 15 6 0 6 5 8 10 5 6 -3 10 -1 10 5 0 6 5 8 10 5 6 -3 10 -1 10 5 0 6 5 8 10 5 6 -3 10 -2 10 4 0 6 7 8 15 5 8 -4 17 1 21 10 3 9 10 13 15 10 5 -3 9 0 9 6 0 6 5 8 10 5 6 -3 10 -1 10 5 0 6 5 8 10 5 6 -3 10 -1 10 6 0 7 3 9 7 6 3 -4 12 1 20 11 8 9 12 11 8 5 -11 -22 5 -14 32 14 15 16 23 21 19 13 -4 -8 0 -6 8 4 9 11 16 16 16 11 0 -5 7 0 16 11 8 10 13 12 9 4 -4 -8 3 -4 15 10 12 14 19 18 15 10 -4 -8 3 -4 15 10 12 14 19 18 15 10 -4 -8 3 -4 15 10 12 14 19 18 15 10 -4 -8 6 -1 22 15 15 17 26 26 23 20 -3 -6 6 1 20 15 14 14 21 19 16 10 -5 -8 9 3 30 25 22 23 35 34 29 25 -5 -9 17 13 51 48 33 36 90 93 126 126 35 34 57 57 48 51 -9 -5 2 7 25 29 22 21 33 35 25 30 -9 -5 -2 4 15 19 16 16 23 26 15 22 -8 -4 -1 5 15 20 17 14 23 23 15 20 -8 -4 -4 3 10 15 14 12 18 19 10 15 -8 -4 -4 3 10 15 14 12 18 19 10 15 -8 -4 -4 3 10 15 14 12 18 18 10 14 -8 -4 -2 5 13 19 15 15 25 32 22 37 -3 6 -2 10 4 10 6 0 15 10 22 21 9 17 8 20 -3 14 -7 -3 -5 0 4 8 10 8 15 17 11 20 -3 4 -1 7 6 7 7 0 9 4 6 10 -3 5 -1 10 5 10 6 0 8 5 5 10 -3 6 -1 10 5 10 6 0 8 4 5 10 -3 5 -1 10 5 10 6 0 8 4 5 10 -3 5 -1 10 5 10 6 0 8 4 5 10 -3 5 -1 10 5 10 6 0 8 5 5 10 -3 6 -1 10 5 10 6 0 8 5 5 10 -3 6 -2 10 4 10 6 0 7 7 4 17 -5 12 -3 14 7 8 10 -6 12 -4 7 8 -3 10 -2 17 4 17 6 0 7 5 4 10 -3 6 -1 10 5 10 7 0 10 7 6 15 -3 8 -1 15 5 15 6 0 7 5 4 10 -3 6 -1 10 5 10 7 0 10 7 6 15 -3 8 -1 15 5 15 6 0 9 7 5 15 -3 8 -1 15 4 15 5 0 7 7 4 15 -4 8 -1 15 5 15 6 0 8 7 5 15 -4 8 -1 15 6 15 7 0 10 7 6 15 -3 8 -1 15 5 15 6 0 8 9 4 21 -5 16 -4 19 5 14 9 -5 10 -2 5 14 -4 13 -2 21 5 21 7 0 10 7 6 15 -3 8 -1 15 5 15 6 0 8 9 4 20 -4 12 -2 20 5 20 7 0 9 8 5 20 -4 12 -2 20 5 20 7 0 10 7 6 15 -3 8 -1 15 4 15 14 0 13 6367 0 6375 -6 4 -8 15 -5 26 4 11 2 19 -5 19 -7 0 -9 8 -5 20 4 11 2 20 -4 20 -6 0 -8 7 -5 15 4 8 1 15 -6 15 -7 0 -9 8 -5 20 4 11 2 20 -4 20 -6 0 -8 7 -5 15 4 8 1 15 -6 15 -7 0 -9 8 -5 21 5 16 4 19 -5 14 -9 -5 -10 -2 -5 14 4 12 2 21 -4 21 -6 0 -7 7 -4 17 5 11 3 14 -6 8 -10 -6 -11 -2 -6 15 5 17 4 21 -6 15 -9 -6 -11 -3 -6 8 3 10 2 17 -3 17 -5 0 -7 7 -4 15 4 8 1 15 -6 15 -6 0 -8 5 -5 10 3 6 2 10 -4 10 -6 0 -8 7 -5 15 4 8 1 15 -6 15 -6 0 -8 5 -5 10 3 6 1 10 -5 10 -6 0 -9 4 -6 9 9 14 -5 42 -17 34 -6 -4 -8 0 -4 10 3 10 2 17 -4 17 -6 0 -7 5 -4 10 3 6 1 10 -5 10 -6 0 -8 5 -5 10 3 6 1 10 -5 10 -6 0 -8 5 -5 10 3 6 2 10 -4 10 -6 0 -8 6 -5 14 3 8 -3 23 -14 34 -11 11 -18 23 -14 26 3 3 0 6 -7 6 -7 0 -9 5 -6 10 3 6 1 10 -6 10 -7 0 -9 3 -6 7 4 3 -1 12 -11 20 -9 8 -11 11 -4 8 11 -6 12 -3 3 14 -7 11 -16 21 -22 21 -6 0 -7 4 -4 10 3 5 -7 22 -22 37 -15 14 -21 23 -13 19 8 -4 4 2 -10 14 -14 12 -18 19 -10 15 8 -4 4 3 -10 15 -14 12 -18 19 -10 15 8 -4 1 6 -15 22 -17 15 -24 24 -15 19 8 -4 -3 9 -25 29 -22 21 -31 32 -20 25 11 -7 -5 12 -36 41 -30 30 -41 43 -25 29 17 -13 -21 28 -84 93 -109 111 -152 150 -99 89 13 -16 0 -3 -30 27 -30 31 -48 47 -41 36 7 -11 -4 -2 -25 20 -20 22 -33 33 -29 25 5 -9 -2 -4 -15 10 -13 14 -20 18 -16 10 4 -8 -3 -4 -15 10 -12 14 -18 18 -14 10 4 -8 -4 -3 -19 13 -27 28 -43 36 -31 15 4 -7 -4 -1 -19 15 -27 28 -43 36 -32 15 4 -7 0 -5 -8 4 -8 10 -17 15 -20 11 -4 -3 -7 -1 -7 6 0 7 -5 9 -10 6 -5 -3 -10 -1 -10 4 0 14 -158 93 -170 86 -6 -4 -10 -1 -10 5 0 6 -4 8 -10 5 -5 -3 -10 -1 -10 5 0 6 -4 8 -10 5 -5 -3 -10 -1 -10 5 0 7 -7 10 -15 6 -8 -3 -15 -1 -15 5 0 6 -4 7 -10 4 -5 -3 -10 -2 -10 4 0 6 -7 7 -17 4 -12 -5 -14 -3 -8 7 6 10 4 12 -8 7 -10 -3 -17 -2 -17 3 0 5 -7 6 -17 3 -12 -5 -14 -3 -8 7 6 10 4 12 -8 7 -10 -4 -17 -2 -17 4 0 6 -7 9 -15 5 -8 -3 -15 -1 -15 5 0 6 -7 9 -15 5 -8 -3 -15 -1 -15 5 0 6 -7 9 -15 5 -8 -3 -15 -1 -15 5 0 6 -7 9 -15 5 -8 -3 -15 -1 -15 5 0 6 -9 8 -20 4 -12 -4 -20 -2 -20 5 0 7 -7 10 -15 6 -8 -3 -15 -1 -15 5 0 6 -9 8 -20 4 -12 -4 -20 -2 -20 5 0 7 -8 9 -21 5 -16 -5 -19 -4 -14 5 5 9 2 10 -14 5 -11 -3 -21 -3 -21 2 0 4 -1433 8 -3185 8 -1752 0 -3185 -3 -3185 -7z m-860 -382 c0 -3 -5 -8 -12 -12 -7 -4 -8 -3 -4 4 7 12 16 16 16 8z m5432 -1553 c-211 -2 -553 -2 -760 0 -207 1 -35 2 383 2 418 0 588 -1 377 -2z m-2677 -10 c-39 -2 -73 -9 -77 -16 -5 -8 -8 -6 -8 6 0 15 10 17 78 15 l77 -2 -70 -3z m-88 -680 c-1 -54 -3 -10 -3 97 0 107 2 151 3 98 2 -54 2 -142 0 -195z m-894 -100 c-89 -2 -237 -2 -330 0 -92 1 -19 3 162 3 182 0 257 -2 168 -3z m892 -791 l0 -392 -2 390 -3 390 -580 3 -580 2 582 0 583 0 0 -393z m4330 190 l1 -202 -3 200 -3 200 -593 3 -592 2 595 0 595 0 0 -203z m-2163 -179 c-327 -2 -858 -2 -1180 0 -323 1 -56 2 593 2 649 0 913 -1 587 -2z m2545 -955 c-1 -134 -2 -27 -2 237 0 264 1 373 2 243 2 -130 2 -346 0 -480z m-404 -517 c-12 -11 -14 -11 -5 -2 9 11 13 91 14 305 l3 291 2 -289 c3 -266 2 -291 -14 -305z m-43 -34 c0 -2 -15 -16 -32 -33 l-33 -29 29 33 c28 30 36 37 36 29z m-1382 -64 c-725 -2 -1911 -2 -2635 0 -725 1 -132 2 1317 2 1449 0 2042 -1 1318 -2z m1812 -7 c0 -3 -5 -8 -12 -12 -7 -4 -8 -3 -4 4 7 12 16 16 16 8z m-50 -90 c0 -3 -5 -8 -12 -12 -7 -4 -8 -3 -4 4 7 12 16 16 16 8z m-20 -30 c0 -3 -5 -8 -12 -12 -7 -4 -8 -3 -4 4 7 12 16 16 16 8z m-6075 -16 c3 -5 4 -10 1 -10 -3 0 -8 5 -11 10 -3 6 -4 10 -1 10 3 0 8 -4 11 -10z m20 -30 c3 -5 4 -10 1 -10 -3 0 -8 5 -11 10 -3 6 -4 10 -1 10 3 0 8 -4 11 -10z m6025 7 c0 -1 -26 -27 -57 -57 l-58 -55 55 58 c50 53 60 62 60 54z m-5979 -64 c13 -16 12 -17 -3 -4 -10 7 -18 15 -18 17 0 8 8 3 21 -13z m54 -43 c3 -5 4 -10 1 -10 -3 0 -8 5 -11 10 -3 6 -4 10 -1 10 3 0 8 -4 11 -10z m30 -20 c3 -5 4 -10 1 -10 -3 0 -8 5 -11 10 -3 6 -4 10 -1 10 3 0 8 -4 11 -10z m5765 6 c0 -3 -5 -8 -12 -12 -7 -4 -8 -3 -4 4 7 12 16 16 16 8z m-60 -40 c0 -3 -5 -8 -12 -12 -7 -4 -8 -3 -4 4 7 12 16 16 16 8z m-5553 -43 c-4 -3 -10 -3 -14 0 -3 4 0 7 7 7 7 0 10 -3 7 -7z m30 -10 c-4 -3 -10 -3 -14 0 -3 4 0 7 7 7 7 0 10 -3 7 -7z m5410 0 c-4 -3 -10 -3 -14 0 -3 4 0 7 7 7 7 0 10 -3 7 -7z m-5344 -10 c-7 -2 -19 -2 -25 0 -7 3 -2 5 12 5 14 0 19 -2 13 -5z m5290 0 c-7 -2 -21 -2 -30 0 -10 3 -4 5 12 5 17 0 24 -2 18 -5z m-4971 -10 c-40 -2 -103 -2 -140 0 -37 2 -4 3 73 3 77 0 107 -2 67 -3z m4750 0 c-40 -2 -103 -2 -140 0 -37 2 -4 3 73 3 77 0 107 -2 67 -3z m-4017 -1008 l0 -1000 -2 997 -3 997 -88 4 -87 3 90 0 90 -1 0 -1000z m3283 998 c-27 -2 -69 -2 -95 0 -27 2 -5 3 47 3 52 0 74 -1 48 -3z m-921 -680 c-1 -59 -3 -13 -3 102 0 116 2 164 3 108 2 -56 2 -151 0 -210z m-2 -683 l0 -205 -535 0 -535 0 533 2 532 3 0 200 0 200 -785 3 -785 2 787 0 788 0 0 -205z m-1568 -157 c-3 -10 -5 -4 -5 12 0 17 2 24 5 18 2 -7 2 -21 0 -30z m116 -40 c-18 -2 -48 -2 -65 0 -18 2 -4 4 32 4 36 0 50 -2 33 -4z m-880 -776 c8 -6 7 -7 -3 -4 -9 2 -16 17 -16 38 -2 31 -1 31 3 4 3 -16 10 -34 16 -38z m685 -14 c-82 -2 -214 -2 -295 0 -82 1 -15 3 147 3 162 0 229 -2 148 -3z m-3833 -1093 c3 -5 4 -10 1 -10 -3 0 -8 5 -11 10 -3 6 -4 10 -1 10 3 0 8 -4 11 -10z m430 -440 c3 -5 4 -10 1 -10 -3 0 -8 5 -11 10 -3 6 -4 10 -1 10 3 0 8 -4 11 -10z m70 -50 c3 -5 4 -10 1 -10 -3 0 -8 5 -11 10 -3 6 -4 10 -1 10 3 0 8 -4 11 -10z"/>
 <path d="M9205 608 l-50 -53 53 50 c48 46 57 55 49 55 -1 0 -25 -24 -52 -52z"/>
 </g>
<g id="layer107" fill="#a7a9ac" stroke="none">
 <path d="M1720 9787 c0 -5 -10 -5 -21 -2 -16 5 -19 4 -14 -6 6 -9 2 -11 -13 -7 -12 4 -22 2 -22 -4 0 -5 -9 -6 -20 -3 -12 4 -20 2 -20 -5 0 -7 -8 -9 -21 -5 -16 5 -19 4 -14 -5 5 -9 2 -10 -14 -5 -13 4 -21 2 -21 -5 0 -7 -7 -10 -15 -6 -8 3 -15 1 -15 -5 0 -6 -9 -8 -21 -4 -16 5 -19 4 -14 -5 5 -9 1 -10 -15 -5 -16 5 -20 4 -15 -5 5 -9 1 -10 -15 -5 -17 5 -21 4 -15 -6 6 -9 3 -11 -8 -6 -10 4 -17 2 -17 -4 0 -6 -7 -9 -15 -5 -8 3 -15 1 -15 -4 0 -5 -7 -6 -17 -3 -12 5 -14 3 -8 -7 6 -10 4 -12 -8 -7 -10 3 -17 2 -17 -3 0 -5 -7 -6 -17 -3 -12 5 -14 3 -8 -7 6 -10 4 -12 -8 -7 -10 3 -17 2 -17 -4 0 -6 -4 -7 -10 -4 -5 3 -10 1 -10 -5 0 -6 -4 -8 -10 -5 -5 3 -10 2 -10 -4 0 -6 -7 -7 -17 -4 -10 4 -14 2 -10 -4 8 -13 -20 -26 -35 -16 -6 3 -8 2 -5 -4 4 -6 -5 -15 -19 -22 -18 -8 -23 -8 -18 0 4 8 0 8 -15 0 -11 -7 -21 -16 -21 -22 0 -6 -4 -7 -10 -4 -5 3 -10 1 -10 -6 0 -7 -3 -9 -7 -6 -3 4 -12 -1 -20 -11 -10 -11 -12 -12 -8 -2 4 8 -1 6 -9 -4 -9 -11 -16 -16 -16 -11 0 5 -7 0 -16 -11 -8 -10 -13 -12 -9 -4 4 8 -3 4 -15 -10 -12 -14 -19 -18 -15 -10 4 8 -3 4 -15 -10 -12 -14 -19 -18 -15 -10 4 8 -3 4 -15 -10 -12 -14 -19 -18 -15 -10 4 8 -3 4 -16 -10 -13 -14 -22 -21 -19 -15 3 6 -6 -1 -20 -15 -14 -14 -21 -19 -16 -10 5 8 -8 -3 -29 -25 -20 -22 -32 -31 -25 -20 7 11 -9 -3 -36 -31 -27 -28 -42 -41 -34 -29 8 12 -8 -3 -37 -33 -28 -29 -76 -77 -105 -105 -30 -29 -43 -43 -28 -32 14 11 3 -2 -24 -29 -28 -27 -42 -43 -31 -36 11 7 2 -5 -20 -25 -22 -21 -33 -34 -25 -29 9 5 4 -2 -10 -15 -14 -13 -18 -20 -10 -16 8 4 4 -3 -10 -16 -14 -13 -21 -22 -15 -19 6 3 -1 -6 -15 -19 -14 -13 -18 -20 -10 -16 8 4 4 -3 -10 -15 -14 -12 -19 -19 -12 -15 21 11 13 -5 -15 -32 -16 -15 -21 -23 -13 -19 9 5 8 2 -2 -7 -10 -8 -15 -17 -11 -20 3 -4 1 -7 -5 -7 -6 0 -16 -10 -23 -21 -8 -16 -8 -20 1 -14 9 6 9 2 1 -14 -7 -11 -16 -21 -22 -21 -6 0 -7 -4 -4 -10 3 -5 1 -10 -5 -10 -6 0 -8 -4 -5 -10 3 -5 1 -10 -5 -10 -6 0 -8 -4 -5 -10 3 -5 1 -10 -5 -10 -6 0 -9 -4 -6 -9 8 -13 -4 -42 -15 -35 -5 3 -6 -2 -3 -10 3 -9 1 -16 -6 -16 -6 0 -8 -4 -5 -10 3 -5 2 -10 -4 -10 -6 0 -7 -7 -4 -17 4 -11 3 -14 -5 -9 -8 5 -10 2 -6 -8 3 -9 1 -16 -5 -16 -6 0 -8 -7 -4 -17 5 -12 3 -14 -7 -8 -10 6 -12 4 -7 -8 3 -10 2 -17 -3 -17 -5 0 -7 -7 -4 -15 4 -8 1 -15 -5 -15 -6 0 -8 -7 -5 -15 4 -8 1 -15 -5 -15 -6 0 -8 -7 -5 -15 4 -8 1 -15 -5 -15 -6 0 -8 -7 -5 -15 4 -8 1 -15 -6 -15 -7 0 -10 -7 -6 -15 3 -8 1 -15 -5 -15 -6 0 -8 -9 -4 -20 4 -12 2 -20 -5 -20 -7 0 -9 -8 -5 -20 4 -12 2 -20 -5 -20 -7 0 -9 -8 -5 -20 4 -12 2 -20 -5 -20 -6 0 -8 -10 -4 -25 4 -15 2 -25 -5 -25 -6 0 -8 -11 -4 -30 3 -19 1 -30 -6 -30 -7 0 -9 -9 -5 -24 3 -14 2 -31 -2 -38 -11 -17 -11 12 -11 -3103 0 -3060 0 -3086 10 -3103 5 -7 6 -26 2 -42 -4 -20 -3 -30 5 -30 8 0 10 -9 6 -25 -4 -16 -2 -25 5 -25 7 0 9 -9 5 -25 -4 -16 -2 -25 5 -25 7 0 9 -9 5 -26 -5 -18 -3 -24 5 -18 9 5 10 -1 5 -20 -5 -20 -3 -26 5 -21 8 5 9 1 4 -14 -4 -13 -2 -21 5 -21 7 0 9 -8 5 -21 -5 -16 -4 -19 5 -14 9 5 10 2 5 -14 -4 -12 -2 -21 4 -21 6 0 8 -7 5 -15 -4 -8 -1 -15 5 -15 6 0 8 -7 5 -15 -4 -8 -1 -15 5 -15 6 0 8 -7 4 -17 -5 -12 -3 -14 7 -8 10 6 12 4 7 -8 -3 -10 -2 -17 3 -17 5 0 6 -7 3 -17 -5 -12 -3 -14 7 -8 10 6 12 4 7 -8 -3 -10 -2 -17 4 -17 6 0 7 -4 4 -10 -3 -5 -1 -10 5 -10 7 0 9 -7 6 -16 -4 -10 -2 -13 6 -8 8 5 9 2 5 -9 -3 -10 -2 -17 4 -17 6 0 7 -4 4 -10 -3 -5 -1 -10 5 -10 6 0 8 -5 5 -10 -3 -6 -1 -10 5 -10 6 0 8 -5 5 -10 -3 -6 -1 -10 5 -10 6 0 8 -4 5 -10 -3 -5 -1 -10 5 -10 6 0 8 -4 5 -10 -3 -5 -1 -10 5 -10 6 0 8 -4 5 -10 -3 -5 -1 -10 6 -10 7 0 9 -3 6 -7 -4 -3 1 -12 11 -20 11 -10 12 -12 2 -8 -8 4 -6 -1 4 -9 11 -9 16 -16 11 -16 -5 0 0 -7 11 -16 10 -8 12 -13 4 -9 -8 4 -6 -1 4 -9 11 -9 16 -16 11 -16 -5 0 0 -7 11 -16 10 -8 12 -13 4 -9 -8 4 -4 -3 10 -15 14 -12 18 -19 10 -15 -8 4 -4 -3 10 -15 14 -12 18 -19 10 -15 -8 4 -4 -3 10 -16 14 -13 21 -22 15 -19 -6 3 1 -6 15 -20 14 -14 19 -21 10 -16 -8 5 1 -6 21 -25 19 -19 28 -29 19 -24 -8 6 5 -10 30 -35 26 -25 37 -38 25 -30 -12 8 1 -7 29 -33 28 -27 50 -52 49 -57 -1 -4 7 -16 17 -25 11 -10 20 -14 20 -9 0 5 24 -16 53 -47 28 -30 45 -46 37 -34 -8 12 5 1 29 -24 24 -26 38 -37 31 -26 -7 11 5 2 25 -20 21 -22 34 -33 29 -25 -5 9 2 4 15 -10 13 -14 20 -18 16 -10 -4 8 3 4 16 -10 13 -14 22 -21 19 -15 -3 6 6 -1 19 -15 13 -14 20 -18 15 -10 -4 8 4 3 19 -12 27 -29 43 -37 32 -15 -4 6 3 1 15 -13 12 -14 19 -18 15 -10 -4 10 -2 9 8 -2 8 -10 17 -15 20 -11 4 3 7 1 7 -5 0 -6 10 -16 21 -23 16 -8 20 -8 14 1 -6 9 -2 9 14 1 11 -7 21 -16 21 -22 0 -6 4 -7 10 -4 5 3 10 1 10 -5 0 -6 4 -8 10 -5 6 3 10 1 10 -5 0 -6 5 -8 10 -5 5 3 10 1 10 -5 0 -6 4 -9 9 -6 14 9 42 -5 34 -17 -4 -6 0 -8 10 -4 10 3 17 2 17 -4 0 -6 5 -7 10 -4 6 3 10 2 10 -4 0 -6 7 -7 17 -4 12 5 14 3 8 -7 -6 -10 -4 -12 8 -7 10 3 17 2 17 -3 0 -5 7 -6 17 -3 12 5 14 3 8 -7 -6 -10 -4 -12 8 -7 10 4 17 2 17 -4 0 -6 7 -9 15 -5 8 3 15 1 15 -5 0 -6 7 -9 15 -5 8 3 15 1 15 -4 0 -5 7 -7 15 -4 8 4 15 1 15 -6 0 -7 8 -9 21 -5 16 5 19 4 14 -5 -5 -9 -2 -10 14 -5 13 4 21 2 21 -5 0 -7 8 -9 20 -5 12 4 20 2 20 -5 0 -7 8 -9 20 -5 12 4 20 2 20 -5 0 -6 10 -8 25 -4 16 4 25 2 25 -5 0 -7 9 -9 25 -5 16 4 25 2 25 -6 0 -8 10 -9 30 -5 17 4 30 3 30 -2 0 -4 114 -8 252 -8 265 0 5308 0 5746 0 138 0 252 4 252 9 0 4 16 5 35 2 24 -5 35 -3 35 5 0 7 9 9 25 5 15 -4 25 -2 25 4 0 6 11 8 26 4 21 -5 25 -4 19 6 -6 10 -2 11 19 6 16 -4 26 -2 26 4 0 7 8 9 21 5 16 -5 19 -4 14 5 -5 9 -2 10 14 5 13 -4 21 -2 21 5 0 7 8 9 21 5 16 -5 19 -4 14 5 -5 9 -2 10 14 5 12 -4 21 -2 21 4 0 6 7 8 15 5 8 -4 15 -1 15 5 0 6 7 8 15 5 8 -4 15 -1 15 5 0 6 7 8 17 4 12 -5 14 -3 8 7 -6 10 -4 12 8 7 10 -4 17 -2 17 4 0 6 7 9 15 5 8 -3 15 -1 15 5 0 6 5 7 10 4 6 -3 10 -1 10 5 0 7 7 9 16 6 10 -4 13 -2 8 6 -5 8 -2 9 9 5 10 -3 17 -2 17 4 0 6 5 7 10 4 6 -3 10 -1 10 5 0 6 5 8 10 5 6 -3 10 -2 10 4 0 6 7 8 15 5 8 -4 17 1 21 10 3 9 10 13 15 10 5 -3 9 0 9 6 0 6 5 8 10 5 6 -3 10 -1 10 5 0 6 5 8 10 5 6 -3 10 -1 10 6 0 7 3 9 7 6 3 -4 12 1 20 11 8 9 12 11 8 5 -11 -22 5 -14 32 14 15 16 23 21 19 13 -4 -8 0 -6 8 4 9 11 16 16 16 11 0 -5 7 0 16 11 8 10 13 12 9 4 -4 -8 3 -4 15 10 12 14 19 18 15 10 -4 -8 3 -4 15 10 12 14 19 18 15 10 -4 -8 3 -4 15 10 12 14 19 18 15 10 -4 -8 6 -1 22 15 15 17 26 26 23 20 -3 -6 6 1 20 15 14 14 21 19 16 10 -5 -8 9 3 30 25 22 23 35 34 29 25 -5 -9 17 13 51 49 33 35 90 92 125 125 36 34 58 57 49 51 -9 -5 2 8 24 29 23 22 34 35 26 30 -9 -5 -2 4 15 19 16 16 23 26 15 22 -8 -3 -1 6 15 20 17 15 23 24 15 20 -8 -4 -4 3 10 15 14 12 18 19 10 15 -8 -4 -4 3 10 15 14 12 18 19 10 15 -8 -4 -4 3 10 15 14 12 18 19 10 15 -8 -4 -4 3 10 15 14 12 18 19 10 15 -8 -4 -6 1 4 9 11 9 16 16 11 16 -5 0 0 7 11 16 10 8 13 12 6 9 -11 -6 -12 -3 -3 14 7 11 16 21 22 21 6 0 7 4 4 10 -3 5 -1 10 5 10 6 0 8 4 5 10 -3 5 -1 10 5 10 6 0 8 5 5 10 -3 6 -1 10 5 10 6 0 8 4 5 10 -3 5 -1 10 5 10 6 0 8 4 5 10 -3 5 -1 10 5 10 6 0 8 4 5 10 -3 5 -1 10 5 10 6 0 8 5 5 10 -3 6 -1 10 5 10 6 0 8 5 5 10 -3 6 -2 10 4 10 6 0 7 7 4 17 -5 12 -3 14 7 8 10 -6 12 -4 7 8 -3 10 -2 17 3 17 5 0 6 7 3 17 -5 12 -3 14 7 8 10 -6 12 -4 7 8 -3 10 -2 17 4 17 6 0 7 5 4 10 -3 6 -1 10 5 10 7 0 10 7 6 15 -3 8 -1 15 4 15 5 0 7 7 4 15 -4 8 -1 15 5 15 6 0 8 7 5 15 -4 8 -1 15 5 15 6 0 8 7 5 15 -4 8 -1 15 5 15 6 0 8 7 5 15 -4 8 -1 15 6 15 7 0 9 8 5 21 -5 16 -4 19 5 14 9 -5 10 -2 5 14 -3 11 -2 21 3 21 6 0 8 10 4 22 -4 15 -2 19 7 13 10 -5 11 -2 6 14 -4 13 -2 21 5 21 7 0 9 8 5 20 -4 11 -2 20 4 20 6 0 8 7 5 15 -4 8 -1 15 5 15 8 0 11 877 11 3196 0 2323 -3 3193 -11 3188 -8 -4 -9 1 -4 15 4 13 2 21 -5 21 -7 0 -9 8 -5 20 4 12 2 20 -5 20 -7 0 -10 7 -6 15 3 8 1 15 -5 15 -6 0 -8 9 -4 20 4 12 2 20 -5 20 -7 0 -10 7 -6 15 3 8 1 15 -5 15 -6 0 -8 9 -4 21 5 16 4 19 -5 14 -9 -5 -10 -2 -5 14 4 12 2 21 -4 21 -6 0 -7 7 -4 17 5 11 3 14 -6 8 -10 -6 -11 -2 -6 15 5 17 4 21 -6 15 -9 -6 -11 -3 -6 8 3 10 2 17 -3 17 -5 0 -6 7 -3 17 5 12 3 14 -7 8 -10 -6 -12 -4 -7 8 3 10 2 17 -3 17 -5 0 -7 7 -4 15 4 8 1 15 -6 15 -6 0 -8 5 -5 10 3 6 2 10 -4 10 -6 0 -7 7 -4 17 4 10 2 14 -4 10 -12 -8 -26 20 -17 34 3 5 0 9 -6 9 -6 0 -8 5 -5 10 3 6 1 10 -5 10 -6 0 -8 5 -5 10 3 6 1 10 -5 10 -6 0 -8 5 -5 10 3 6 2 10 -4 10 -6 0 -8 6 -5 14 3 8 -3 23 -14 34 -11 11 -18 23 -14 26 3 3 0 6 -7 6 -7 0 -9 5 -6 10 3 6 1 10 -6 10 -7 0 -9 3 -6 7 4 3 -1 12 -11 20 -9 8 -11 11 -4 8 11 -6 12 -3 3 14 -7 11 -17 21 -23 21 -6 0 -8 3 -5 7 4 3 -1 12 -11 20 -11 10 -12 12 -2 8 8 -4 4 3 -10 15 -14 12 -18 19 -10 15 8 -4 4 3 -10 15 -14 12 -18 19 -10 15 8 -4 4 3 -10 15 -14 12 -18 19 -10 15 8 -4 1 6 -15 22 -17 15 -24 24 -15 19 8 -5 -3 8 -25 29 -22 20 -31 32 -20 24 11 -7 -5 12 -36 42 -30 30 -42 43 -25 29 17 -13 -21 28 -84 93 -109 111 -152 150 -99 89 13 -16 0 -3 -30 27 -30 31 -49 47 -42 36 8 -11 -4 -2 -24 20 -21 22 -34 33 -29 25 5 -9 -2 -4 -15 10 -13 14 -20 18 -16 10 4 -8 -3 -4 -15 10 -12 14 -19 18 -15 10 4 -8 -3 -4 -15 10 -12 14 -19 19 -15 13 11 -22 -5 -14 -32 15 -15 15 -23 21 -18 14 6 -11 3 -12 -14 -3 -11 7 -21 16 -21 22 0 6 -4 7 -10 4 -5 -3 -10 -1 -10 6 0 7 -3 9 -7 6 -3 -4 -12 1 -20 11 -8 9 -12 11 -8 4 5 -10 1 -10 -19 -1 -14 7 -23 16 -20 20 3 5 -3 6 -12 2 -12 -4 -15 -3 -10 5 5 8 1 10 -10 5 -13 -5 -15 -3 -9 7 5 8 4 11 -3 7 -13 -9 -44 2 -37 13 6 10 -24 22 -36 14 -5 -3 -9 0 -9 6 0 6 -4 8 -10 5 -5 -3 -10 -1 -10 5 0 6 -4 8 -10 5 -5 -3 -10 -2 -10 4 0 6 -7 8 -15 5 -8 -4 -15 -1 -15 6 0 6 -4 8 -10 5 -5 -3 -10 -2 -10 4 0 6 -7 7 -17 4 -12 -5 -14 -3 -8 7 6 10 4 12 -8 7 -10 -3 -17 -2 -17 3 0 5 -7 6 -17 3 -12 -5 -14 -3 -8 7 6 10 4 12 -8 7 -10 -4 -17 -2 -17 4 0 6 -7 9 -15 5 -8 -3 -15 -1 -15 4 0 5 -7 7 -15 4 -8 -4 -15 -1 -15 5 0 6 -7 8 -15 5 -8 -4 -15 -1 -15 6 0 7 -7 10 -15 6 -8 -3 -15 -1 -15 5 0 6 -9 8 -20 4 -11 -4 -20 -2 -20 4 0 6 -7 8 -15 5 -8 -4 -15 -1 -15 6 0 7 -8 9 -20 5 -11 -3 -20 -2 -20 3 0 6 -10 8 -22 4 -15 -4 -19 -2 -13 7 5 10 2 11 -14 6 -11 -3 -21 -3 -21 2 0 4 -1433 8 -3185 8 -1752 0 -3185 -4 -3185 -8z m4572 -1934 c-211 -2 -553 -2 -760 0 -207 1 -35 2 383 2 418 0 588 -1 377 -2z m-2499 -10 l-252 -3 -4 -43 -4 -42 -1 48 -2 47 258 -2 257 -3 -252 -2z m-266 -680 c-1 -54 -3 -10 -3 97 0 107 2 151 3 98 2 -54 2 -142 0 -195z m2758 -870 c-3 -10 -247 -12 -1182 -11 l-1178 3 1178 2 1177 3 2 583 3 582 3 -575 c1 -316 0 -581 -3 -587z m-3452 770 c-128 -2 -338 -2 -465 0 -128 1 -24 2 232 2 256 0 360 -1 233 -2z m-866 -1720 c-1 -318 -2 -60 -2 572 0 633 1 893 2 578 2 -314 2 -832 0 -1150z m1558 929 l0 -392 -2 390 -3 390 -580 3 -580 2 582 0 583 0 0 -393z m4333 126 l-3 -273 -2 267 -3 268 -593 3 -592 2 598 3 597 2 -2 -272z m379 -1041 c-1 -155 -2 -28 -2 283 0 311 1 438 2 282 2 -155 2 -409 0 -565z m-409 -552 l-22 -20 17 21 c15 18 17 54 19 315 l3 294 2 -295 c3 -293 3 -294 -19 -315z m-2733 -85 l2629 0 36 33 35 32 -34 -37 -35 -38 -2631 0 -2631 0 -54 58 -55 57 55 -52 56 -53 2629 0z m3135 12 c0 -5 -7 -17 -15 -28 -14 -18 -14 -17 -4 9 12 27 19 34 19 19z m-60 -116 c0 -3 -5 -8 -12 -12 -7 -4 -8 -3 -4 4 7 12 16 16 16 8z m-20 -30 c0 -3 -5 -8 -12 -12 -7 -4 -8 -3 -4 4 7 12 16 16 16 8z m-6075 -16 c3 -5 4 -10 1 -10 -3 0 -8 5 -11 10 -3 6 -4 10 -1 10 3 0 8 -4 11 -10z m26 -37 c13 -16 12 -17 -3 -4 -17 13 -22 21 -14 21 2 0 10 -8 17 -17z m6019 14 c0 -1 -28 -29 -62 -62 l-63 -60 60 63 c55 58 65 67 65 59z m-5979 -64 c13 -16 12 -17 -3 -4 -10 7 -18 15 -18 17 0 8 8 3 21 -13z m54 -43 c3 -5 4 -10 1 -10 -3 0 -8 5 -11 10 -3 6 -4 10 -1 10 3 0 8 -4 11 -10z m30 -20 c3 -5 4 -10 1 -10 -3 0 -8 5 -11 10 -3 6 -4 10 -1 10 3 0 8 -4 11 -10z m5765 6 c0 -3 -5 -8 -12 -12 -7 -4 -8 -3 -4 4 7 12 16 16 16 8z m-30 -20 c0 -3 -5 -8 -12 -12 -7 -4 -8 -3 -4 4 7 12 16 16 16 8z m-30 -21 c0 -6 -56 -35 -67 -35 -4 1 8 9 27 20 39 22 40 22 40 15z m-5553 -42 c-4 -3 -10 -3 -14 0 -3 4 0 7 7 7 7 0 10 -3 7 -7z m40 -9 c-3 -3 -12 -4 -19 -1 -8 3 -5 6 6 6 11 1 17 -2 13 -5z m5400 -1 c-4 -3 -10 -3 -14 0 -3 4 0 7 7 7 7 0 10 -3 7 -7z m-5329 -10 c-10 -2 -26 -2 -35 0 -10 3 -2 5 17 5 19 0 27 -2 18 -5z m5270 0 c-10 -2 -26 -2 -35 0 -10 3 -2 5 17 5 19 0 27 -2 18 -5z m-4885 -10 c-51 -2 -136 -2 -190 0 -54 1 -12 3 92 3 105 0 149 -2 98 -3z m4650 0 c-51 -2 -136 -2 -190 0 -54 1 -12 3 92 3 105 0 149 -2 98 -3z m-3995 -1010 l-3 -1008 -2 1002 -3 1002 -88 4 -87 3 93 2 92 2 -2 -1007z m2757 -940 c-3 -10 -247 -12 -1182 -11 l-1178 3 1178 2 1177 3 2 978 3 977 3 -970 c1 -533 0 -976 -3 -982z m523 1940 c-27 -2 -69 -2 -95 0 -27 2 -5 3 47 3 52 0 74 -1 48 -3z m-918 -578 l0 -205 -792 2 -793 3 788 2 787 3 0 200 c0 110 2 200 5 200 3 0 5 -92 5 -205z m-5 -785 l0 -205 -535 0 -535 0 533 2 532 3 0 200 0 200 -785 3 -785 2 787 0 788 0 0 -205z m-1568 -152 c-2 -13 -4 -5 -4 17 -1 22 1 32 4 23 2 -10 2 -28 0 -40z m156 -45 c-23 -2 -64 -2 -90 0 -26 2 -7 3 42 3 50 0 71 -1 48 -3z m-915 -776 c12 -3 11 -4 -3 -3 -17 1 -20 8 -21 44 l-1 42 4 -39 c3 -27 10 -41 21 -44z m1044 -14 c-150 -2 -393 -2 -540 0 -147 1 -24 2 273 2 297 0 417 -1 267 -2z m-3981 -1350 c13 -16 12 -17 -3 -4 -17 13 -22 21 -14 21 2 0 10 -8 17 -17z"/>
 <path d="M9205 608 l-50 -53 53 50 c48 46 57 55 49 55 -1 0 -25 -24 -52 -52z"/>
 </g>
<g id="layer108" fill="#ffffff" stroke="none">
 <path d="M874 9428 c-4 -7 -3 -8 4 -4 12 7 16 16 8 16 -3 0 -8 -5 -12 -12z"/>
 <path d="M844 9408 c-4 -7 -3 -8 4 -4 12 7 16 16 8 16 -3 0 -8 -5 -12 -12z"/>
 <path d="M8975 9400 c3 -5 8 -10 11 -10 3 0 2 5 -1 10 -3 6 -8 10 -11 10 -3 0 -2 -4 1 -10z"/>
 <path d="M804 9378 c-4 -7 -3 -8 4 -4 12 7 16 16 8 16 -3 0 -8 -5 -12 -12z"/>
 <path d="M9025 9360 c3 -5 8 -10 11 -10 3 0 2 5 -1 10 -3 6 -8 10 -11 10 -3 0 -2 -4 1 -10z"/>
 <path d="M754 9338 c-4 -7 -3 -8 4 -4 12 7 16 16 8 16 -3 0 -8 -5 -12 -12z"/>
 <path d="M9095 9300 c10 -11 20 -20 23 -20 3 0 -3 9 -13 20 -10 11 -20 20 -23 20 -3 0 3 -9 13 -20z"/>
 <path d="M689 9283 c-13 -16 -12 -17 4 -4 16 13 21 21 13 21 -2 0 -10 -8 -17 -17z"/>
 <path d="M9285 9110 c10 -11 20 -20 23 -20 3 0 -3 9 -13 20 -10 11 -20 20 -23 20 -3 0 3 -9 13 -20z"/>
 <path d="M504 9098 l-19 -23 23 19 c21 18 27 26 19 26 -2 0 -12 -10 -23 -22z"/>
 <path d="M454 9038 c-4 -7 -3 -8 4 -4 7 4 12 9 12 12 0 8 -9 4 -16 -8z"/>
 <path d="M9345 9040 c3 -5 8 -10 11 -10 3 0 2 5 -1 10 -3 6 -8 10 -11 10 -3 0 -2 -4 1 -10z"/>
 <path d="M414 8988 c-4 -7 -3 -8 4 -4 7 4 12 9 12 12 0 8 -9 4 -16 -8z"/>
 <path d="M9385 8990 c3 -5 8 -10 11 -10 3 0 2 5 -1 10 -3 6 -8 10 -11 10 -3 0 -2 -4 1 -10z"/>
 <path d="M9415 8950 c3 -5 8 -10 11 -10 3 0 2 5 -1 10 -3 6 -8 10 -11 10 -3 0 -2 -4 1 -10z"/>
 <path d="M364 8918 c-4 -7 -3 -8 4 -4 7 4 12 9 12 12 0 8 -9 4 -16 -8z"/>
 <path d="M324 8858 c-4 -7 -3 -8 4 -4 7 4 12 9 12 12 0 8 -9 4 -16 -8z"/>
 <path d="M11 7984 c0 -11 3 -14 6 -6 3 7 2 16 -1 19 -3 4 -6 -2 -5 -13z"/>
 <path d="M4069 7843 l-526 -3 -6 -173 c-4 -94 -7 -267 -7 -383 l0 -211 -46 -7 c-26 -3 -377 -6 -780 -6 l-734 0 0 -1145 0 -1145 44 -88 c81 -162 155 -237 300 -307 91 -44 182 -55 447 -55 108 0 324 -3 482 -7 l286 -6 3 -1163 c2 -639 7 -1166 11 -1171 5 -4 708 -9 1563 -11 l1554 -3 0 1174 0 1174 293 6 c160 4 380 7 487 7 282 0 367 11 460 57 102 51 217 167 282 283 l48 85 0 846 c0 465 3 988 7 1162 l6 317 -791 0 -792 0 0 390 0 390 -1032 -2 c-568 -2 -1270 -4 -1559 -5z m2221 -978 l0 -585 -1182 2 -1183 3 -3 583 -2 582 1185 0 1185 0 0 -585z m-2760 -590 l0 -395 1565 0 1565 0 2 393 3 392 599 3 598 2 -7 -922 -6 -923 -62 -57 -62 -57 -2630 -1 -2629 0 -58 57 -58 57 0 923 0 923 590 0 590 0 0 -395z m2760 -2945 l0 -980 -1182 2 -1183 3 -3 978 -2 977 1185 0 1185 0 0 -980z"/>
 <path d="M4310 3725 l0 -195 785 0 785 0 0 195 0 195 -785 0 -785 0 0 -195z"/>
 <path d="M4314 2953 c4 -104 11 -192 16 -197 6 -6 324 -11 780 -14 l770 -5 0 202 0 201 -787 0 -786 0 7 -187z"/>
 <path d="M3 7480 c0 -25 2 -35 4 -22 2 12 2 32 0 45 -2 12 -4 2 -4 -23z"/>
 <path d="M3 2325 c0 -22 2 -30 4 -17 2 12 2 30 0 40 -3 9 -5 -1 -4 -23z"/>
 <path d="M10 1820 c0 -7 3 -10 7 -7 3 4 3 10 0 14 -4 3 -7 0 -7 -7z"/>
 <path d="M20 1740 c0 -7 3 -10 7 -7 3 4 3 10 0 14 -4 3 -7 0 -7 -7z"/>
 <path d="M50 1590 c0 -7 3 -10 7 -7 3 4 3 10 0 14 -4 3 -7 0 -7 -7z"/>
 <path d="M365 890 c3 -5 8 -10 11 -10 3 0 2 5 -1 10 -3 6 -8 10 -11 10 -3 0 -2 -4 1 -10z"/>
 <path d="M385 860 c3 -5 8 -10 11 -10 3 0 2 5 -1 10 -3 6 -8 10 -11 10 -3 0 -2 -4 1 -10z"/>
 <path d="M415 820 c3 -5 8 -10 11 -10 3 0 2 5 -1 10 -3 6 -8 10 -11 10 -3 0 -2 -4 1 -10z"/>
 <path d="M9384 818 c-4 -7 -3 -8 4 -4 12 7 16 16 8 16 -3 0 -8 -5 -12 -12z"/>
 <path d="M440 786 c0 -2 8 -10 18 -17 15 -13 16 -12 3 4 -13 16 -21 21 -21 13z"/>
 <path d="M9354 778 c-4 -7 -3 -8 4 -4 12 7 16 16 8 16 -3 0 -8 -5 -12 -12z"/>
 <path d="M9309 723 c-13 -16 -12 -17 4 -4 9 7 17 15 17 17 0 8 -8 3 -21 -13z"/>
 <path d="M505 710 c10 -11 20 -20 23 -20 3 0 -3 9 -13 20 -10 11 -20 20 -23 20 -3 0 3 -9 13 -20z"/>
 <path d="M9205 608 l-50 -53 53 50 c48 46 57 55 49 55 -1 0 -25 -24 -52 -52z"/>
 <path d="M605 600 c10 -11 20 -20 23 -20 3 0 -3 9 -13 20 -10 11 -20 20 -23 20 -3 0 3 -9 13 -20z"/>
 <path d="M710 506 c0 -2 8 -10 18 -17 15 -13 16 -12 3 4 -13 16 -21 21 -21 13z"/>
 <path d="M9079 493 c-13 -16 -12 -17 4 -4 9 7 17 15 17 17 0 8 -8 3 -21 -13z"/>
 <path d="M775 450 c3 -5 8 -10 11 -10 3 0 2 5 -1 10 -3 6 -8 10 -11 10 -3 0 -2 -4 1 -10z"/>
 <path d="M9024 448 c-4 -7 -3 -8 4 -4 12 7 16 16 8 16 -3 0 -8 -5 -12 -12z"/>
 <path d="M8984 418 c-4 -7 -3 -8 4 -4 12 7 16 16 8 16 -3 0 -8 -5 -12 -12z"/>
 <path d="M825 410 c3 -5 8 -10 11 -10 3 0 2 5 -1 10 -3 6 -8 10 -11 10 -3 0 -2 -4 1 -10z"/>
 <path d="M8944 388 c-4 -7 -3 -8 4 -4 12 7 16 16 8 16 -3 0 -8 -5 -12 -12z"/>
 <path d="M895 360 c3 -5 8 -10 11 -10 3 0 2 5 -1 10 -3 6 -8 10 -11 10 -3 0 -2 -4 1 -10z"/>
 <path d="M955 320 c3 -5 8 -10 11 -10 3 0 2 5 -1 10 -3 6 -8 10 -11 10 -3 0 -2 -4 1 -10z"/>
 <path d="M8073 23 c4 -3 10 -3 14 0 3 4 0 7 -7 7 -7 0 -10 -3 -7 -7z"/>
 <path d="M1778 13 c7 -3 16 -2 19 1 4 3 -2 6 -13 5 -11 0 -14 -3 -6 -6z"/>
 <path d="M8003 13 c4 -3 10 -3 14 0 3 4 0 7 -7 7 -7 0 -10 -3 -7 -7z"/>
 <path d="M2373 3 c15 -2 37 -2 50 0 12 2 0 4 -28 4 -27 0 -38 -2 -22 -4z"/>
 <path d="M7373 3 c15 -2 37 -2 50 0 12 2 0 4 -28 4 -27 0 -38 -2 -22 -4z"/>
 </g>

</svg>