<!DOCTYPE svg PUBLIC "-//W3C//DTD SVG 20010904//EN" "http://www.w3.org/TR/2001/REC-SVG-20010904/DTD/svg10.dtd">
<svg version="1.0" xmlns="http://www.w3.org/2000/svg" width="250px" height="250px" viewBox="0 0 2500 2500" preserveAspectRatio="xMidYMid meet">
<g id="layer101" fill="#000000" stroke="none">
 <path d="M323 2486 c-164 -40 -269 -145 -308 -307 -22 -96 -22 -1762 0 -1858 39 -165 153 -274 323 -310 74 -15 1750 -15 1824 0 170 36 284 145 323 310 22 96 22 1762 0 1858 -39 165 -153 274 -323 310 -80 17 -1769 14 -1839 -3z"/>
 </g>
<g id="layer102" fill="#ffffff" stroke="none">
 <path d="M800 1910 l0 -210 -210 0 -210 0 0 -30 c0 -27 3 -30 30 -30 l30 0 0 -120 0 -120 -30 0 c-27 0 -30 -3 -30 -30 0 -27 3 -30 30 -30 27 0 30 -3 30 -30 0 -27 -3 -30 -30 -30 l-30 0 0 -240 0 -240 210 0 210 0 0 -210 0 -210 30 0 30 0 0 90 0 90 60 0 60 0 0 30 0 30 60 0 60 0 0 30 c0 27 3 30 30 30 27 0 30 3 30 30 0 27 3 30 30 30 27 0 30 -3 30 -30 0 -27 3 -30 30 -30 27 0 30 -3 30 -30 0 -27 3 -30 30 -30 27 0 30 -3 30 -30 0 -27 -3 -30 -30 -30 l-30 0 0 -60 0 -60 30 0 c27 0 30 -3 30 -30 l0 -30 60 0 60 0 0 60 0 60 30 0 30 0 0 60 0 60 -30 0 -30 0 0 90 0 90 30 0 30 0 0 -60 0 -60 30 0 30 0 0 90 0 90 30 0 30 0 0 -120 0 -120 -30 0 c-27 0 -30 -3 -30 -30 0 -27 3 -30 30 -30 27 0 30 -3 30 -30 0 -27 -3 -30 -30 -30 -27 0 -30 -3 -30 -30 0 -27 -3 -30 -30 -30 -27 0 -30 -3 -30 -30 0 -27 3 -30 30 -30 27 0 30 3 30 30 0 27 3 30 30 30 27 0 30 -3 30 -30 0 -27 3 -30 30 -30 l30 0 0 210 0 210 210 0 210 0 0 30 0 30 -90 0 -90 0 0 30 0 30 -60 0 -60 0 0 -30 0 -30 -90 0 -90 0 0 30 c0 27 3 30 30 30 l30 0 0 90 0 90 60 0 60 0 0 -60 0 -60 60 0 60 0 0 30 c0 27 3 30 30 30 l30 0 0 -60 0 -60 30 0 c27 0 30 3 30 30 0 27 3 30 30 30 l30 0 0 60 0 60 -30 0 c-27 0 -30 -3 -30 -30 0 -27 -3 -30 -30 -30 -27 0 -30 3 -30 30 0 27 -3 30 -30 30 -27 0 -30 3 -30 30 0 27 3 30 30 30 l30 0 0 90 0 90 60 0 60 0 0 30 0 30 -60 0 -60 0 0 30 0 30 60 0 60 0 0 30 0 30 -60 0 -60 0 0 30 0 30 60 0 60 0 0 30 c0 27 -3 30 -30 30 -27 0 -30 3 -30 30 0 27 3 30 30 30 l30 0 0 210 0 210 -60 0 -60 0 0 -30 c0 -27 -3 -30 -30 -30 -27 0 -30 3 -30 30 0 27 -3 30 -30 30 -27 0 -30 -3 -30 -30 0 -27 3 -30 30 -30 27 0 30 -3 30 -30 0 -27 3 -30 30 -30 27 0 30 3 30 30 0 27 3 30 30 30 l30 0 0 -60 0 -60 -30 0 -30 0 0 -60 0 -60 -30 0 c-27 0 -30 -3 -30 -30 0 -27 -3 -30 -30 -30 -27 0 -30 -3 -30 -30 0 -27 3 -30 30 -30 27 0 30 -3 30 -30 0 -27 -3 -30 -30 -30 -27 0 -30 -3 -30 -30 0 -27 -3 -30 -30 -30 -27 0 -30 -3 -30 -30 0 -27 3 -30 30 -30 27 0 30 3 30 30 0 27 3 30 30 30 27 0 30 -3 30 -30 0 -27 3 -30 30 -30 27 0 30 -3 30 -30 l0 -30 -60 0 -60 0 0 -30 c0 -27 -3 -30 -30 -30 -27 0 -30 3 -30 30 0 27 -3 30 -30 30 -27 0 -30 -3 -30 -30 l0 -30 -60 0 -60 0 0 -30 c0 -27 -3 -30 -30 -30 l-30 0 0 60 0 60 60 0 60 0 0 60 0 60 -30 0 c-27 0 -30 -3 -30 -30 l0 -30 -60 0 -60 0 0 30 c0 27 3 30 30 30 27 0 30 3 30 30 0 27 -3 30 -30 30 l-30 0 0 60 0 60 -30 0 c-27 0 -30 3 -30 30 l0 30 60 0 60 0 0 30 0 30 90 0 90 0 0 30 c0 27 3 30 30 30 27 0 30 -3 30 -30 0 -27 3 -30 30 -30 27 0 30 3 30 30 0 27 -3 30 -30 30 l-30 0 0 90 0 90 -120 0 -120 0 0 -30 c0 -27 -3 -30 -30 -30 -27 0 -30 3 -30 30 0 27 -3 30 -30 30 l-30 0 0 -60 0 -60 -30 0 c-27 0 -30 3 -30 30 0 27 -3 30 -30 30 -27 0 -30 -3 -30 -30 0 -27 3 -30 30 -30 l30 0 0 -60 0 -60 30 0 c27 0 30 -3 30 -30 0 -27 -3 -30 -30 -30 -27 0 -30 -3 -30 -30 l0 -30 -90 0 -90 0 0 -30 c0 -27 -3 -30 -30 -30 -27 0 -30 -3 -30 -30 0 -27 3 -30 30 -30 l30 0 0 -90 0 -90 -30 0 c-27 0 -30 3 -30 30 0 27 -3 30 -30 30 -27 0 -30 3 -30 30 0 27 -3 30 -30 30 -27 0 -30 -3 -30 -30 0 -27 -3 -30 -30 -30 l-30 0 0 60 0 60 30 0 c27 0 30 3 30 30 0 27 3 30 30 30 27 0 30 3 30 30 0 27 -3 30 -30 30 l-30 0 0 60 0 60 60 0 60 0 0 30 0 30 60 0 60 0 0 30 c0 27 -3 30 -30 30 -27 0 -30 3 -30 30 0 27 3 30 30 30 27 0 30 3 30 30 0 27 -3 30 -30 30 -27 0 -30 -3 -30 -30 l0 -30 -60 0 -60 0 0 30 0 30 -60 0 -60 0 0 -60 0 -60 -30 0 -30 0 0 60 0 60 -60 0 -60 0 0 -210z m300 90 l0 -60 -60 0 -60 0 0 -30 c0 -27 -3 -30 -30 -30 -27 0 -30 -3 -30 -30 0 -27 3 -30 30 -30 27 0 30 -3 30 -30 0 -27 3 -30 30 -30 27 0 30 -3 30 -30 0 -27 -3 -30 -30 -30 -27 0 -30 -3 -30 -30 0 -27 -3 -30 -30 -30 -27 0 -30 -3 -30 -30 0 -27 -3 -30 -30 -30 -27 0 -30 -3 -30 -30 0 -27 3 -30 30 -30 l30 0 0 -60 0 -60 -30 0 c-27 0 -30 -3 -30 -30 0 -27 3 -30 30 -30 27 0 30 -3 30 -30 0 -27 -3 -30 -30 -30 -27 0 -30 3 -30 30 l0 30 -90 0 -90 0 0 90 0 90 60 0 60 0 0 30 0 30 -60 0 -60 0 0 30 0 30 60 0 60 0 0 -30 c0 -27 3 -30 30 -30 l30 0 0 60 0 60 30 0 30 0 0 60 0 60 -30 0 -30 0 0 90 0 90 30 0 c27 0 30 -3 30 -30 0 -27 3 -30 30 -30 27 0 30 3 30 30 0 27 3 30 30 30 27 0 30 3 30 30 0 27 3 30 30 30 l30 0 0 -60z m660 0 l0 -60 -30 0 -30 0 0 60 0 60 30 0 30 0 0 -60z m-240 -30 c0 -27 3 -30 30 -30 27 0 30 -3 30 -30 0 -27 -3 -30 -30 -30 -27 0 -30 3 -30 30 0 27 -3 30 -30 30 -27 0 -30 3 -30 30 0 27 3 30 30 30 27 0 30 -3 30 -30z m540 -180 c0 -27 -3 -30 -30 -30 -27 0 -30 3 -30 30 0 27 3 30 30 30 27 0 30 -3 30 -30z m-780 -120 c0 -27 -3 -30 -30 -30 -27 0 -30 3 -30 30 0 27 3 30 30 30 27 0 30 -3 30 -30z m180 0 c0 -27 3 -30 30 -30 27 0 30 -3 30 -30 0 -27 -3 -30 -30 -30 -27 0 -30 3 -30 30 l0 30 -60 0 -60 0 0 30 0 30 60 0 60 0 0 -30z m-840 -90 l0 -60 -60 0 -60 0 0 60 0 60 60 0 60 0 0 -60z m1380 30 c0 -27 -3 -30 -30 -30 -27 0 -30 3 -30 30 0 27 3 30 30 30 27 0 30 -3 30 -30z m-660 -120 l0 -90 30 0 30 0 0 -60 0 -60 30 0 c27 0 30 3 30 30 l0 30 60 0 60 0 0 -30 0 -30 -60 0 -60 0 0 -30 0 -30 60 0 60 0 0 -30 c0 -27 -3 -30 -30 -30 -27 0 -30 -3 -30 -30 l0 -30 60 0 60 0 0 90 0 90 30 0 c27 0 30 3 30 30 0 27 3 30 30 30 27 0 30 -3 30 -30 0 -27 -3 -30 -30 -30 -27 0 -30 -3 -30 -30 0 -27 3 -30 30 -30 27 0 30 -3 30 -30 0 -27 -3 -30 -30 -30 -27 0 -30 -3 -30 -30 0 -27 -3 -30 -30 -30 l-30 0 0 -60 0 -60 -30 0 c-27 0 -30 3 -30 30 l0 30 -60 0 -60 0 0 -60 0 -60 60 0 60 0 0 -30 0 -30 -60 0 -60 0 0 30 c0 27 -3 30 -30 30 l-30 0 0 -120 0 -120 -30 0 -30 0 0 90 0 90 -30 0 -30 0 0 -60 0 -60 -30 0 c-27 0 -30 3 -30 30 0 27 -3 30 -30 30 -27 0 -30 -3 -30 -30 0 -27 -3 -30 -30 -30 -27 0 -30 3 -30 30 0 27 -3 30 -30 30 l-30 0 0 -60 0 -60 -30 0 c-27 0 -30 -3 -30 -30 0 -27 -3 -30 -30 -30 -27 0 -30 3 -30 30 0 27 -3 30 -30 30 l-30 0 0 150 0 150 -60 0 -60 0 0 30 0 30 90 0 90 0 0 30 c0 27 3 30 30 30 27 0 30 3 30 30 l0 30 -60 0 -60 0 0 30 0 30 120 0 120 0 0 30 c0 27 3 30 30 30 27 0 30 3 30 30 l0 30 -60 0 -60 0 0 -30 c0 -27 -3 -30 -30 -30 -27 0 -30 3 -30 30 0 27 3 30 30 30 l30 0 0 90 0 90 30 0 c27 0 30 -3 30 -30 0 -27 3 -30 30 -30 l30 0 0 -60 0 -60 60 0 60 0 0 120 0 120 30 0 30 0 0 -90z m120 0 c0 -27 -3 -30 -30 -30 -27 0 -30 3 -30 30 0 27 3 30 30 30 27 0 30 -3 30 -30z m-900 -60 c0 -27 3 -30 30 -30 27 0 30 -3 30 -30 0 -27 -3 -30 -30 -30 -27 0 -30 3 -30 30 0 27 -3 30 -30 30 -27 0 -30 -3 -30 -30 0 -27 -3 -30 -30 -30 -27 0 -30 3 -30 30 0 27 3 30 30 30 27 0 30 3 30 30 0 27 3 30 30 30 27 0 30 -3 30 -30z m1440 -60 c0 -27 -3 -30 -30 -30 -27 0 -30 -3 -30 -30 0 -27 -3 -30 -30 -30 l-30 0 0 60 0 60 60 0 60 0 0 -30z m-1320 -120 c0 -27 3 -30 30 -30 27 0 30 3 30 30 0 27 3 30 30 30 27 0 30 -3 30 -30 0 -27 -3 -30 -30 -30 -27 0 -30 -3 -30 -30 0 -27 3 -30 30 -30 27 0 30 -3 30 -30 0 -27 -3 -30 -30 -30 -27 0 -30 3 -30 30 0 27 -3 30 -30 30 l-30 0 0 -60 0 -60 -30 0 c-27 0 -30 -3 -30 -30 0 -27 3 -30 30 -30 l30 0 0 -60 0 -60 -90 0 -90 0 0 30 c0 27 3 30 30 30 l30 0 0 90 0 90 30 0 c27 0 30 3 30 30 0 27 -3 30 -30 30 l-30 0 0 60 0 60 60 0 60 0 0 -30z m1260 -60 l0 -30 -60 0 -60 0 0 30 0 30 60 0 60 0 0 -30z m-1440 -120 c0 -27 -3 -30 -30 -30 -27 0 -30 3 -30 30 0 27 3 30 30 30 27 0 30 -3 30 -30z m1440 0 c0 -27 -3 -30 -30 -30 -27 0 -30 3 -30 30 0 27 3 30 30 30 27 0 30 -3 30 -30z m-1140 -180 c0 -27 -3 -30 -30 -30 -27 0 -30 3 -30 30 0 27 3 30 30 30 27 0 30 -3 30 -30z m660 -300 c0 -27 -3 -30 -30 -30 -27 0 -30 3 -30 30 0 27 3 30 30 30 27 0 30 -3 30 -30z m-60 -120 c0 -27 -3 -30 -30 -30 -27 0 -30 3 -30 30 0 27 3 30 30 30 27 0 30 -3 30 -30z"/>
 <path d="M800 1490 c0 -27 -3 -30 -30 -30 -27 0 -30 -3 -30 -30 0 -27 3 -30 30 -30 27 0 30 3 30 30 0 27 3 30 30 30 27 0 30 3 30 30 0 27 -3 30 -30 30 -27 0 -30 -3 -30 -30z"/>
 <path d="M1160 1250 c0 -27 3 -30 30 -30 27 0 30 -3 30 -30 l0 -30 -60 0 -60 0 0 -90 0 -90 -90 0 -90 0 0 -150 0 -150 30 0 30 0 0 90 0 90 60 0 60 0 0 -30 c0 -27 3 -30 30 -30 27 0 30 3 30 30 0 27 3 30 30 30 27 0 30 3 30 30 0 27 3 30 30 30 27 0 30 3 30 30 0 27 3 30 30 30 27 0 30 -3 30 -30 0 -27 3 -30 30 -30 27 0 30 3 30 30 0 27 -3 30 -30 30 -27 0 -30 3 -30 30 0 27 -3 30 -30 30 -27 0 -30 -3 -30 -30 0 -27 -3 -30 -30 -30 -27 0 -30 -3 -30 -30 l0 -30 -60 0 -60 0 0 30 c0 27 3 30 30 30 l30 0 0 60 0 60 30 0 c27 0 30 3 30 30 l0 30 60 0 60 0 0 -30 c0 -27 3 -30 30 -30 27 0 30 3 30 30 0 27 -3 30 -30 30 -27 0 -30 3 -30 30 0 27 3 30 30 30 27 0 30 3 30 30 l0 30 -60 0 -60 0 0 -30 c0 -27 -3 -30 -30 -30 -27 0 -30 3 -30 30 0 27 -3 30 -30 30 -27 0 -30 -3 -30 -30z"/>
 <path d="M620 1190 c0 -27 3 -30 30 -30 27 0 30 3 30 30 0 27 -3 30 -30 30 -27 0 -30 -3 -30 -30z"/>
 <path d="M440 1910 l0 -150 150 0 150 0 0 150 0 150 -150 0 -150 0 0 -150z m240 0 l0 -90 -90 0 -90 0 0 90 0 90 90 0 90 0 0 -90z"/>
 <path d="M1640 1730 l0 -90 90 0 90 0 0 90 0 90 -90 0 -90 0 0 -90z m120 0 c0 -27 -3 -30 -30 -30 -27 0 -30 3 -30 30 0 27 3 30 30 30 27 0 30 -3 30 -30z"/>
 <path d="M2060 1250 c0 -27 3 -30 30 -30 27 0 30 3 30 30 0 27 -3 30 -30 30 -27 0 -30 -3 -30 -30z"/>
 <path d="M440 590 l0 -150 150 0 150 0 0 150 0 150 -150 0 -150 0 0 -150z m240 0 l0 -90 -90 0 -90 0 0 90 0 90 90 0 90 0 0 -90z"/>
 <path d="M1760 590 l0 -150 150 0 150 0 0 150 0 150 -150 0 -150 0 0 -150z m240 0 l0 -90 -90 0 -90 0 0 90 0 90 90 0 90 0 0 -90z"/>
 <path d="M1160 560 l0 -60 30 0 30 0 0 60 0 60 -30 0 -30 0 0 -60z"/>
 <path d="M1040 470 c0 -27 3 -30 30 -30 27 0 30 3 30 30 0 27 -3 30 -30 30 -27 0 -30 -3 -30 -30z"/>
 <path d="M920 410 c0 -27 3 -30 30 -30 27 0 30 3 30 30 0 27 -3 30 -30 30 -27 0 -30 -3 -30 -30z"/>
 <path d="M1160 410 c0 -27 3 -30 30 -30 27 0 30 3 30 30 0 27 -3 30 -30 30 -27 0 -30 -3 -30 -30z"/>
 </g>

</svg>