<svg id="svg" version="1.1" xmlns="http://www.w3.org/2000/svg" xmlns:xlink="http://www.w3.org/1999/xlink" width="400" height="400" viewBox="0, 0, 400,400"><g id="svgg"><path id="path0" d="M286.719 125.014 C 286.602 125.131,283.107 125.944,278.953 126.820 C 269.662 128.778,270.419 128.526,268.124 130.422 C 265.957 132.213,261.704 133.961,257.000 134.993 C 250.498 136.420,247.978 137.301,246.067 138.813 C 242.934 141.292,240.306 142.246,230.698 144.394 C 227.509 145.107,226.486 145.527,225.098 146.692 C 222.744 148.668,218.452 150.649,214.841 151.426 C 206.037 153.322,203.950 153.996,202.656 155.362 C 200.472 157.668,196.605 159.221,189.168 160.780 C 183.720 161.921,183.174 162.128,180.772 163.960 C 176.948 166.879,172.343 168.464,162.782 170.155 C 161.883 170.314,160.693 171.040,159.524 172.144 C 157.452 174.102,152.189 176.432,148.189 177.163 C 141.314 178.420,140.007 178.854,137.882 180.585 C 134.364 183.451,130.680 184.812,121.626 186.591 C 118.678 187.171,118.061 187.445,116.741 188.765 C 114.601 190.905,110.625 192.730,106.136 193.633 C 97.717 195.326,95.991 195.923,95.193 197.413 C 94.487 198.733,91.711 200.617,89.318 201.399 C 85.581 202.622,85.526 205.575,89.226 206.368 C 92.755 207.125,96.144 208.817,99.037 211.265 C 100.894 212.837,100.994 212.869,106.940 213.798 C 116.720 215.327,122.084 217.112,124.878 219.767 C 125.471 220.330,126.731 220.966,127.678 221.179 C 142.105 224.428,144.169 225.074,145.435 226.739 C 146.006 227.489,148.936 227.075,150.718 225.991 C 151.902 225.271,152.342 224.575,153.528 221.546 C 153.884 220.637,154.301 220.430,156.561 220.036 C 163.313 218.860,166.755 216.978,167.657 213.969 C 168.169 212.259,170.421 210.800,172.549 210.800 C 175.955 210.800,179.409 208.576,181.592 204.977 C 181.918 204.440,182.340 204.000,182.530 204.000 C 186.816 204.000,193.301 200.153,193.779 197.327 C 194.107 195.383,194.692 195.068,199.090 194.465 C 200.680 194.247,202.569 193.775,203.289 193.416 C 205.127 192.499,207.516 192.927,208.025 194.265 C 208.573 195.708,208.512 195.882,207.300 196.317 C 206.695 196.534,205.583 197.272,204.828 197.956 C 204.073 198.640,203.309 199.200,203.129 199.200 C 202.470 199.200,199.679 202.043,199.198 203.204 C 198.926 203.862,198.579 204.400,198.427 204.400 C 198.276 204.400,197.623 204.906,196.976 205.525 C 196.329 206.144,195.208 206.888,194.484 207.180 C 193.158 207.715,190.400 210.560,190.400 211.394 C 190.400 212.146,187.897 214.287,186.205 214.983 C 184.066 215.862,182.851 217.044,181.892 219.180 C 180.924 221.334,179.909 222.243,177.815 222.832 C 175.750 223.412,173.396 225.786,172.840 227.851 C 172.321 229.780,171.404 230.698,169.460 231.235 C 165.444 232.343,162.979 237.224,165.452 239.170 C 166.414 239.926,167.340 240.256,170.503 240.968 C 171.272 241.141,172.271 242.115,173.794 244.175 C 176.181 247.403,177.000 248.080,180.600 249.805 C 182.055 250.503,183.866 251.854,185.200 253.238 C 187.413 255.533,189.212 256.623,193.997 258.567 C 195.487 259.173,197.278 260.295,198.201 261.201 C 199.440 262.417,200.722 263.098,203.768 264.159 C 208.537 265.820,209.444 266.451,211.000 269.190 C 212.083 271.096,212.415 271.369,214.400 271.983 C 217.669 272.993,218.738 273.676,221.600 276.576 C 223.987 278.994,227.202 281.177,230.828 282.841 C 232.276 283.505,234.800 286.186,234.800 287.059 C 234.800 287.711,236.963 288.960,239.547 289.798 C 242.014 290.600,244.600 292.979,245.004 294.820 C 245.173 295.589,245.567 296.067,246.132 296.190 C 246.609 296.294,248.611 296.749,250.579 297.201 L 254.159 298.023 256.679 296.951 C 258.066 296.362,259.200 295.761,259.200 295.616 C 259.200 295.471,259.990 294.427,260.955 293.296 C 262.979 290.925,263.236 290.044,264.425 281.427 C 265.970 270.220,266.996 266.348,269.573 262.000 C 271.240 259.188,271.470 258.211,272.822 248.200 C 274.466 236.020,275.738 230.893,278.427 225.605 C 279.312 223.864,279.726 222.095,280.394 217.200 C 282.929 198.620,284.212 192.341,286.337 188.116 C 287.589 185.627,288.251 182.256,289.580 171.600 C 291.015 160.097,292.612 152.348,294.752 146.514 C 295.964 143.210,296.182 141.885,296.804 134.076 C 297.273 128.191,296.936 127.075,294.497 126.439 C 287.927 124.725,287.150 124.583,286.719 125.014 M237.948 170.537 C 238.728 171.477,237.576 171.966,236.400 171.194 C 235.867 170.844,235.867 170.756,236.400 170.406 C 237.198 169.882,237.420 169.901,237.948 170.537 M229.120 179.014 C 229.002 179.131,227.757 179.411,226.353 179.636 C 223.243 180.135,222.130 180.814,221.288 182.731 L 220.642 184.200 220.269 182.124 C 219.675 178.823,219.707 178.800,224.854 178.800 C 227.318 178.800,229.237 178.896,229.120 179.014 M217.300 186.421 C 219.253 186.963,219.192 187.342,217.019 188.172 C 215.360 188.805,212.800 191.137,212.800 192.014 C 212.800 192.788,209.654 192.447,209.214 191.626 C 207.083 187.645,211.491 184.808,217.300 186.421 " stroke="none" fill="#e7f1f9" fill-rule="evenodd"></path><path id="path1" d="M285.200 121.026 C 282.840 122.533,279.298 123.714,272.034 125.415 C 266.839 126.632,264.677 127.474,261.730 129.429 C 258.684 131.450,256.374 132.328,250.782 133.589 C 245.030 134.886,243.598 135.424,240.219 137.558 C 237.316 139.392,233.336 140.880,227.837 142.189 C 222.484 143.463,220.620 144.160,218.864 145.543 C 216.362 147.512,213.460 148.731,208.743 149.791 C 202.176 151.267,200.616 151.838,196.596 154.240 C 192.311 156.800,189.973 157.668,183.872 158.960 C 178.938 160.005,177.746 160.496,174.464 162.835 C 172.063 164.547,168.604 165.777,161.007 167.617 C 155.341 168.990,154.100 169.501,152.018 171.315 C 149.918 173.145,147.096 174.259,141.651 175.407 C 135.667 176.669,133.835 177.364,129.297 180.096 C 125.701 182.261,122.618 183.350,116.000 184.793 C 112.800 185.491,111.674 185.965,108.867 187.797 C 105.551 189.961,104.360 190.413,95.223 192.975 C 88.695 194.805,86.490 196.523,84.394 201.414 C 81.855 207.338,89.017 214.015,99.600 215.588 C 105.214 216.423,108.720 217.520,113.581 219.965 C 119.158 222.770,119.900 223.021,125.446 223.977 C 137.376 226.034,140.689 229.290,143.024 241.252 C 144.206 247.308,144.980 249.631,147.138 253.609 C 149.341 257.668,149.836 259.195,151.207 266.166 C 152.747 273.997,153.643 276.584,155.656 279.011 C 157.819 281.618,158.912 283.385,159.778 285.671 C 160.168 286.700,160.927 287.956,161.466 288.462 L 162.445 289.382 165.922 288.493 C 169.649 287.540,170.089 287.208,172.069 283.858 C 173.188 281.966,175.193 280.453,177.651 279.646 C 178.846 279.254,179.227 278.844,179.805 277.332 C 180.752 274.850,183.038 272.651,185.528 271.824 C 187.264 271.247,187.672 270.903,188.396 269.409 C 191.063 263.900,200.520 264.656,207.173 270.910 C 208.630 272.280,210.896 273.931,212.211 274.580 C 213.565 275.250,215.899 276.997,217.600 278.615 C 219.250 280.185,221.770 282.120,223.200 282.916 C 224.630 283.711,227.034 285.439,228.542 286.755 C 231.642 289.462,232.998 290.416,237.039 292.735 C 238.600 293.631,240.361 294.998,240.952 295.773 C 242.455 297.743,244.701 298.911,249.800 300.374 L 254.200 301.637 258.177 300.014 C 264.803 297.310,264.650 297.521,266.172 289.000 C 267.475 281.709,268.857 276.768,270.689 272.845 C 272.263 269.474,273.757 263.243,274.391 257.400 C 275.224 249.736,276.499 244.704,279.723 236.361 C 281.102 232.792,281.801 229.160,282.793 220.400 C 283.944 210.243,285.417 203.946,288.016 198.072 C 289.243 195.296,290.260 189.503,291.388 178.850 C 292.449 168.828,293.396 164.863,296.704 156.600 C 298.080 153.163,299.443 141.893,299.659 132.169 C 299.733 128.839,299.637 128.325,298.498 125.969 C 296.615 122.073,296.297 121.822,291.768 120.646 C 286.938 119.393,287.837 119.341,285.200 121.026 M290.542 125.424 C 291.894 125.768,293.674 126.224,294.497 126.439 C 296.936 127.075,297.273 128.191,296.804 134.076 C 296.182 141.885,295.964 143.210,294.752 146.514 C 292.612 152.348,291.015 160.097,289.580 171.600 C 288.251 182.256,287.589 185.627,286.337 188.116 C 284.212 192.341,282.929 198.620,280.394 217.200 C 279.726 222.095,279.312 223.864,278.427 225.605 C 275.738 230.893,274.466 236.020,272.822 248.200 C 271.470 258.211,271.240 259.188,269.573 262.000 C 266.996 266.348,265.970 270.220,264.425 281.427 C 263.236 290.044,262.979 290.925,260.955 293.296 C 259.990 294.427,259.200 295.471,259.200 295.616 C 259.200 295.761,258.066 296.362,256.679 296.951 L 254.159 298.023 250.579 297.201 C 248.611 296.749,246.609 296.294,246.132 296.190 C 245.567 296.067,245.173 295.589,245.004 294.820 C 244.600 292.979,242.014 290.600,239.547 289.798 C 236.963 288.960,234.800 287.711,234.800 287.059 C 234.800 286.186,232.276 283.505,230.828 282.841 C 227.202 281.177,223.987 278.994,221.600 276.576 C 218.738 273.676,217.669 272.993,214.400 271.983 C 212.415 271.369,212.083 271.096,211.000 269.190 C 209.444 266.451,208.537 265.820,203.768 264.159 C 200.722 263.098,199.440 262.417,198.201 261.201 C 197.278 260.295,195.487 259.173,193.997 258.567 C 189.212 256.623,187.413 255.533,185.200 253.238 C 183.866 251.854,182.055 250.503,180.600 249.805 C 177.000 248.080,176.181 247.403,173.794 244.175 C 172.271 242.115,171.272 241.141,170.503 240.968 C 167.340 240.256,166.414 239.926,165.452 239.170 C 162.979 237.224,165.444 232.343,169.460 231.235 C 171.404 230.698,172.321 229.780,172.840 227.851 C 173.396 225.786,175.750 223.412,177.815 222.832 C 179.909 222.243,180.924 221.334,181.892 219.180 C 182.851 217.044,184.066 215.862,186.205 214.983 C 187.897 214.287,190.400 212.146,190.400 211.394 C 190.400 210.560,193.158 207.715,194.484 207.180 C 195.208 206.888,196.329 206.144,196.976 205.525 C 197.623 204.906,198.276 204.400,198.427 204.400 C 198.579 204.400,198.926 203.862,199.198 203.204 C 199.679 202.043,202.470 199.200,203.129 199.200 C 203.309 199.200,204.073 198.640,204.828 197.956 C 205.583 197.272,206.695 196.534,207.300 196.317 C 208.512 195.882,208.573 195.708,208.025 194.265 C 207.516 192.927,205.127 192.499,203.289 193.416 C 202.569 193.775,200.680 194.247,199.090 194.465 C 194.692 195.068,194.107 195.383,193.779 197.327 C 193.301 200.153,186.816 204.000,182.530 204.000 C 182.340 204.000,181.918 204.440,181.592 204.977 C 179.409 208.576,175.955 210.800,172.549 210.800 C 170.421 210.800,168.169 212.259,167.657 213.969 C 166.755 216.978,163.313 218.860,156.561 220.036 C 154.301 220.430,153.884 220.637,153.528 221.546 C 152.342 224.575,151.902 225.271,150.718 225.991 C 148.936 227.075,146.006 227.489,145.435 226.739 C 144.169 225.074,142.105 224.428,127.678 221.179 C 126.731 220.966,125.471 220.330,124.878 219.767 C 122.084 217.112,116.720 215.327,106.940 213.798 C 100.994 212.869,100.894 212.837,99.037 211.265 C 96.144 208.817,92.755 207.125,89.226 206.368 C 85.526 205.575,85.581 202.622,89.318 201.399 C 91.711 200.617,94.487 198.733,95.193 197.413 C 95.991 195.923,97.717 195.326,106.136 193.633 C 110.625 192.730,114.601 190.905,116.741 188.765 C 118.061 187.445,118.678 187.171,121.626 186.591 C 130.680 184.812,134.364 183.451,137.882 180.585 C 140.007 178.854,141.314 178.420,148.189 177.163 C 152.189 176.432,157.452 174.102,159.524 172.144 C 160.693 171.040,161.883 170.314,162.782 170.155 C 172.343 168.464,176.948 166.879,180.772 163.960 C 183.174 162.128,183.720 161.921,189.168 160.780 C 196.605 159.221,200.472 157.668,202.656 155.362 C 203.950 153.996,206.037 153.322,214.841 151.426 C 218.452 150.649,222.744 148.668,225.098 146.692 C 226.486 145.527,227.509 145.107,230.698 144.394 C 240.306 142.246,242.934 141.292,246.067 138.813 C 247.978 137.301,250.498 136.420,257.000 134.993 C 261.704 133.961,265.957 132.213,268.124 130.422 C 270.419 128.526,269.662 128.778,278.953 126.820 C 283.107 125.944,286.602 125.131,286.719 125.014 C 287.065 124.668,287.933 124.761,290.542 125.424 M236.400 170.406 C 235.867 170.756,235.867 170.844,236.400 171.194 C 237.576 171.966,238.728 171.477,237.948 170.537 C 237.420 169.901,237.198 169.882,236.400 170.406 M220.135 179.424 C 220.003 179.768,220.064 180.983,220.269 182.124 L 220.642 184.200 221.288 182.731 C 222.130 180.814,223.243 180.135,226.353 179.636 C 230.199 179.020,229.804 178.800,224.854 178.800 C 221.164 178.800,220.333 178.910,220.135 179.424 M210.500 186.712 C 208.684 187.410,208.117 189.576,209.214 191.626 C 209.654 192.447,212.800 192.788,212.800 192.014 C 212.800 191.137,215.360 188.805,217.019 188.172 C 219.192 187.342,219.253 186.963,217.300 186.421 C 215.183 185.833,212.487 185.949,210.500 186.712 " stroke="none" fill="#aed1e1" fill-rule="evenodd"></path><path id="path2" d="M284.893 116.667 C 283.955 116.999,282.245 118.126,281.093 119.170 C 278.761 121.285,276.768 121.930,267.465 123.580 C 261.899 124.567,260.422 125.237,257.986 127.881 C 255.925 130.118,255.367 130.316,247.586 131.551 C 241.195 132.566,238.553 133.561,235.901 135.951 C 233.740 137.899,230.065 139.600,228.017 139.600 C 221.509 139.600,215.967 141.997,213.331 145.951 C 213.157 146.213,207.193 147.557,202.400 148.415 C 196.864 149.406,194.306 150.505,191.963 152.899 C 189.995 154.909,187.856 155.821,184.200 156.206 C 177.265 156.937,173.827 158.163,170.781 160.991 C 168.494 163.116,165.435 164.171,158.733 165.150 C 152.943 165.996,150.111 167.245,148.514 169.658 C 147.310 171.477,146.593 171.762,140.600 172.798 C 130.311 174.576,127.800 175.472,125.992 178.011 C 124.577 179.999,122.325 180.868,116.600 181.636 C 110.152 182.501,107.358 183.505,105.090 185.774 C 103.095 187.768,99.588 189.138,93.800 190.183 C 86.752 191.457,84.609 192.803,82.736 197.132 C 77.787 208.573,83.571 216.508,98.111 218.227 C 105.523 219.103,107.378 219.698,109.492 221.874 C 112.265 224.727,115.647 225.802,125.000 226.804 C 130.687 227.413,132.394 228.216,133.983 231.031 C 134.630 232.178,135.713 233.511,136.389 233.992 C 138.227 235.301,139.001 237.256,139.954 243.000 C 141.392 251.670,141.643 252.884,142.435 255.003 C 142.855 256.124,143.842 257.744,144.628 258.603 C 146.836 261.013,147.517 263.349,149.349 274.800 C 150.124 279.640,150.800 281.222,153.177 283.753 C 154.235 284.879,155.483 286.560,155.952 287.489 C 158.441 292.419,160.900 293.636,166.455 292.688 C 171.830 291.771,173.132 290.955,176.133 286.621 C 176.536 286.039,178.111 284.735,179.633 283.723 C 181.515 282.471,182.861 281.188,183.840 279.713 C 184.852 278.189,186.102 277.017,188.038 275.776 C 189.757 274.674,191.342 273.248,192.246 271.990 C 195.101 268.015,199.227 268.392,204.282 273.089 C 206.572 275.217,208.452 276.417,210.400 276.993 C 212.756 277.690,214.077 278.583,214.783 279.955 C 215.797 281.926,217.434 283.392,219.701 284.360 C 222.466 285.542,224.232 286.849,225.584 288.714 C 226.907 290.540,229.941 292.632,234.231 294.675 C 236.374 295.695,237.366 296.454,238.309 297.793 C 239.737 299.818,241.358 300.749,245.600 301.982 C 250.199 303.317,252.123 304.065,253.026 304.867 C 254.063 305.788,254.350 305.784,255.374 304.833 C 255.828 304.412,257.868 303.401,259.908 302.588 C 266.910 299.796,267.692 298.748,268.589 290.959 C 269.331 284.512,270.072 282.047,272.048 279.448 C 274.895 275.706,275.883 271.584,276.810 259.600 C 277.433 251.545,278.419 247.486,280.391 244.861 C 283.452 240.787,284.211 237.135,285.389 220.800 C 286.098 210.974,286.552 209.059,288.767 206.543 C 291.352 203.605,292.459 199.099,293.172 188.600 C 294.543 168.423,294.589 168.164,297.335 165.228 C 299.948 162.435,300.820 158.596,301.612 146.400 C 303.021 124.697,301.127 117.831,293.383 116.563 C 289.274 115.891,287.009 115.919,284.893 116.667 M291.768 120.646 C 296.297 121.822,296.615 122.073,298.498 125.969 C 299.637 128.325,299.733 128.839,299.659 132.169 C 299.443 141.893,298.080 153.163,296.704 156.600 C 293.396 164.863,292.449 168.828,291.388 178.850 C 290.260 189.503,289.243 195.296,288.016 198.072 C 285.417 203.946,283.944 210.243,282.793 220.400 C 281.801 229.160,281.102 232.792,279.723 236.361 C 276.499 244.704,275.224 249.736,274.391 257.400 C 273.757 263.243,272.263 269.474,270.689 272.845 C 268.857 276.768,267.475 281.709,266.172 289.000 C 264.650 297.521,264.803 297.310,258.177 300.014 L 254.200 301.637 249.800 300.374 C 244.701 298.911,242.455 297.743,240.952 295.773 C 240.361 294.998,238.600 293.631,237.039 292.735 C 232.998 290.416,231.642 289.462,228.542 286.755 C 227.034 285.439,224.630 283.711,223.200 282.916 C 221.770 282.120,219.250 280.185,217.600 278.615 C 215.899 276.997,213.565 275.250,212.211 274.580 C 210.896 273.931,208.630 272.280,207.173 270.910 C 200.520 264.656,191.063 263.900,188.396 269.409 C 187.672 270.903,187.264 271.247,185.528 271.824 C 183.038 272.651,180.752 274.850,179.805 277.332 C 179.227 278.844,178.846 279.254,177.651 279.646 C 175.193 280.453,173.188 281.966,172.069 283.858 C 170.089 287.208,169.649 287.540,165.922 288.493 L 162.445 289.382 161.466 288.462 C 160.927 287.956,160.168 286.700,159.778 285.671 C 158.912 283.385,157.819 281.618,155.656 279.011 C 153.643 276.584,152.747 273.997,151.207 266.166 C 149.836 259.195,149.341 257.668,147.138 253.609 C 144.980 249.631,144.206 247.308,143.024 241.252 C 140.689 229.290,137.376 226.034,125.446 223.977 C 119.900 223.021,119.158 222.770,113.581 219.965 C 108.720 217.520,105.214 216.423,99.600 215.588 C 81.099 212.838,78.180 197.754,95.223 192.975 C 104.360 190.413,105.551 189.961,108.867 187.797 C 111.674 185.965,112.800 185.491,116.000 184.793 C 122.618 183.350,125.701 182.261,129.297 180.096 C 133.835 177.364,135.667 176.669,141.651 175.407 C 147.096 174.259,149.918 173.145,152.018 171.315 C 154.100 169.501,155.341 168.990,161.007 167.617 C 168.604 165.777,172.063 164.547,174.464 162.835 C 177.746 160.496,178.938 160.005,183.872 158.960 C 189.973 157.668,192.311 156.800,196.596 154.240 C 200.616 151.838,202.176 151.267,208.743 149.791 C 213.460 148.731,216.362 147.512,218.864 145.543 C 220.620 144.160,222.484 143.463,227.837 142.189 C 233.336 140.880,237.316 139.392,240.219 137.558 C 243.598 135.424,245.030 134.886,250.782 133.589 C 256.374 132.328,258.684 131.450,261.730 129.429 C 264.677 127.474,266.839 126.632,272.034 125.415 C 279.298 123.714,282.840 122.533,285.200 121.026 C 287.837 119.341,286.938 119.393,291.768 120.646 " stroke="none" fill="#74bce4" fill-rule="evenodd"></path><path id="path3" d="M54.400 1.982 C 54.400 4.420,54.459 4.402,45.665 4.519 C 38.295 4.616,38.259 4.639,37.817 9.351 L 37.538 12.333 34.069 12.594 C 32.161 12.738,30.401 12.917,30.157 12.993 C 29.564 13.178,29.200 15.157,29.200 18.201 L 29.200 20.702 25.597 20.874 C 21.151 21.087,21.087 21.151,20.874 25.597 L 20.702 29.200 18.201 29.200 C 15.157 29.200,13.178 29.564,12.993 30.157 C 12.917 30.401,12.738 32.161,12.594 34.069 L 12.333 37.538 9.351 37.817 C 4.639 38.259,4.616 38.295,4.519 45.665 C 4.402 54.459,4.420 54.400,1.982 54.400 L 0.000 54.400 0.000 200.000 L 0.000 345.600 1.982 345.600 C 4.420 345.600,4.402 345.541,4.519 354.335 C 4.616 361.705,4.639 361.741,9.351 362.183 L 12.333 362.462 12.594 365.931 C 12.738 367.839,12.917 369.599,12.993 369.843 C 13.178 370.436,15.157 370.800,18.201 370.800 L 20.702 370.800 20.874 374.403 C 21.087 378.849,21.151 378.913,25.597 379.126 L 29.200 379.298 29.200 381.799 C 29.200 384.843,29.564 386.822,30.157 387.007 C 30.401 387.083,32.161 387.262,34.069 387.406 L 37.538 387.667 37.817 390.649 C 38.259 395.361,38.295 395.384,45.665 395.481 C 54.459 395.598,54.400 395.580,54.400 398.018 L 54.400 400.000 200.000 400.000 L 345.600 400.000 345.600 398.018 C 345.600 395.580,345.541 395.598,354.335 395.481 C 361.705 395.384,361.741 395.361,362.183 390.649 L 362.462 387.667 365.931 387.406 C 367.839 387.262,369.599 387.083,369.843 387.007 C 370.436 386.822,370.800 384.843,370.800 381.799 L 370.800 379.298 374.403 379.126 C 376.414 379.029,378.216 378.744,378.480 378.480 C 378.744 378.216,379.029 376.414,379.126 374.403 L 379.298 370.800 381.799 370.800 C 384.843 370.800,386.822 370.436,387.007 369.843 C 387.083 369.599,387.262 367.839,387.406 365.931 L 387.667 362.462 390.649 362.183 C 395.361 361.741,395.384 361.705,395.481 354.335 C 395.598 345.541,395.580 345.600,398.018 345.600 L 400.000 345.600 400.000 200.000 L 400.000 54.400 398.018 54.400 C 395.580 54.400,395.598 54.459,395.481 45.665 C 395.384 38.295,395.361 38.259,390.649 37.817 L 387.667 37.538 387.406 34.069 C 387.262 32.161,387.083 30.401,387.007 30.157 C 386.822 29.564,384.843 29.200,381.799 29.200 L 379.298 29.200 379.126 25.597 C 378.913 21.151,378.849 21.087,374.403 20.874 L 370.800 20.702 370.800 18.201 C 370.800 15.157,370.436 13.178,369.843 12.993 C 369.599 12.917,367.839 12.738,365.931 12.594 L 362.462 12.333 362.183 9.351 C 361.741 4.639,361.705 4.616,354.335 4.519 C 345.541 4.402,345.600 4.420,345.600 1.982 L 345.600 0.000 200.000 0.000 L 54.400 0.000 54.400 1.982 M44.000 5.880 C 41.058 6.944,40.125 7.888,39.139 10.797 C 38.864 11.608,38.838 11.531,39.004 10.400 C 39.350 8.041,41.983 5.528,44.000 5.632 C 44.533 5.660,44.533 5.687,44.000 5.880 M358.694 6.633 C 359.927 7.430,360.750 8.785,360.995 10.421 C 361.162 11.543,361.138 11.613,360.861 10.797 C 359.869 7.870,359.194 7.182,356.000 5.846 C 355.670 5.708,355.940 5.698,356.600 5.825 C 357.260 5.951,358.202 6.314,358.694 6.633 M32.093 13.799 C 31.374 14.112,30.621 14.780,30.419 15.284 C 30.160 15.927,30.043 16.000,30.025 15.529 C 29.996 14.741,31.822 13.193,32.754 13.216 C 33.109 13.224,32.812 13.487,32.093 13.799 M368.946 14.029 C 369.526 14.485,369.989 15.160,369.975 15.529 C 369.957 16.000,369.840 15.927,369.581 15.284 C 369.379 14.780,368.626 14.112,367.907 13.799 C 367.188 13.487,366.891 13.224,367.246 13.216 C 367.601 13.207,368.366 13.573,368.946 14.029 M22.686 22.520 C 22.199 23.026,21.726 23.387,21.636 23.323 C 21.402 23.155,22.858 21.600,23.248 21.600 C 23.426 21.600,23.173 22.014,22.686 22.520 M377.802 22.402 C 378.825 23.532,378.390 23.637,377.314 22.520 C 376.827 22.014,376.574 21.600,376.752 21.600 C 376.930 21.600,377.403 21.961,377.802 22.402 M15.284 30.419 C 14.780 30.621,14.112 31.374,13.799 32.093 C 13.487 32.812,13.224 33.109,13.216 32.754 C 13.193 31.822,14.741 29.996,15.529 30.025 C 16.000 30.043,15.927 30.160,15.284 30.419 M385.971 31.054 C 386.427 31.634,386.793 32.399,386.784 32.754 C 386.776 33.109,386.513 32.812,386.201 32.093 C 385.888 31.374,385.220 30.621,384.716 30.419 C 384.073 30.160,384.000 30.043,384.471 30.025 C 384.840 30.011,385.515 30.474,385.971 31.054 M10.797 39.174 C 7.971 40.034,7.185 40.799,5.846 44.000 C 5.708 44.330,5.694 44.060,5.816 43.400 C 6.244 41.069,8.882 38.746,11.000 38.835 C 11.651 38.862,11.613 38.926,10.797 39.174 M391.874 39.811 C 393.049 40.582,393.886 41.886,394.175 43.400 C 394.302 44.060,394.292 44.330,394.154 44.000 C 392.818 40.806,392.130 40.131,389.203 39.139 C 388.387 38.862,388.457 38.838,389.579 39.005 C 390.338 39.119,391.370 39.482,391.874 39.811 M297.212 114.040 C 302.596 115.195,303.604 118.693,303.595 136.190 C 303.580 163.610,302.596 168.947,297.293 170.375 L 295.722 170.798 295.463 175.299 C 295.320 177.775,295.199 182.140,295.194 185.000 C 295.159 204.270,294.028 209.370,289.329 211.448 C 287.928 212.068,287.198 212.631,287.193 213.095 C 286.895 242.289,285.648 249.426,280.471 251.571 C 278.675 252.314,278.495 253.370,278.242 264.600 C 277.903 279.685,277.045 283.038,273.023 285.006 C 270.436 286.272,270.513 286.077,270.180 292.200 C 269.712 300.781,268.920 302.412,264.840 303.202 C 261.638 303.822,260.939 304.194,260.625 305.444 C 259.027 311.811,249.804 311.853,247.569 305.503 C 247.002 303.894,247.052 303.915,242.411 303.394 C 237.571 302.851,232.460 299.773,231.759 296.979 C 231.471 295.833,230.364 295.177,227.161 294.257 C 224.261 293.423,222.972 292.111,222.357 289.365 C 221.828 286.999,221.637 286.879,217.312 286.199 C 215.211 285.869,213.680 284.697,212.914 282.833 C 212.061 280.756,210.471 279.247,208.830 278.956 C 208.043 278.817,206.590 278.388,205.600 278.003 C 204.610 277.618,202.720 276.989,201.400 276.606 C 199.596 276.082,198.588 275.483,197.343 274.192 L 195.685 272.475 195.454 273.631 C 195.039 275.705,192.882 277.581,190.007 278.368 L 187.425 279.075 186.740 281.382 C 185.700 284.888,184.874 285.564,180.152 286.779 C 178.697 287.153,178.478 287.364,178.281 288.581 C 177.556 293.044,175.851 294.139,167.983 295.189 C 160.454 296.193,156.851 295.481,154.974 292.616 C 154.623 292.081,153.017 290.258,151.405 288.566 C 147.890 284.875,147.297 283.242,146.973 276.351 C 146.623 268.942,146.204 267.162,144.554 266.080 C 141.130 263.836,139.378 259.678,138.789 252.400 C 137.930 241.775,138.001 242.017,134.777 238.710 C 131.523 235.372,130.982 234.484,130.262 231.303 L 129.740 229.000 126.170 228.725 C 124.207 228.573,120.080 228.268,117.000 228.046 C 108.508 227.434,106.563 226.515,105.522 222.626 C 104.924 220.387,105.437 220.530,96.154 220.016 C 83.161 219.296,82.265 218.817,80.347 211.550 C 78.839 205.837,79.523 195.112,81.614 191.673 C 82.928 189.513,86.508 188.402,92.173 188.398 C 96.648 188.394,97.625 187.968,98.803 185.507 C 100.555 181.850,104.061 180.606,114.400 179.975 C 122.399 179.486,121.715 179.720,122.347 177.258 C 123.373 173.253,125.378 172.363,135.038 171.624 C 141.464 171.132,140.939 171.343,144.620 167.768 C 148.300 164.194,149.600 163.716,156.543 163.388 C 164.038 163.034,163.798 163.112,164.926 160.650 C 166.680 156.817,169.271 155.829,180.129 154.847 L 187.290 154.200 188.067 152.118 C 189.497 148.279,191.291 147.422,199.200 146.795 C 206.903 146.185,207.098 146.135,207.820 144.614 C 209.729 140.591,214.443 138.765,224.400 138.190 C 230.229 137.853,230.615 137.709,230.985 135.739 C 231.737 131.730,233.910 130.945,247.998 129.595 C 252.982 129.118,254.066 128.603,254.595 126.462 C 255.345 123.425,258.536 122.081,265.800 121.743 C 271.769 121.466,273.461 121.076,273.828 119.891 C 275.367 114.936,287.376 111.931,297.212 114.040 M6.703 357.918 C 7.279 359.171,8.587 360.112,10.797 360.861 C 11.613 361.138,11.543 361.162,10.421 360.995 C 7.959 360.626,6.290 359.031,5.825 356.600 C 5.698 355.940,5.708 355.670,5.846 356.000 C 5.984 356.330,6.370 357.193,6.703 357.918 M393.733 357.874 C 392.836 359.679,391.451 360.725,389.600 360.996 C 388.469 361.162,388.392 361.136,389.203 360.861 C 392.087 359.884,393.909 358.026,394.032 355.940 C 394.055 355.536,394.114 355.526,394.265 355.900 C 394.376 356.174,394.136 357.063,393.733 357.874 M15.284 369.581 C 15.927 369.840,16.000 369.957,15.529 369.975 C 14.741 370.004,13.193 368.178,13.216 367.246 C 13.224 366.891,13.487 367.188,13.799 367.907 C 14.112 368.626,14.780 369.379,15.284 369.581 M386.105 368.741 C 385.671 369.324,384.974 369.845,384.558 369.900 C 384.007 369.972,384.056 369.890,384.735 369.600 C 385.249 369.380,385.876 368.652,386.129 367.983 C 386.382 367.313,386.657 366.972,386.741 367.224 C 386.825 367.476,386.539 368.159,386.105 368.741 M23.323 378.364 C 23.155 378.598,21.600 377.142,21.600 376.752 C 21.600 376.574,22.014 376.827,22.520 377.314 C 23.026 377.801,23.387 378.274,23.323 378.364 M377.802 377.598 C 377.403 378.039,376.930 378.400,376.752 378.400 C 376.574 378.400,376.827 377.986,377.314 377.480 C 378.390 376.363,378.825 376.468,377.802 377.598 M32.093 386.201 C 32.812 386.513,33.109 386.776,32.754 386.784 C 31.822 386.807,29.996 385.259,30.025 384.471 C 30.043 384.000,30.160 384.073,30.419 384.716 C 30.621 385.220,31.374 385.888,32.093 386.201 M369.035 385.871 C 368.441 386.382,367.650 386.793,367.278 386.784 C 366.905 386.776,367.201 386.508,367.936 386.188 C 368.694 385.860,369.374 385.221,369.507 384.714 C 369.661 384.125,369.804 384.011,369.927 384.382 C 370.030 384.690,369.629 385.361,369.035 385.871 M40.122 391.449 C 40.683 392.535,41.514 393.114,44.000 394.154 C 44.330 394.292,44.060 394.302,43.400 394.175 C 40.969 393.710,39.374 392.041,39.005 389.579 C 38.838 388.457,38.862 388.387,39.139 389.203 C 39.326 389.754,39.768 390.765,40.122 391.449 M360.530 391.080 C 359.684 392.781,358.304 393.871,356.600 394.184 C 355.940 394.306,355.670 394.292,356.000 394.154 C 358.616 393.060,359.318 392.537,360.020 391.161 C 360.449 390.320,360.821 389.310,360.846 388.916 C 360.890 388.241,360.903 388.240,361.077 388.905 C 361.178 389.293,360.932 390.272,360.530 391.080 " stroke="none" fill="#34ace4" fill-rule="evenodd"></path><path id="path4" d="M42.028 6.301 C 40.313 7.176,39.269 8.590,39.004 10.400 C 38.838 11.531,38.864 11.608,39.139 10.797 C 40.125 7.888,41.058 6.944,44.000 5.880 C 44.533 5.687,44.533 5.660,44.000 5.632 C 43.670 5.615,42.783 5.916,42.028 6.301 M356.000 5.846 C 359.194 7.182,359.869 7.870,360.861 10.797 C 361.138 11.613,361.162 11.543,360.995 10.421 C 360.626 7.959,359.031 6.290,356.600 5.825 C 355.940 5.698,355.670 5.708,356.000 5.846 M31.054 14.029 C 30.474 14.485,30.011 15.160,30.025 15.529 C 30.043 16.000,30.160 15.927,30.419 15.284 C 30.621 14.780,31.374 14.112,32.093 13.799 C 32.812 13.487,33.109 13.224,32.754 13.216 C 32.399 13.207,31.634 13.573,31.054 14.029 M367.907 13.799 C 368.626 14.112,369.379 14.780,369.581 15.284 C 369.840 15.927,369.957 16.000,369.975 15.529 C 370.004 14.741,368.178 13.193,367.246 13.216 C 366.891 13.224,367.188 13.487,367.907 13.799 M22.198 22.402 C 21.175 23.532,21.610 23.637,22.686 22.520 C 23.173 22.014,23.426 21.600,23.248 21.600 C 23.070 21.600,22.597 21.961,22.198 22.402 M377.314 22.520 C 377.801 23.026,378.274 23.387,378.364 23.323 C 378.598 23.155,377.142 21.600,376.752 21.600 C 376.574 21.600,376.827 22.014,377.314 22.520 M14.029 31.054 C 13.573 31.634,13.207 32.399,13.216 32.754 C 13.224 33.109,13.487 32.812,13.799 32.093 C 14.112 31.374,14.780 30.621,15.284 30.419 C 15.927 30.160,16.000 30.043,15.529 30.025 C 15.160 30.011,14.485 30.474,14.029 31.054 M384.716 30.419 C 385.220 30.621,385.888 31.374,386.201 32.093 C 386.513 32.812,386.776 33.109,386.784 32.754 C 386.807 31.822,385.259 29.996,384.471 30.025 C 384.000 30.043,384.073 30.160,384.716 30.419 M8.828 39.501 C 7.210 40.326,6.122 41.735,5.816 43.400 C 5.694 44.060,5.708 44.330,5.846 44.000 C 7.185 40.799,7.971 40.034,10.797 39.174 C 11.613 38.926,11.651 38.862,11.000 38.835 C 10.560 38.816,9.583 39.116,8.828 39.501 M389.203 39.139 C 392.130 40.131,392.818 40.806,394.154 44.000 C 394.292 44.330,394.302 44.060,394.175 43.400 C 393.710 40.969,392.041 39.374,389.579 39.005 C 388.457 38.838,388.387 38.862,389.203 39.139 M281.909 114.222 C 277.457 115.301,274.640 117.278,273.828 119.891 C 273.461 121.076,271.769 121.466,265.800 121.743 C 258.536 122.081,255.345 123.425,254.595 126.462 C 254.066 128.603,252.982 129.118,247.998 129.595 C 233.910 130.945,231.737 131.730,230.985 135.739 C 230.615 137.709,230.229 137.853,224.400 138.190 C 214.443 138.765,209.729 140.591,207.820 144.614 C 207.098 146.135,206.903 146.185,199.200 146.795 C 191.291 147.422,189.497 148.279,188.067 152.118 L 187.290 154.200 180.129 154.847 C 169.271 155.829,166.680 156.817,164.926 160.650 C 163.798 163.112,164.038 163.034,156.543 163.388 C 149.600 163.716,148.300 164.194,144.620 167.768 C 140.939 171.343,141.464 171.132,135.038 171.624 C 125.378 172.363,123.373 173.253,122.347 177.258 C 121.715 179.720,122.399 179.486,114.400 179.975 C 104.061 180.606,100.555 181.850,98.803 185.507 C 97.625 187.968,96.648 188.394,92.173 188.398 C 86.508 188.402,82.928 189.513,81.614 191.673 C 79.523 195.112,78.839 205.837,80.347 211.550 C 82.265 218.817,83.161 219.296,96.154 220.016 C 105.437 220.530,104.924 220.387,105.522 222.626 C 106.563 226.515,108.508 227.434,117.000 228.046 C 120.080 228.268,124.207 228.573,126.170 228.725 L 129.740 229.000 130.262 231.303 C 130.982 234.484,131.523 235.372,134.777 238.710 C 138.001 242.017,137.930 241.775,138.789 252.400 C 139.378 259.678,141.130 263.836,144.554 266.080 C 146.204 267.162,146.623 268.942,146.973 276.351 C 147.297 283.242,147.890 284.875,151.405 288.566 C 153.017 290.258,154.623 292.081,154.974 292.616 C 156.851 295.481,160.454 296.193,167.983 295.189 C 175.851 294.139,177.556 293.044,178.281 288.581 C 178.478 287.364,178.697 287.153,180.152 286.779 C 184.874 285.564,185.700 284.888,186.740 281.382 L 187.425 279.075 190.007 278.368 C 192.882 277.581,195.039 275.705,195.454 273.631 L 195.685 272.475 197.343 274.192 C 198.588 275.483,199.596 276.082,201.400 276.606 C 202.720 276.989,204.610 277.618,205.600 278.003 C 206.590 278.388,208.043 278.817,208.830 278.956 C 210.471 279.247,212.061 280.756,212.914 282.833 C 213.680 284.697,215.211 285.869,217.312 286.199 C 221.637 286.879,221.828 286.999,222.357 289.365 C 222.972 292.111,224.261 293.423,227.161 294.257 C 230.364 295.177,231.471 295.833,231.759 296.979 C 232.460 299.773,237.571 302.851,242.411 303.394 C 247.052 303.915,247.002 303.894,247.569 305.503 C 249.804 311.853,259.027 311.811,260.625 305.444 C 260.939 304.194,261.638 303.822,264.840 303.202 C 268.920 302.412,269.712 300.781,270.180 292.200 C 270.513 286.077,270.436 286.272,273.023 285.006 C 277.045 283.038,277.903 279.685,278.242 264.600 C 278.495 253.370,278.675 252.314,280.471 251.571 C 285.648 249.426,286.895 242.289,287.193 213.095 C 287.198 212.631,287.928 212.068,289.329 211.448 C 294.028 209.370,295.159 204.270,295.194 185.000 C 295.199 182.140,295.320 177.775,295.463 175.299 L 295.722 170.798 297.293 170.375 C 302.596 168.947,303.580 163.610,303.595 136.190 C 303.604 118.693,302.596 115.195,297.212 114.040 C 294.355 113.427,284.714 113.542,281.909 114.222 M293.383 116.563 C 301.127 117.831,303.021 124.697,301.612 146.400 C 300.820 158.596,299.948 162.435,297.335 165.228 C 294.589 168.164,294.543 168.423,293.172 188.600 C 292.459 199.099,291.352 203.605,288.767 206.543 C 286.552 209.059,286.098 210.974,285.389 220.800 C 284.211 237.135,283.452 240.787,280.391 244.861 C 278.419 247.486,277.433 251.545,276.810 259.600 C 275.883 271.584,274.895 275.706,272.048 279.448 C 270.072 282.047,269.331 284.512,268.589 290.959 C 267.692 298.748,266.910 299.796,259.908 302.588 C 257.868 303.401,255.828 304.412,255.374 304.833 C 254.350 305.784,254.063 305.788,253.026 304.867 C 252.123 304.065,250.199 303.317,245.600 301.982 C 241.358 300.749,239.737 299.818,238.309 297.793 C 237.366 296.454,236.374 295.695,234.231 294.675 C 229.941 292.632,226.907 290.540,225.584 288.714 C 224.232 286.849,222.466 285.542,219.701 284.360 C 217.434 283.392,215.797 281.926,214.783 279.955 C 214.077 278.583,212.756 277.690,210.400 276.993 C 208.452 276.417,206.572 275.217,204.282 273.089 C 199.227 268.392,195.101 268.015,192.246 271.990 C 191.342 273.248,189.757 274.674,188.038 275.776 C 186.102 277.017,184.852 278.189,183.840 279.713 C 182.861 281.188,181.515 282.471,179.633 283.723 C 178.111 284.735,176.536 286.039,176.133 286.621 C 173.132 290.955,171.830 291.771,166.455 292.688 C 160.900 293.636,158.441 292.419,155.952 287.489 C 155.483 286.560,154.235 284.879,153.177 283.753 C 150.800 281.222,150.124 279.640,149.349 274.800 C 147.517 263.349,146.836 261.013,144.628 258.603 C 143.842 257.744,142.855 256.124,142.435 255.003 C 141.643 252.884,141.392 251.670,139.954 243.000 C 139.001 237.256,138.227 235.301,136.389 233.992 C 135.713 233.511,134.630 232.178,133.983 231.031 C 132.394 228.216,130.687 227.413,125.000 226.804 C 115.647 225.802,112.265 224.727,109.492 221.874 C 107.378 219.698,105.523 219.103,98.111 218.227 C 83.571 216.508,77.787 208.573,82.736 197.132 C 84.609 192.803,86.752 191.457,93.800 190.183 C 99.588 189.138,103.095 187.768,105.090 185.774 C 107.358 183.505,110.152 182.501,116.600 181.636 C 122.325 180.868,124.577 179.999,125.992 178.011 C 127.800 175.472,130.311 174.576,140.600 172.798 C 146.593 171.762,147.310 171.477,148.514 169.658 C 150.111 167.245,152.943 165.996,158.733 165.150 C 165.435 164.171,168.494 163.116,170.781 160.991 C 173.827 158.163,177.265 156.937,184.200 156.206 C 187.856 155.821,189.995 154.909,191.963 152.899 C 194.306 150.505,196.864 149.406,202.400 148.415 C 207.193 147.557,213.157 146.213,213.331 145.951 C 215.967 141.997,221.509 139.600,228.017 139.600 C 230.065 139.600,233.740 137.899,235.901 135.951 C 238.553 133.561,241.195 132.566,247.586 131.551 C 255.367 130.316,255.925 130.118,257.986 127.881 C 260.422 125.237,261.899 124.567,267.465 123.580 C 276.768 121.930,278.761 121.285,281.093 119.170 C 284.495 116.084,287.091 115.534,293.383 116.563 M5.825 356.600 C 6.290 359.031,7.959 360.626,10.421 360.995 C 11.543 361.162,11.613 361.138,10.797 360.861 C 7.870 359.869,7.182 359.194,5.846 356.000 C 5.708 355.670,5.698 355.940,5.825 356.600 M394.032 355.940 C 393.909 358.026,392.087 359.884,389.203 360.861 C 388.392 361.136,388.469 361.162,389.600 360.996 C 392.007 360.643,394.903 357.480,394.265 355.900 C 394.114 355.526,394.055 355.536,394.032 355.940 M13.216 367.246 C 13.193 368.178,14.741 370.004,15.529 369.975 C 16.000 369.957,15.927 369.840,15.284 369.581 C 14.780 369.379,14.112 368.626,13.799 367.907 C 13.487 367.188,13.224 366.891,13.216 367.246 M386.129 367.983 C 385.876 368.652,385.249 369.380,384.735 369.600 C 384.056 369.890,384.007 369.972,384.558 369.900 C 385.432 369.785,386.968 367.903,386.741 367.224 C 386.657 366.972,386.382 367.313,386.129 367.983 M21.600 376.752 C 21.600 377.142,23.155 378.598,23.323 378.364 C 23.387 378.274,23.026 377.801,22.520 377.314 C 22.014 376.827,21.600 376.574,21.600 376.752 M377.314 377.480 C 376.827 377.986,376.574 378.400,376.752 378.400 C 377.142 378.400,378.598 376.845,378.364 376.677 C 378.274 376.613,377.801 376.974,377.314 377.480 M30.025 384.471 C 29.996 385.259,31.822 386.807,32.754 386.784 C 33.109 386.776,32.812 386.513,32.093 386.201 C 31.374 385.888,30.621 385.220,30.419 384.716 C 30.160 384.073,30.043 384.000,30.025 384.471 M369.507 384.714 C 369.374 385.221,368.694 385.860,367.936 386.188 C 367.201 386.508,366.905 386.776,367.278 386.784 C 368.227 386.806,370.153 385.059,369.927 384.382 C 369.804 384.011,369.661 384.125,369.507 384.714 M39.005 389.579 C 39.374 392.041,40.969 393.710,43.400 394.175 C 44.060 394.302,44.330 394.292,44.000 394.154 C 40.806 392.818,40.131 392.130,39.139 389.203 C 38.862 388.387,38.838 388.457,39.005 389.579 M360.846 388.916 C 360.821 389.310,360.449 390.320,360.020 391.161 C 359.318 392.537,358.616 393.060,356.000 394.154 C 355.670 394.292,355.940 394.306,356.600 394.184 C 358.981 393.747,361.550 390.718,361.077 388.905 C 360.903 388.240,360.890 388.241,360.846 388.916 " stroke="none" fill="#4cace4" fill-rule="evenodd"></path></g></svg>